<svg width="311" height="257" viewBox="0 0 311 257" fill="none" xmlns="http://www.w3.org/2000/svg">
<path fill-rule="evenodd" clip-rule="evenodd" d="M146.664 6.10352e-05C102.143 6.10352e-05 63.8486 26.6396 46.841 64.8443C47.7864 65.8019 48.3941 66.5444 48.3941 66.5444C57.9802 59.4813 74.569 56.9725 77.7664 66.8494C81.0191 76.8989 103.577 67.6084 104.079 76.6412L154.257 81.8433H40.9045C38.6475 90.5875 37.4463 99.7598 37.4463 109.211C37.4461 169.525 86.3444 218.421 146.664 218.421C206.983 218.421 255.88 169.525 255.88 109.211C255.88 87.996 249.824 68.1973 239.356 51.4394H101.858L152.034 46.2373C152.538 37.2022 175.096 46.495 178.348 36.4455C181.545 26.5686 198.134 29.0775 207.721 36.1405C207.721 36.1405 213.228 29.4085 216.9 30.3283C217.11 30.3803 217.936 29.2382 219.189 27.5641C199.903 10.4184 174.5 6.10352e-05 146.664 6.10352e-05Z" fill="#7B2BFF"/>
<path d="M18.8823 212.403C18.8827 212.403 18.883 212.403 18.8823 212.403C18.774 212.376 18.6323 212.336 18.4625 212.282L18.0539 212.142C16.7903 211.708 14.8859 210.932 13.0367 210.135C10.8039 209.172 8.69347 208.2 7.88974 207.765C7.42652 207.514 7.2889 197.751 7.19361 190.976C7.18604 190.449 7.17871 189.938 7.17138 189.451C7.1598 188.68 7.14749 187.978 7.13378 187.38C7.11817 186.691 7.10115 186.115 7.08199 185.679C7.04582 184.859 7.05409 183.275 7.09382 181.18C7.13378 179.089 7.20756 176.429 7.30143 173.469V173.466L7.31302 173.105C7.72138 160.364 8.49035 142.781 8.54521 141.528C8.64216 140.587 10.2156 125.345 10.5691 122.829C10.9048 120.44 11.5922 118.719 12.7497 117.591C13.9079 116.461 15.6449 115.813 18.0828 115.569L18.1466 115.562C18.1939 115.555 34.581 113.401 44.348 112.053C46.3865 111.772 48.115 111.528 49.3375 111.351C50.6049 111.169 51.5224 111.029 51.9605 110.951C53.0608 110.755 53.7117 110.665 54.3582 110.578C56.2603 110.318 58.1314 110.06 65.0407 108.393C80.1547 104.744 96.4104 101.833 112.754 99.4617C129.155 97.0805 145.56 95.2551 160.963 93.7772C164.964 93.3941 169.613 93.1979 174.614 93.1411C180.263 93.0797 186.38 93.2002 192.528 93.4367C194.611 93.5171 196.777 93.614 198.998 93.7275C201.178 93.8387 203.422 93.9687 205.697 94.1106C208.283 94.2738 210.941 94.5126 213.571 94.7987C216.612 95.1297 219.648 95.5246 222.516 95.9384C231.686 97.2626 238.846 98.7192 239.21 98.7925C240.068 99.0171 247.888 101.098 258.084 105.283C258.174 105.321 258.439 105.432 258.869 105.619C259.184 105.754 259.437 105.865 259.631 105.952C264.213 108.022 267.249 110.28 269.247 112.209C271.172 114.07 272.111 115.621 272.527 116.352L272.532 116.35C272.551 116.387 272.607 116.515 272.693 116.721C272.832 117.054 272.962 117.381 273.083 117.702C273.262 118.177 273.395 118.532 273.482 118.778C273.582 119.052 273.745 119.513 273.96 120.133C275.885 125.64 278.625 134.216 278.635 134.242L279.082 135.645L279.562 135.649L280.633 139.222C280.645 139.26 284.62 152.45 286.057 161.556C286.544 164.649 286.854 169.718 287.05 175.046C287.249 180.451 287.329 186.048 287.36 190.163C287.388 193.958 287.377 196.505 287.377 196.512L287.372 197.365L287.911 197.904C287.97 198.522 288.086 199.813 288.188 201.255C288.27 202.402 288.344 203.591 288.379 204.554C288.384 204.677 288.386 204.759 288.389 204.807L288.396 205.041C288.41 205.554 288.386 206.284 288.339 207.136C288.282 208.181 288.195 209.302 288.093 210.39C287.982 211.617 287.828 213.021 287.677 214.292C287.526 215.562 287.398 216.503 287.334 216.791C287.199 217.424 287.013 218.887 286.83 220.666C286.653 222.391 286.478 224.397 286.358 226.201C286.315 226.84 286.209 227.504 286.055 228.163C285.892 228.864 285.669 229.558 285.412 230.211C285.081 231.049 284.707 231.776 284.333 232.314C284.078 232.685 283.879 232.92 283.773 232.971C283.338 233.176 275.627 233.355 267.708 233.486C259.548 233.62 251.295 233.668 250.018 233.675L248.56 233.683L248.101 235.067L248.084 235.119L248.082 235.122L248.075 235.119C248.063 235.155 247.427 237.082 246.481 238.96L245.117 241.669L248.143 241.904C250.023 242.049 266.791 243.375 276.353 245.075C276.911 245.174 277.441 245.274 277.94 245.374C258.226 250.879 222.908 250.87 184.165 248.197C120.543 243.808 47.8712 232.212 19.4313 226.008C15.52 225.154 13.0334 224.402 11.635 223.741C12.0564 223.573 12.5707 223.4 13.1531 223.226C18.4611 221.64 27.7767 220.753 29.1056 220.632L30.9589 220.464V218.612V215.806V214.031L29.9117 213.89L29.8242 213.715L28.7443 213.57C27.369 213.387 24.1487 212.961 22.0709 212.715C20.6193 212.544 19.3911 212.416 18.8813 212.406M18.8823 212.403L18.8813 212.406M18.8823 212.403C18.8778 212.404 18.8416 212.405 18.8215 212.405L18.8231 212.406C18.8413 212.406 18.8607 212.406 18.8813 212.406M240.132 94.8413C240.156 94.8484 248.593 97.0001 259.628 101.528C260.092 101.717 260.371 101.836 260.475 101.878C260.699 101.975 260.974 102.098 261.3 102.245C266.379 104.538 269.794 107.087 272.064 109.282C274.405 111.545 275.549 113.436 276.06 114.33V114.337C276.185 114.557 276.315 114.829 276.448 115.146C276.547 115.38 276.696 115.763 276.885 116.272C276.958 116.463 277.1 116.851 277.301 117.411C277.509 117.986 277.672 118.445 277.795 118.797C279.24 122.928 281.233 129.081 282.087 131.729C283.206 131.871 284.955 132.171 287.358 132.805C291.834 133.987 298.27 136.997 298.289 137.004L298.431 137.073L298.504 137.118C298.523 137.13 305.539 141.445 307.135 147.451C307.388 148.406 307.561 149.463 307.67 150.577C307.788 151.774 307.83 153.041 307.821 154.311C307.809 155.997 307.707 157.671 307.573 159.165C307.353 161.613 307.06 163.521 306.929 164.275C306.87 164.616 306.766 164.942 306.622 165.254C306.102 166.394 305.118 167.155 303.936 167.55C302.94 167.881 301.791 167.954 300.704 167.765C300.138 167.666 299.571 167.493 299.032 167.245C296.329 166.008 296.331 165.431 296.334 162.679C296.334 162.234 296.334 161.686 296.298 160.934L296.268 160.291C296.102 156.666 295.693 147.749 293.747 146.089C292.312 144.864 288.573 143.207 285.674 142.024C286.984 146.713 289.079 154.677 290.065 160.936C290.583 164.214 290.907 169.444 291.108 174.902C291.304 180.281 291.385 185.954 291.418 190.146C291.437 192.787 291.439 194.828 291.437 195.835C291.654 196.178 291.86 196.604 291.914 197.048C291.94 197.247 292.101 198.952 292.245 200.969C292.321 202.028 292.392 203.227 292.437 204.412C292.439 204.464 292.442 204.554 292.446 204.679C292.446 204.71 292.449 204.79 292.453 204.944C292.47 205.608 292.446 206.441 292.397 207.358C292.342 208.349 292.248 209.534 292.134 210.756C291.992 212.324 291.843 213.719 291.718 214.769C291.555 216.136 291.401 217.217 291.314 217.634C291.203 218.151 291.039 219.456 290.872 221.08C290.706 222.696 290.538 224.643 290.415 226.471C290.358 227.345 290.219 228.228 290.018 229.086C289.803 230.003 289.521 230.892 289.197 231.706C288.765 232.803 288.237 233.81 287.675 234.622C287.02 235.567 286.277 236.282 285.506 236.646C284.459 237.143 276.147 237.405 267.772 237.543C261.165 237.652 254.443 237.704 251.459 237.724C251.414 237.837 251.366 237.957 251.319 238.08C256.994 238.559 269.316 239.69 277.053 241.065C279.342 241.472 281.269 241.909 282.574 242.371C285.454 243.39 286.471 244.837 284.882 246.832C284.487 247.327 283.839 247.745 282.91 248.074C263.534 254.912 225.614 255.132 183.893 252.254C120.046 247.849 47.1141 236.213 18.572 229.985C12.9606 228.761 9.76581 227.573 8.27304 226.451C5.98246 224.73 6.04962 223.038 7.72185 221.419C8.59439 220.574 10.1229 219.887 11.9914 219.328C15.4869 218.284 20.5538 217.531 24.2298 217.079C23.3754 216.972 22.4736 216.861 21.5935 216.757C20.2365 216.597 19.1334 216.479 18.8208 216.479C18.5796 216.479 18.2788 216.433 17.9277 216.348C17.77 216.31 17.5971 216.263 17.4117 216.207H17.4105L15.3827 216.223L15.3767 215.495C14.1923 215.041 12.7927 214.461 11.4295 213.874C9.12572 212.88 6.88431 211.843 5.96425 211.344C3.40293 209.957 3.24545 198.779 3.13621 191.023C3.12888 190.496 3.12154 189.985 3.11397 189.498C3.10309 188.784 3.09128 188.105 3.07662 187.458C3.06362 186.897 3.04706 186.363 3.0246 185.854C2.98629 184.982 2.99457 183.315 3.03666 181.116C3.07851 178.914 3.15204 176.24 3.24402 173.341H3.2445L3.25113 173L3.29109 170.969H3.32159C3.7614 157.855 4.48875 141.331 4.49112 141.282L4.49915 141.161C4.50388 141.114 6.17494 124.893 6.54358 122.273C7.00775 118.97 8.06898 116.482 9.91762 114.678C11.7627 112.878 14.2848 111.871 17.6692 111.528C18.6205 111.405 33.7321 109.417 43.7911 108.026C45.6256 107.773 47.3231 107.534 48.7645 107.326C49.9007 107.161 50.7671 107.028 51.2604 106.941C52.2164 106.771 53.0194 106.662 53.8174 106.551C55.6216 106.305 57.3962 106.061 64.0859 104.446C79.382 100.755 95.758 97.8183 112.182 95.4348C128.545 93.0607 145.04 91.2258 160.583 89.7361C164.68 89.3436 169.452 89.1402 174.583 89.0835C180.327 89.022 186.498 89.1402 192.672 89.3791C194.931 89.4665 197.111 89.5635 199.206 89.6699C201.559 89.7905 203.81 89.9182 205.95 90.053C208.586 90.2185 211.303 90.4644 214.001 90.7576C217.136 91.0981 220.215 91.5001 223.088 91.9139C232.509 93.2735 240.014 94.8129 240.038 94.8176L240.132 94.8413ZM280.55 135.659L280.349 135.656L283.284 136.732C283.312 136.742 293.328 140.393 296.388 143.003C299.668 145.801 300.136 155.98 300.325 160.116C300.332 160.277 300.339 160.418 300.356 160.742C300.391 161.499 300.391 162.149 300.391 162.679C300.389 163.28 300.389 163.405 300.718 163.554C300.916 163.646 301.143 163.712 301.389 163.755C301.846 163.835 302.295 163.816 302.647 163.698C302.789 163.651 302.888 163.611 302.922 163.58C303.054 162.826 303.335 160.988 303.532 158.815C303.657 157.415 303.754 155.852 303.763 154.294C303.77 153.171 303.733 152.043 303.628 150.974C303.541 150.08 303.404 149.236 303.205 148.484C302.106 144.349 297.083 141.034 296.428 140.615C295.487 140.182 290.11 137.735 286.322 136.735C282.241 135.656 280.555 135.659 280.55 135.659ZM302.931 163.568C302.936 163.561 302.933 163.563 302.931 163.57V163.568Z" stroke="white" stroke-width="5.70252" stroke-miterlimit="22.9256" stroke-linecap="round" stroke-linejoin="round"/>
<path d="M240.132 94.8413C240.156 94.8484 248.593 97.0001 259.628 101.528C260.092 101.717 260.371 101.836 260.475 101.878C260.699 101.975 260.974 102.098 261.3 102.245C266.379 104.538 269.794 107.087 272.064 109.282C274.405 111.545 275.549 113.436 276.06 114.33V114.337C276.185 114.557 276.315 114.829 276.448 115.146C276.547 115.38 276.696 115.763 276.885 116.272C276.958 116.463 277.1 116.851 277.301 117.411C277.509 117.986 277.672 118.445 277.795 118.797C279.24 122.928 281.233 129.081 282.087 131.729C283.206 131.871 284.955 132.171 287.358 132.805C291.834 133.987 298.27 136.997 298.289 137.004L298.431 137.073L298.504 137.118C298.523 137.13 305.539 141.445 307.135 147.451C307.388 148.406 307.561 149.463 307.67 150.577C307.788 151.774 307.83 153.041 307.821 154.311C307.809 155.997 307.707 157.671 307.573 159.165C307.353 161.613 307.06 163.521 306.93 164.275C306.87 164.616 306.766 164.942 306.622 165.254C306.102 166.394 305.118 167.155 303.936 167.55C302.94 167.881 301.791 167.954 300.703 167.765C300.138 167.666 299.571 167.493 299.032 167.245C296.329 166.008 296.331 165.431 296.334 162.679C296.334 162.234 296.334 161.686 296.298 160.934L296.268 160.291C296.102 156.666 295.693 147.749 293.747 146.089C292.312 144.864 288.573 143.207 285.674 142.024C286.984 146.713 289.079 154.677 290.065 160.936C290.583 164.214 290.907 169.444 291.108 174.902C291.304 180.281 291.385 185.954 291.418 190.146C291.437 192.787 291.439 194.828 291.437 195.835C291.654 196.178 291.86 196.604 291.914 197.048C291.94 197.247 292.101 198.952 292.245 200.969C292.321 202.028 292.392 203.227 292.437 204.412C292.439 204.464 292.442 204.554 292.446 204.679C292.446 204.71 292.449 204.79 292.453 204.944C292.47 205.608 292.446 206.441 292.397 207.358C292.342 208.349 292.248 209.534 292.134 210.756C291.992 212.324 291.843 213.719 291.718 214.769C291.555 216.136 291.401 217.217 291.314 217.634C291.203 218.151 291.039 219.456 290.872 221.08C290.706 222.696 290.538 224.643 290.415 226.471C290.358 227.345 290.219 228.228 290.018 229.086C289.803 230.003 289.521 230.892 289.197 231.706C288.765 232.803 288.237 233.81 287.675 234.622C287.02 235.567 286.277 236.282 285.506 236.646C284.459 237.143 276.147 237.405 267.772 237.543C261.165 237.652 254.443 237.704 251.459 237.724C251.414 237.837 251.366 237.957 251.319 238.08C256.994 238.559 269.316 239.69 277.053 241.065C279.342 241.472 281.269 241.909 282.574 242.371C285.454 243.39 286.471 244.837 284.882 246.832C284.487 247.327 283.839 247.745 282.91 248.074C263.534 254.912 225.614 255.132 183.893 252.254C120.046 247.849 47.1141 236.213 18.572 229.985C12.9606 228.761 9.76581 227.573 8.27304 226.451C5.98246 224.73 6.04962 223.038 7.72185 221.419C8.59439 220.574 10.1229 219.887 11.9914 219.328C15.4869 218.284 20.5538 217.531 24.2298 217.079C23.3754 216.972 22.4736 216.861 21.5935 216.757C20.2365 216.597 19.1334 216.479 18.8208 216.479C18.5796 216.479 18.2788 216.433 17.9277 216.348C17.77 216.31 17.5971 216.263 17.4117 216.207H17.4105L15.3827 216.223L15.3767 215.495C14.1923 215.041 12.7927 214.461 11.4295 213.874C9.12572 212.88 6.88431 211.843 5.96425 211.344C3.40293 209.957 3.24545 198.779 3.13621 191.023C3.12888 190.496 3.12154 189.985 3.11397 189.498C3.10309 188.784 3.09128 188.105 3.07662 187.458C3.06362 186.897 3.04706 186.363 3.0246 185.854C2.98629 184.982 2.99457 183.315 3.03666 181.116C3.07851 178.914 3.15204 176.24 3.24402 173.341H3.2445L3.25113 173L3.29109 170.969H3.32159C3.7614 157.855 4.48875 141.331 4.49112 141.282L4.49915 141.161C4.50388 141.114 6.17494 124.893 6.54358 122.273C7.00775 118.97 8.06898 116.482 9.91762 114.678C11.7627 112.878 14.2848 111.871 17.6692 111.528C18.6205 111.405 33.7321 109.417 43.7911 108.026C45.6255 107.773 47.3231 107.534 48.7645 107.326C49.9007 107.161 50.7671 107.028 51.2604 106.941C52.2164 106.771 53.0194 106.662 53.8174 106.551C55.6216 106.305 57.3962 106.061 64.0859 104.446C79.382 100.755 95.758 97.8183 112.182 95.4348C128.545 93.0607 145.04 91.2258 160.583 89.7361C164.68 89.3436 169.452 89.1402 174.583 89.0835C180.327 89.022 186.498 89.1402 192.672 89.3791C194.931 89.4666 197.111 89.5635 199.206 89.6699C201.559 89.7905 203.81 89.9182 205.95 90.053C208.586 90.2185 211.303 90.4644 214.001 90.7576C217.136 91.0981 220.215 91.5001 223.088 91.9139C232.509 93.2735 240.014 94.8129 240.038 94.8176L240.132 94.8413ZM258.084 105.283C247.888 101.098 240.068 99.0172 239.21 98.7925C238.846 98.7192 231.686 97.2626 222.516 95.9384C219.648 95.5246 216.612 95.1297 213.571 94.7987C210.941 94.5126 208.283 94.2738 205.697 94.1106C203.422 93.9687 201.178 93.8387 198.998 93.7276C196.777 93.614 194.611 93.5171 192.528 93.4367C186.38 93.2003 180.263 93.0797 174.614 93.1411C169.613 93.1979 164.964 93.3941 160.963 93.7772C145.56 95.2551 129.155 97.0805 112.754 99.4617C96.4104 101.833 80.1547 104.744 65.0407 108.393C58.1314 110.06 56.2603 110.318 54.3582 110.578C53.7117 110.665 53.0608 110.755 51.9605 110.951C51.5224 111.029 50.6049 111.169 49.3375 111.351C48.115 111.528 46.3865 111.772 44.348 112.053C34.581 113.401 18.1939 115.555 18.1466 115.562L18.0828 115.569C15.6449 115.813 13.9079 116.461 12.7497 117.591C11.5922 118.719 10.9048 120.44 10.5691 122.829C10.2156 125.345 8.64216 140.587 8.54521 141.528C8.49035 142.781 7.72138 160.364 7.31302 173.105L7.30143 173.466V173.469C7.20756 176.429 7.13378 179.089 7.09382 181.18C7.05409 183.275 7.04582 184.859 7.08199 185.679C7.10115 186.115 7.11817 186.691 7.13378 187.38C7.14749 187.978 7.1598 188.68 7.17138 189.451C7.17871 189.938 7.18604 190.449 7.19361 190.976C7.2889 197.751 7.42652 207.514 7.88974 207.765C8.69347 208.2 10.8039 209.172 13.0367 210.135C14.8859 210.932 16.7903 211.708 18.0539 212.142L18.4625 212.282C18.6323 212.336 18.774 212.376 18.8823 212.403C18.883 212.403 18.8827 212.403 18.8823 212.403L18.8813 212.406C19.3911 212.416 20.6193 212.544 22.0709 212.715C24.1487 212.961 27.369 213.387 28.7443 213.57L29.8242 213.715L29.9117 213.89L30.9589 214.031V215.806V218.612V220.464L29.1056 220.632C27.7767 220.753 18.4611 221.64 13.1531 223.226C12.5707 223.4 12.0564 223.573 11.635 223.741C13.0334 224.402 15.52 225.154 19.4313 226.008C47.8712 232.212 120.543 243.808 184.165 248.197C222.908 250.87 258.226 250.879 277.94 245.374C277.441 245.274 276.911 245.174 276.353 245.075C266.791 243.375 250.023 242.049 248.143 241.904L245.117 241.669L246.481 238.96C247.427 237.082 248.063 235.155 248.075 235.119L248.082 235.122L248.084 235.119L248.101 235.067L248.56 233.683L250.018 233.675C251.295 233.668 259.548 233.62 267.708 233.486C275.627 233.355 283.338 233.176 283.773 232.971C283.879 232.92 284.078 232.685 284.333 232.314C284.707 231.776 285.081 231.049 285.412 230.211C285.669 229.558 285.892 228.864 286.055 228.163C286.209 227.504 286.315 226.84 286.358 226.201C286.478 224.397 286.653 222.391 286.83 220.666C287.013 218.887 287.199 217.424 287.334 216.791C287.398 216.503 287.526 215.562 287.677 214.292C287.828 213.021 287.982 211.617 288.093 210.39C288.195 209.302 288.282 208.181 288.339 207.136C288.386 206.284 288.41 205.554 288.396 205.041L288.389 204.807C288.386 204.759 288.384 204.677 288.379 204.554C288.344 203.591 288.27 202.402 288.188 201.255C288.086 199.813 287.97 198.522 287.911 197.904L287.372 197.365L287.377 196.512C287.377 196.505 287.388 193.958 287.36 190.163C287.329 186.048 287.249 180.451 287.05 175.046C286.854 169.718 286.544 164.649 286.057 161.556C284.62 152.45 280.645 139.26 280.633 139.222L279.562 135.649L279.082 135.645L278.635 134.242C278.625 134.216 275.885 125.64 273.96 120.133C273.745 119.513 273.582 119.052 273.482 118.778C273.395 118.532 273.262 118.177 273.083 117.702C272.962 117.381 272.832 117.054 272.693 116.721C272.607 116.515 272.551 116.387 272.532 116.35L272.527 116.352C272.111 115.621 271.172 114.07 269.247 112.209C267.249 110.28 264.213 108.021 259.631 105.952C259.437 105.865 259.184 105.754 258.869 105.619C258.439 105.432 258.174 105.321 258.084 105.283ZM280.55 135.659L280.349 135.656L283.284 136.732C283.312 136.742 293.328 140.393 296.388 143.003C299.668 145.801 300.136 155.98 300.325 160.116C300.332 160.277 300.339 160.418 300.356 160.742C300.391 161.499 300.391 162.149 300.391 162.679C300.389 163.28 300.389 163.405 300.718 163.554C300.916 163.646 301.143 163.712 301.389 163.755C301.846 163.835 302.295 163.816 302.647 163.698C302.789 163.651 302.888 163.611 302.922 163.58C303.054 162.826 303.335 160.988 303.532 158.815C303.657 157.415 303.754 155.852 303.763 154.294C303.77 153.171 303.733 152.043 303.628 150.974C303.541 150.08 303.404 149.236 303.205 148.484C302.106 144.349 297.083 141.034 296.428 140.615C295.487 140.182 290.11 137.735 286.322 136.735C282.241 135.656 280.555 135.659 280.55 135.659ZM302.931 163.568C302.936 163.561 302.933 163.563 302.931 163.57V163.568ZM18.8231 212.406C18.8413 212.406 18.8607 212.406 18.8813 212.406L18.8823 212.403C18.8778 212.404 18.8416 212.405 18.8215 212.405L18.8231 212.406Z" fill="black"/>
<path fill-rule="evenodd" clip-rule="evenodd" d="M29.0859 218.597C29.0859 218.597 -9.0013 221.886 19.0021 227.996C66.0374 238.258 233.838 263.238 282.234 246.156C290.891 243.101 248.122 239.861 248.122 239.861L248.092 230.375L74.8398 215.607C74.8398 215.607 29.2488 218.515 29.0859 218.597Z" fill="black"/>
<path d="M29.0859 218.597C29.0859 218.597 -9.0013 221.886 19.0021 227.996C66.0374 238.258 233.838 263.238 282.234 246.156C290.891 243.101 248.122 239.861 248.122 239.861L248.092 230.375L74.8398 215.607C74.8398 215.607 29.2488 218.515 29.0859 218.597Z" stroke="black" stroke-width="0.0510752" stroke-miterlimit="22.9256"/>
<path fill-rule="evenodd" clip-rule="evenodd" d="M17.8837 113.547C12.0531 114.132 9.35606 116.86 8.55612 122.549C8.18937 125.158 6.5195 141.369 6.5195 141.369C6.5195 141.369 4.80871 180.227 5.05321 185.767C5.29747 191.307 4.97164 208.495 6.92692 209.554C8.88196 210.613 17.5988 214.442 18.8206 214.442C20.0426 214.442 29.0853 215.664 29.0853 215.664V221.53H32.181C32.181 221.53 32.7918 226.01 34.6655 227.232C36.5392 228.454 38.861 228.617 40.4902 228.617C42.1196 228.617 45.867 228.658 46.3964 228.658C46.9259 228.658 47.8627 227.558 47.8627 227.558C47.8627 227.558 49.5735 230.491 51.162 230.735C52.7506 230.979 61.671 231.102 62.7708 231.02C63.8705 230.939 64.4816 230.491 64.4816 230.491C64.4816 230.491 66.233 231.265 67.333 231.265C68.4326 231.265 72.4654 231.428 73.4833 231.02C74.5018 230.613 75.2757 221.367 75.2757 221.367L91.0799 222.833C91.0799 222.833 91.3242 226.417 93.5237 227.069C95.7233 227.721 102.811 228.78 104.033 228.21C105.255 227.639 105.988 227.232 105.988 227.232C105.988 227.232 107.21 228.78 107.78 228.78C108.351 228.78 120.895 230.328 122.77 230.246C124.643 230.165 126.192 226.499 126.192 226.499L152.179 229.513L152.342 236.519L156.986 236.682C156.986 236.682 158.939 243.932 162.117 245.073C165.295 246.213 170.67 246.132 173.604 246.132C176.536 246.132 178.085 244.666 179.142 242.71C180.201 240.755 182.973 233.179 182.973 233.179C182.973 233.179 202.523 235.867 205.455 235.867C208.39 235.867 224.601 236.601 224.601 236.601C224.601 236.601 226.148 242.059 230.302 243.851C234.457 245.643 243.092 244.991 245.455 243.444C247.817 241.896 249.855 235.704 249.855 235.704C249.855 235.704 283.092 235.541 284.641 234.808C286.187 234.075 288.143 230.002 288.386 226.336C288.632 222.67 289.079 218.353 289.325 217.212C289.568 216.071 290.505 208.006 290.424 204.993C290.342 201.978 289.935 197.621 289.895 197.294C289.855 196.968 289.405 196.521 289.405 196.521C289.405 196.521 289.528 170.532 288.062 161.246C286.594 151.958 282.583 138.641 282.583 138.641C282.583 138.641 292.297 142.183 295.066 144.545C297.837 146.907 298.164 157.498 298.327 160.839C298.488 164.178 297.918 164.504 299.873 165.401C301.829 166.297 304.598 165.807 304.924 163.935C305.25 162.059 306.553 153.18 305.17 147.966C303.784 142.753 297.431 138.844 297.431 138.844C297.431 138.844 291.157 135.909 286.84 134.77C282.522 133.63 280.566 133.63 280.566 133.63C280.566 133.63 275.272 117.052 274.293 115.34C273.317 113.63 269.772 107.887 258.857 103.406C247.94 98.9249 239.631 96.8062 239.631 96.8062C239.631 96.8062 221.383 93.0607 205.822 92.0817C190.263 91.1051 172.668 90.6157 160.774 91.7554C129.826 94.723 94.9732 99.0809 64.5631 106.421C55.1133 108.7 55.2762 108.293 51.6101 108.946C47.9443 109.596 17.8837 113.547 17.8837 113.547Z" fill="white"/>
<path fill-rule="evenodd" clip-rule="evenodd" d="M151.443 229.428L152.179 229.513L152.342 236.519L156.986 236.682C156.986 236.682 158.939 243.932 162.117 245.073C165.295 246.213 170.67 246.132 173.604 246.132C176.536 246.132 178.085 244.666 179.142 242.71C180.201 240.755 182.973 233.179 182.973 233.179L174.775 231.973C174.775 231.973 173.417 231.167 172.952 230.361C172.483 229.555 172.443 224.675 172.103 220.984C171.762 217.293 170.788 213.092 169.556 209.019C168.326 204.946 167.18 202.91 164.806 200.702C162.429 198.495 158.44 198.921 157.591 198.921C156.742 198.921 155.683 198.964 153.985 200.829C152.287 202.697 151.481 204.946 150.888 207.873C150.294 210.801 149.954 223.572 149.911 225.142C149.868 226.712 151.443 229.428 151.443 229.428V229.428Z" fill="black"/>
<path d="M151.545 229.276L152.197 229.351L152.337 229.368L152.342 229.51L152.5 236.362L156.99 236.52L157.109 236.524L157.142 236.64C157.146 236.66 159.076 243.809 162.171 244.92C165.132 245.983 170.045 245.975 173.051 245.97C173.467 245.97 173.311 245.969 173.604 245.969C175.035 245.969 176.125 245.613 176.983 245.021C177.846 244.426 178.482 243.59 179 242.633C179.955 240.868 182.318 234.488 182.75 233.311L174.751 232.134L174.72 232.129L174.692 232.112C174.687 232.11 173.299 231.286 172.809 230.442C172.49 229.891 172.365 227.672 172.223 225.166C172.145 223.782 172.062 222.309 171.942 220.998C171.781 219.254 171.476 217.393 171.069 215.483C170.622 213.373 170.045 211.203 169.4 209.066C168.79 207.039 168.199 205.523 167.468 204.241C166.74 202.962 165.869 201.915 164.694 200.822C162.618 198.895 159.256 199.023 157.967 199.072C157.804 199.079 157.669 199.084 157.591 199.084C157.182 199.084 156.723 199.094 156.17 199.325C155.605 199.562 154.936 200.025 154.106 200.94C153.271 201.858 152.654 202.872 152.174 204.017C151.689 205.171 151.341 206.452 151.046 207.904C150.462 210.79 150.124 223.323 150.074 225.095V225.146C150.036 226.525 151.299 228.842 151.545 229.276ZM152.02 229.658L151.426 229.59L151.28 229.573V229.47C151.088 229.131 149.707 226.644 149.75 225.138V225.088C149.797 223.312 150.138 210.753 150.729 207.843C151.027 206.365 151.382 205.062 151.873 203.891C152.368 202.714 153.001 201.669 153.864 200.72C154.732 199.768 155.442 199.278 156.045 199.025C156.657 198.77 157.151 198.758 157.591 198.758C157.693 198.758 157.811 198.753 157.955 198.748C159.279 198.696 162.741 198.566 164.914 200.583C166.115 201.697 167.004 202.771 167.752 204.081C168.496 205.386 169.095 206.925 169.712 208.972C170.36 211.113 170.937 213.292 171.388 215.415C171.797 217.334 172.102 219.208 172.263 220.969C172.386 222.297 172.469 223.767 172.547 225.148C172.687 227.613 172.812 229.795 173.091 230.279C173.5 230.983 174.64 231.699 174.831 231.817L182.996 233.018L183.192 233.047L183.124 233.235C183.117 233.257 180.35 240.821 179.286 242.788C178.745 243.786 178.078 244.661 177.167 245.288C176.255 245.917 175.106 246.295 173.604 246.295L173.051 246.295C170.024 246.3 165.075 246.307 162.062 245.226C159.04 244.141 157.128 237.775 156.86 236.84L152.337 236.681L152.183 236.676L152.178 236.522L152.02 229.658Z" fill="black"/>
<path fill-rule="evenodd" clip-rule="evenodd" d="M90.5713 222.786L91.0806 222.833L126.192 226.499C126.192 226.499 124.644 230.165 122.771 230.246C120.896 230.328 108.352 228.78 107.781 228.78C107.21 228.78 105.988 227.232 105.988 227.232C105.988 227.232 105.255 227.64 104.033 228.21C102.811 228.78 95.724 227.721 93.5244 227.069C91.3249 226.418 91.0806 222.833 91.0806 222.833L90.5713 222.786V222.786Z" fill="black"/>
<path d="M90.9308 222.982L90.5565 222.948L90.4082 222.934V222.608L90.5858 222.624L91.0951 222.672H91.097L91.1122 222.673L91.2325 222.685V222.686L126.209 226.338L126.426 226.361L126.341 226.563C126.337 226.574 124.755 230.323 122.778 230.409C121.487 230.465 115.256 229.764 111.229 229.311C109.352 229.1 107.956 228.943 107.781 228.943C107.232 228.943 106.244 227.798 105.947 227.44C105.691 227.577 105.041 227.919 104.102 228.357C103.537 228.621 101.845 228.561 99.9375 228.354C97.5143 228.091 94.7222 227.594 93.4786 227.225C91.4326 226.619 91.0027 223.657 90.9308 222.982ZM125.951 226.638L91.2618 223.016C91.3477 223.756 91.7761 226.382 93.5702 226.914C94.7986 227.278 97.5656 227.77 99.972 228.031C101.829 228.233 103.459 228.299 103.964 228.063C105.179 227.496 105.906 227.092 105.908 227.091L106.029 227.022L106.116 227.131C106.119 227.135 107.29 228.617 107.781 228.617C107.969 228.617 109.375 228.775 111.265 228.988C115.282 229.44 121.501 230.139 122.764 230.084C124.279 230.018 125.601 227.394 125.951 226.638Z" fill="black"/>
<path fill-rule="evenodd" clip-rule="evenodd" d="M28.6779 215.609L29.0861 215.664V221.53H32.1818C32.1818 221.53 32.7926 226.01 34.6663 227.232C36.54 228.454 38.8618 228.617 40.491 228.617C42.1204 228.617 45.8678 228.658 46.3972 228.658C46.9267 228.658 47.8635 227.558 47.8635 227.558C47.8635 227.558 49.5743 230.491 51.1628 230.735C52.7514 230.98 61.6718 231.102 62.7716 231.02C63.8713 230.939 64.4823 230.491 64.4823 230.491C64.4823 230.491 66.2338 231.265 67.3338 231.265C68.4333 231.265 72.4662 231.428 73.4841 231.02C74.5026 230.613 75.2765 221.367 75.2765 221.367L59.2405 218.693C59.2405 218.693 58.604 217.208 58.3072 216.233C58.01 215.257 58.2221 208.638 57.119 202.953C56.0159 197.266 53.8518 194.296 53.2153 193.322C52.579 192.345 50.8817 192.26 49.5239 192.132C43.7449 191.591 43.3566 202.298 43.4564 206.178L40.8258 206.008C40.8258 206.008 40.3593 201.383 39.5955 198.03C38.8317 194.679 37.5163 192.811 36.6677 192.175C35.8192 191.539 32.2976 191.241 30.855 191.962C27.7962 193.492 27.8387 208.271 27.5879 210.929C27.3755 213.178 28.6779 215.609 28.6779 215.609Z" fill="black"/>
<path d="M28.7824 215.46L29.1069 215.503L29.2483 215.522V221.367H32.1811H32.322L32.3421 221.507C32.3437 221.52 32.9434 225.915 34.754 227.096C35.6707 227.694 36.6998 228.033 37.6996 228.223C38.7038 228.414 39.6825 228.454 40.4902 228.454C41.4517 228.454 43.3937 228.471 44.8037 228.483C45.5457 228.49 46.127 228.495 46.3965 228.495C46.8515 228.495 47.7363 227.456 47.7387 227.453L47.8867 227.279L48.0028 227.476C48.0078 227.484 49.675 230.342 51.1865 230.574C51.8613 230.678 53.8736 230.76 56.0415 230.813C58.9478 230.884 62.1319 230.905 62.7595 230.858C63.8132 230.78 64.3847 230.361 64.3861 230.36L64.4618 230.305L64.5466 230.342C64.5514 230.344 66.2664 231.102 67.3331 231.102C67.4913 231.102 67.7947 231.107 68.1595 231.114C69.7535 231.142 72.6149 231.193 73.4231 230.87C74.2786 230.527 74.9972 222.682 75.1008 221.502L59.2131 218.854L59.1253 218.839L59.0904 218.757C59.0885 218.753 58.4514 217.267 58.1511 216.28C58.0405 215.916 57.9986 214.866 57.9402 213.401C57.8338 210.728 57.6716 206.658 56.9584 202.983C55.9336 197.701 53.9885 194.778 53.2226 193.627C53.1741 193.553 53.1306 193.49 53.0784 193.409C52.5291 192.567 51.0593 192.435 49.7944 192.319C49.6894 192.31 49.5889 192.303 49.5086 192.293C49.335 192.279 49.1666 192.272 49.0035 192.277C47.2262 192.322 46.0236 193.565 45.2145 195.32C44.389 197.107 43.9714 199.42 43.7716 201.553C43.6011 203.371 43.5893 205.057 43.6181 206.173L43.6226 206.351L43.4455 206.339L40.8149 206.169L40.6773 206.161L40.6636 206.022C40.6621 206.01 40.1977 201.409 39.4363 198.065C39.1055 196.616 38.6714 195.445 38.2174 194.537C37.6381 193.378 37.0308 192.65 36.5697 192.305C36.1451 191.986 34.9807 191.756 33.7656 191.711C32.6861 191.674 31.5783 191.782 30.9266 192.109C28.4999 193.322 28.0825 203.454 27.8749 208.497C27.8295 209.602 27.7938 210.465 27.7486 210.944C27.5623 212.921 28.5725 215.044 28.7824 215.46ZM28.9224 215.806L28.6555 215.77L28.5734 215.759L28.5339 215.686C28.5301 215.679 27.2086 213.211 27.4254 210.914C27.4699 210.444 27.5051 209.585 27.5505 208.485C27.7607 203.378 28.1833 193.118 30.7817 191.818C31.4856 191.466 32.6511 191.347 33.7769 191.387C35.0507 191.435 36.2893 191.688 36.7643 192.045C37.2588 192.416 37.9031 193.185 38.5075 194.393C38.9724 195.322 39.4165 196.516 39.7532 197.994C40.4425 201.018 40.8889 205.064 40.9724 205.854L43.2894 206.003C43.266 204.88 43.2852 203.262 43.4483 201.522C43.6512 199.361 44.0766 197.008 44.9191 195.183C45.7779 193.322 47.0692 192.002 48.9957 191.953C49.1711 191.948 49.352 191.953 49.5379 191.972C49.6448 191.981 49.7348 191.988 49.8226 191.998C51.1605 192.118 52.7152 192.258 53.351 193.232C53.382 193.279 53.4347 193.36 53.4938 193.447C54.2699 194.613 56.2406 197.576 57.2779 202.922C57.9951 206.618 58.158 210.704 58.2649 213.388C58.3221 214.83 58.3635 215.862 58.4616 216.185C58.7144 217.016 59.218 218.224 59.3545 218.548L75.3025 221.206L75.4507 221.231L75.438 221.38C75.4358 221.407 74.6567 230.726 73.5439 231.171C72.6754 231.519 69.7719 231.467 68.1545 231.438C67.8311 231.432 67.5627 231.428 67.3331 231.428C66.3416 231.428 64.8564 230.826 64.4972 230.674C64.2913 230.8 63.6952 231.115 62.7824 231.183C62.1511 231.229 58.9523 231.209 56.0339 231.137C53.8499 231.084 51.8214 231.001 51.138 230.896C49.7237 230.679 48.2527 228.49 47.838 227.828C47.5396 228.148 46.8576 228.821 46.3965 228.821C46.2816 228.821 45.6297 228.815 44.8011 228.808C43.4564 228.796 41.6042 228.78 40.4902 228.78C39.669 228.78 38.6721 228.739 37.6397 228.543C36.6028 228.346 35.5338 227.992 34.5771 227.368C32.8403 226.236 32.1636 222.467 32.0411 221.693H29.0853H28.9224V221.53V215.806Z" fill="black"/>
<path fill-rule="evenodd" clip-rule="evenodd" d="M260.465 104.098C259.947 103.864 259.413 103.632 258.857 103.405C247.94 98.9245 239.631 96.8059 239.631 96.8059C239.631 96.8059 221.383 93.0603 205.822 92.0814C190.263 91.1048 172.668 90.6154 160.774 91.7551C129.826 94.7226 94.9731 99.0806 64.563 106.42C55.1132 108.7 55.2761 108.293 51.61 108.946C50.6285 109.121 47.7527 109.532 44.0693 110.04C44.0693 110.04 156.444 99.336 167.307 99.5062C178.168 99.6741 190.26 105.233 197.898 106.42C205.535 107.61 263.071 110.069 266.041 110.069C268.992 110.069 260.569 104.172 260.465 104.098Z" fill="black"/>
<path d="M260.388 104.243C260.137 104.129 259.879 104.016 259.612 103.9C259.331 103.779 259.056 103.664 258.796 103.557C248.059 99.1496 239.877 97.038 239.598 96.9671C239.534 96.9529 221.358 93.2215 205.813 92.245C197.374 91.7153 188.341 91.3275 179.947 91.2684C172.86 91.2164 166.227 91.3961 160.789 91.9187C145.322 93.4013 128.874 95.2315 112.49 97.6102C96.1107 99.9867 79.7998 102.909 64.6021 106.579C57.7937 108.22 55.9671 108.471 54.1099 108.726C53.3937 108.823 52.6729 108.922 51.6389 109.107C51.4471 109.14 51.1816 109.183 50.8505 109.235C75.3134 106.927 158.046 99.1992 167.31 99.3435C174.116 99.4499 181.389 101.661 187.757 103.595C191.576 104.756 195.066 105.818 197.925 106.26C200.734 106.697 210.334 107.31 221.483 107.906C240.558 108.927 264.166 109.908 266.041 109.908C267.162 109.908 265.874 108.575 264.294 107.236C262.61 105.808 260.577 104.375 260.388 104.243ZM259.74 103.6C260.002 103.713 260.267 103.831 260.532 103.952L260.544 103.957L260.558 103.966C260.61 104.002 262.752 105.501 264.504 106.988C266.424 108.615 267.872 110.232 266.041 110.232C264.169 110.232 240.556 109.253 221.466 108.23C210.31 107.634 200.698 107.021 197.875 106.581C194.995 106.135 191.493 105.071 187.662 103.905C181.313 101.978 174.064 99.7738 167.306 99.6674C156.466 99.4995 44.7054 110.143 44.0932 110.202H44.0923H44.0852L44.0479 109.878C45.8806 109.627 47.5193 109.395 48.8307 109.206C50.1272 109.019 51.0896 108.873 51.5829 108.785C52.6051 108.603 53.3383 108.504 54.0666 108.405C55.9157 108.152 57.7346 107.901 64.5255 106.262C79.7378 102.59 96.0585 99.6651 112.445 97.2863C128.827 94.9099 145.279 93.0797 160.758 91.5947C166.208 91.0721 172.85 90.8924 179.949 90.9421C188.357 91.0036 197.397 91.389 205.834 91.921C221.403 92.8976 239.61 96.6384 239.664 96.6478L239.671 96.6502C239.695 96.6573 247.992 98.7712 258.919 103.257C259.212 103.375 259.484 103.491 259.74 103.6Z" fill="black"/>
<path fill-rule="evenodd" clip-rule="evenodd" d="M282.584 138.641C282.584 138.641 292.298 142.183 295.067 144.545C297.838 146.907 298.165 157.498 298.328 160.839C298.489 164.178 297.919 164.504 299.874 165.401C301.83 166.297 304.599 165.807 304.925 163.935C305.251 162.059 306.554 153.18 305.171 147.967C303.785 142.753 297.432 138.844 297.432 138.844C297.432 138.844 291.158 135.909 286.841 134.77C282.523 133.63 280.567 133.63 280.567 133.63L282.584 138.641Z" fill="white"/>
<path fill-rule="evenodd" clip-rule="evenodd" d="M289.405 196.521C289.405 196.521 289.528 170.532 288.062 161.246C286.594 151.958 282.583 138.641 282.583 138.641L280.566 133.63C280.566 133.63 276.729 121.613 274.984 116.986C274.977 116.988 270.226 117.686 259.881 117.856C249.529 118.026 207.013 114.293 201.159 113.529C195.304 112.763 189.449 109.37 180.454 107.587C171.459 105.806 159.239 106.059 159.239 106.059C159.239 106.059 166.707 135.42 167.3 137.459C167.894 139.494 173.325 172.76 175.361 178.106C177.399 183.452 200.225 193.379 200.225 193.379C200.225 193.379 228.739 201.527 237.138 202.799C245.54 204.071 265.312 203.055 269.725 203.055C274.137 203.055 289.405 196.521 289.405 196.521Z" fill="black"/>
<path fill-rule="evenodd" clip-rule="evenodd" d="M189.802 110.181C187.044 109.24 183.992 108.289 180.454 107.587C171.459 105.806 159.239 106.059 159.239 106.059C159.239 106.059 166.707 135.42 167.3 137.459C167.894 139.495 173.325 172.76 175.361 178.106C177.399 183.452 200.225 193.379 200.225 193.379C200.225 193.379 198.335 128.956 189.802 110.181Z" fill="black"/>
<path fill-rule="evenodd" clip-rule="evenodd" d="M160.521 106.047C159.705 106.05 159.239 106.059 159.239 106.059C159.239 106.059 166.707 135.42 167.3 137.459C167.894 139.495 173.325 172.76 175.361 178.106C177.399 183.452 200.225 193.379 200.225 193.379L200.177 191.955V191.913C200.173 191.91 182.504 180.66 178.764 177.744C176.288 175.815 163.784 111.652 160.521 106.047Z" fill="black"/>
<path fill-rule="evenodd" clip-rule="evenodd" d="M289.389 190.156C289.325 181.847 289.068 167.617 288.063 161.246C286.594 151.958 282.584 138.641 282.584 138.641L280.567 133.63C280.567 133.63 277.781 124.907 275.878 119.464C275.876 119.464 268.153 120.573 258.735 120.318C249.316 120.062 212.911 117.305 209.05 116.922C205.191 116.541 196.789 114.548 196.236 116.033C195.685 117.518 196.194 119.086 197.721 125.874C199.249 132.663 203.067 159.225 203.067 159.225C203.067 159.225 203.916 183.154 205.359 186.465C206.801 189.775 225.429 194.145 230.861 195.249C236.29 196.351 256.531 197.538 265.779 197.03C275.029 196.521 289.389 190.156 289.389 190.156Z" fill="black"/>
<path fill-rule="evenodd" clip-rule="evenodd" d="M287.68 189.042C287.644 185.122 287.576 181.199 287.455 177.278C287.363 174.315 287.245 171.348 287.055 168.387C286.909 166.113 286.736 163.765 286.382 161.511C286.006 159.125 285.511 156.746 284.979 154.391C283.83 149.319 282.475 144.188 280.976 139.206L278.99 134.264C278.973 134.224 278.959 134.188 278.947 134.148C277.578 129.87 276.19 125.579 274.726 121.332C273.468 121.479 272.189 121.587 270.945 121.687C266.876 122.006 262.771 122.129 258.69 122.018C255.384 121.928 252.052 121.715 248.751 121.512C244.065 121.226 239.378 120.906 234.694 120.578C229.18 120.19 223.668 119.786 218.158 119.365C215.075 119.128 211.958 118.92 208.884 118.615C207.052 118.435 205.188 118.083 203.37 117.792C202.436 117.643 199.128 117.104 197.726 117.187C197.7 117.688 197.801 118.249 197.875 118.672C198.028 119.554 198.229 120.436 198.428 121.308C198.743 122.706 199.067 124.103 199.381 125.503C199.875 127.693 200.251 129.953 200.627 132.167C201.152 135.259 201.646 138.355 202.129 141.455C203.037 147.29 203.912 153.136 204.751 158.983C204.76 159.047 204.765 159.102 204.768 159.165C204.933 163.762 205.162 168.373 205.463 172.965C205.642 175.72 205.843 178.489 206.149 181.234C206.26 182.246 206.385 183.265 206.56 184.268C206.631 184.684 206.744 185.37 206.91 185.765C207.347 186.443 210.003 187.588 210.738 187.886C213.353 188.945 216.137 189.794 218.851 190.562C222.897 191.707 227.075 192.743 231.199 193.582C232.19 193.783 233.223 193.913 234.228 194.034C235.715 194.211 237.21 194.353 238.702 194.481C242.452 194.8 246.219 195.027 249.979 195.192C252.854 195.32 255.732 195.41 258.609 195.441C260.962 195.464 263.339 195.462 265.687 195.332C268.538 195.173 271.541 194.495 274.294 193.743C277.651 192.825 280.974 191.681 284.223 190.43C285.374 189.985 286.535 189.527 287.68 189.042Z" fill="black"/>
<path fill-rule="evenodd" clip-rule="evenodd" d="M224.602 236.601C224.602 236.601 226.148 242.059 230.303 243.851C234.457 245.643 243.093 244.992 245.455 243.444C247.817 241.896 249.855 235.705 249.855 235.705L224.602 236.601Z" fill="black"/>
<path d="M224.819 236.755C225.141 237.744 226.749 242.14 230.367 243.701C232.296 244.533 235.207 244.832 238 244.757C241.152 244.672 244.136 244.113 245.368 243.307C247.423 241.961 249.239 236.986 249.626 235.875L224.819 236.755ZM230.239 244C226.014 242.178 224.451 236.661 224.446 236.646L224.387 236.446L224.595 236.438L249.849 235.542L250.083 235.534L250.009 235.755C250.002 235.773 247.955 242.001 245.545 243.58C244.268 244.416 241.213 244.995 238.007 245.082C235.174 245.158 232.211 244.851 230.239 244Z" fill="black"/>
<path fill-rule="evenodd" clip-rule="evenodd" d="M290.115 210.573C290.314 208.413 290.458 206.258 290.425 204.993C290.42 204.825 290.413 204.655 290.408 204.483C290.406 204.485 287.363 206.474 284.225 207.661C281.501 208.692 276.285 210.84 274.954 211.391L283.301 214.915L282.463 215.355C285.561 213.73 288.503 212.143 288.808 211.904C289.399 211.438 290.113 210.577 290.115 210.573ZM274.388 211.589C273.362 211.862 269.359 212.886 266.786 212.922C263.816 212.965 243.788 212.922 243.788 212.922C243.788 212.922 237.425 212.583 233.944 211.946C233.393 211.845 232.445 211.596 231.239 211.248L231.258 211.254C231.258 211.254 229.856 212.672 225.396 214.046C221.005 215.398 220.568 215.262 220.554 215.257L220.934 215.42C220.934 215.42 232.135 219.534 236.047 220.022C239.958 220.511 269.08 220.308 269.08 220.308C269.08 220.308 273.071 219.941 275.313 218.964C276.403 218.488 279.482 216.917 282.426 215.374L274.388 211.589ZM229.97 210.874C223.202 208.846 211.204 204.776 211.204 204.776L199.365 200.659C199.365 200.659 195.546 198.2 194.444 197.583C193.34 196.968 193.482 197.824 193.482 197.824C193.482 197.824 196.293 203.731 199.388 205.644C202.221 207.396 217.912 214.127 220.554 215.257L219.674 214.88C225.869 213.862 229.944 210.866 229.944 210.866L229.97 210.874Z" fill="black"/>
<path fill-rule="evenodd" clip-rule="evenodd" d="M219.674 214.88C225.869 213.862 229.944 210.866 229.944 210.866C223.169 208.835 211.204 204.776 211.204 204.776L199.365 200.659C199.365 200.659 195.546 198.2 194.444 197.583C193.34 196.968 193.482 197.824 193.482 197.824C193.482 197.824 196.293 203.731 199.388 205.644C201.992 207.254 215.46 213.072 219.674 214.88Z" fill="black"/>
<path fill-rule="evenodd" clip-rule="evenodd" d="M274.951 211.391L283.301 214.915C286.074 213.454 288.531 212.121 288.808 211.904C289.399 211.438 290.113 210.576 290.115 210.573C290.314 208.413 290.458 206.258 290.425 204.993L290.408 204.482C290.406 204.485 287.363 206.473 284.225 207.66C281.501 208.692 276.287 210.84 274.951 211.391Z" fill="black"/>
<path fill-rule="evenodd" clip-rule="evenodd" d="M278.445 231.334C278.445 231.334 280.311 225.648 282.009 224.46C283.707 223.272 287.696 220.896 287.696 220.896C287.696 220.896 286.379 226.794 285.064 227.897C283.749 229 278.445 231.334 278.445 231.334Z" fill="black"/>
<path fill-rule="evenodd" clip-rule="evenodd" d="M230.86 226.518C230.86 226.518 231.624 230.379 233.703 230.93C235.781 231.482 263.106 231.312 266.968 231.27C270.829 231.227 270.872 230.591 271.337 229.87C271.806 229.148 272.908 227.069 272.908 227.069C272.908 227.069 270.321 229.827 268.495 229.954C265.797 230.143 236.602 230.894 233.958 229.784C232.641 229.233 230.86 226.518 230.86 226.518Z" fill="black"/>
<path fill-rule="evenodd" clip-rule="evenodd" d="M207.023 140.173C210.079 147.47 209.823 152.731 209.315 156.635C208.804 160.539 209.653 161.473 208.04 161.896C206.43 162.32 202.015 162.152 201.166 160.539C200.32 158.926 199.724 143.736 197.433 140.343C195.141 136.948 183.983 132.791 182.16 132.069C180.334 131.348 180.739 129.161 180.654 128.951C180.568 128.738 202.673 129.781 207.023 140.173Z" fill="white"/>
<path fill-rule="evenodd" clip-rule="evenodd" d="M210.601 220.175C210.601 220.175 210.303 225.733 212.594 227.176C214.885 228.618 222.014 231.376 222.014 231.376C222.014 231.376 221.546 225.606 220.232 224.63C218.917 223.654 210.601 220.175 210.601 220.175Z" fill="black"/>
<path fill-rule="evenodd" clip-rule="evenodd" d="M179.783 172.953L194.685 182.717L192.2 147.707L192.197 147.704C192.193 147.622 191.97 144.978 189.79 144.576L184.259 143.552C184.259 143.552 181.214 142.819 181.14 145.534C181.067 148.251 179.783 172.953 179.783 172.953Z" fill="white"/>
<path fill-rule="evenodd" clip-rule="evenodd" d="M8.7547 141.511C9.74783 147.673 13.8767 151.393 20.2218 151.568C23.3104 151.653 136.456 149.064 136.456 149.064C136.456 149.064 145.681 149.064 150.337 151.27C154.99 153.476 161.211 157.212 163.41 158.144C165.612 159.078 166.118 157.806 165.95 156.957C165.78 156.108 155.922 106.889 155.922 106.889L12.6478 120.043C12.6478 120.043 9.85519 120.426 9.79158 121.973C9.54377 128.005 7.85545 135.933 8.7547 141.511Z" fill="black"/>
<path d="M9.0752 141.461C9.5616 144.479 10.8151 146.893 12.7221 148.565C14.6117 150.222 17.151 151.159 20.2304 151.244C23.3122 151.326 136.125 148.747 136.449 148.74H136.456C136.482 148.74 145.756 148.74 150.474 150.976C152.954 152.152 155.87 153.755 158.39 155.141C160.611 156.363 162.526 157.418 163.536 157.846C164.195 158.125 164.675 158.189 165.011 158.122C165.165 158.092 165.285 158.032 165.375 157.957C165.465 157.883 165.529 157.787 165.574 157.68C165.661 157.474 165.673 157.233 165.631 157.02C165.467 156.207 156.456 111.218 155.659 107.239L12.6933 120.365H12.6935C12.6862 120.367 10.1684 120.712 10.1161 121.987C10.0296 124.089 9.77134 126.404 9.50746 128.771C9.01113 133.221 8.49422 137.855 9.0752 141.461ZM12.2944 149.052C10.2719 147.278 8.94515 144.734 8.43369 141.563C7.83829 137.867 8.35991 133.19 8.86097 128.7C9.12415 126.337 9.3819 124.03 9.46702 121.961C9.54174 120.14 12.5932 119.721 12.602 119.721L12.6183 119.719L155.891 106.567L156.184 106.539L156.241 106.825C156.269 106.967 166.099 156.044 166.269 156.893C166.333 157.219 166.314 157.6 166.172 157.933C166.089 158.129 165.966 158.309 165.791 158.453C165.619 158.6 165.404 158.709 165.139 158.761C164.685 158.851 164.079 158.78 163.285 158.444C162.23 157.995 160.308 156.938 158.076 155.713C155.562 154.329 152.656 152.731 150.197 151.565C145.664 149.416 136.714 149.39 136.463 149.39C136.139 149.397 23.3086 151.977 20.2127 151.892C16.9765 151.802 14.2979 150.811 12.2944 149.052Z" fill="black"/>
<path fill-rule="evenodd" clip-rule="evenodd" d="M164.181 214.647C161.062 214.632 158.643 219.778 158.778 226.14C158.915 232.502 161.554 237.671 164.67 237.686C167.789 237.7 170.208 232.554 170.073 226.192C169.936 219.83 167.3 214.661 164.181 214.647Z" fill="white"/>
<path fill-rule="evenodd" clip-rule="evenodd" d="M163.557 218.014C161.597 218.019 160.062 221.648 160.133 226.12C160.204 230.592 161.85 234.214 163.813 234.209C165.773 234.204 167.305 230.575 167.236 226.102C167.166 221.63 165.517 218.009 163.557 218.014Z" fill="white"/>
<path fill-rule="evenodd" clip-rule="evenodd" d="M163.249 221.799C162.211 221.802 161.4 223.724 161.436 226.093C161.474 228.461 162.346 230.379 163.384 230.376C164.425 230.374 165.236 228.452 165.198 226.083C165.16 223.714 164.29 221.796 163.249 221.799Z" fill="black"/>
<path fill-rule="evenodd" clip-rule="evenodd" d="M163.264 224.143C162.675 224.136 162.221 224.983 162.251 226.036C162.282 227.088 162.784 227.947 163.375 227.955C163.963 227.962 164.417 227.114 164.387 226.062C164.356 225.009 163.852 224.15 163.264 224.143Z" fill="white"/>
<path fill-rule="evenodd" clip-rule="evenodd" d="M165.558 217.16L164.666 218.101C164.666 218.101 163.957 217.824 163.737 217.81C163.517 217.795 162.784 217.767 162.784 217.767L164.011 216.713C164.011 216.713 164.399 216.68 164.799 216.783C165.201 216.886 165.558 217.16 165.558 217.16Z" fill="black"/>
<path fill-rule="evenodd" clip-rule="evenodd" d="M167.478 220.342L166.655 220.807C166.655 220.807 167.242 223.133 167.367 223.795C167.495 224.456 167.485 224.744 167.485 224.744L168.566 224.257C168.566 224.257 168.332 222.397 168.079 221.65C167.828 220.903 167.478 220.342 167.478 220.342Z" fill="black"/>
<path fill-rule="evenodd" clip-rule="evenodd" d="M168.364 230.011L167.218 229.667C167.218 229.667 166.868 231.412 166.648 231.956C166.428 232.499 166.191 233.002 166.191 233.002L167.447 233.392C167.447 233.392 167.972 231.946 168.14 231.246C168.31 230.545 168.364 230.011 168.364 230.011Z" fill="black"/>
<path fill-rule="evenodd" clip-rule="evenodd" d="M164.345 234.496L164.903 235.456C164.903 235.456 163.969 235.375 163.425 235.167C162.879 234.958 162.385 234.33 162.385 234.33L162.669 234.08C162.669 234.08 163.302 234.409 163.593 234.448C163.886 234.486 164.345 234.496 164.345 234.496Z" fill="black"/>
<path fill-rule="evenodd" clip-rule="evenodd" d="M165.082 221.146C164.85 221.131 164.654 221.308 164.647 221.541C164.64 221.774 164.822 221.975 165.056 221.99C165.288 222.005 165.484 221.829 165.491 221.596C165.498 221.363 165.316 221.162 165.082 221.146Z" fill="black"/>
<path fill-rule="evenodd" clip-rule="evenodd" d="M166.087 226.479C165.957 226.47 165.843 226.644 165.836 226.866C165.829 227.088 165.931 227.276 166.063 227.284C166.193 227.293 166.307 227.12 166.314 226.897C166.321 226.675 166.219 226.487 166.087 226.479Z" fill="black"/>
<path fill-rule="evenodd" clip-rule="evenodd" d="M164.654 231.114C164.503 231.104 164.375 231.242 164.37 231.422C164.363 231.602 164.482 231.757 164.633 231.767C164.787 231.777 164.914 231.638 164.919 231.458C164.926 231.278 164.806 231.124 164.654 231.114Z" fill="black"/>
<path fill-rule="evenodd" clip-rule="evenodd" d="M162.013 230.481C161.85 230.47 161.713 230.616 161.708 230.807C161.701 230.998 161.829 231.161 161.99 231.171C162.153 231.182 162.288 231.036 162.295 230.845C162.299 230.654 162.174 230.491 162.013 230.481Z" fill="black"/>
<path fill-rule="evenodd" clip-rule="evenodd" d="M160.628 224.969C160.474 224.959 160.346 225.132 160.339 225.354C160.332 225.576 160.45 225.765 160.602 225.774C160.753 225.784 160.881 225.612 160.888 225.39C160.895 225.167 160.779 224.979 160.628 224.969Z" fill="black"/>
<path fill-rule="evenodd" clip-rule="evenodd" d="M162.167 220.417C161.975 220.405 161.812 220.601 161.805 220.855C161.796 221.109 161.945 221.326 162.139 221.338C162.33 221.351 162.493 221.155 162.5 220.901C162.51 220.646 162.361 220.43 162.167 220.417Z" fill="black"/>
<path fill-rule="evenodd" clip-rule="evenodd" d="M36.9515 203.503C34.8622 203.492 33.2419 207.573 33.3327 212.618C33.4238 217.663 35.1913 221.763 37.2807 221.774C39.37 221.785 40.9902 217.705 40.8994 212.66C40.8084 207.615 39.0411 203.515 36.9515 203.503Z" fill="white"/>
<path fill-rule="evenodd" clip-rule="evenodd" d="M36.533 206.176C35.219 206.178 34.192 209.057 34.2388 212.603C34.2861 216.15 35.3895 219.022 36.7035 219.018C38.0175 219.014 39.0446 216.136 38.9976 212.589C38.9505 209.043 37.847 206.171 36.533 206.176Z" fill="white"/>
<path fill-rule="evenodd" clip-rule="evenodd" d="M36.3281 209.176C35.6322 209.178 35.0881 210.702 35.1131 212.581C35.138 214.459 35.7225 215.98 36.4184 215.978C37.1143 215.976 37.6584 214.452 37.6336 212.573C37.6085 210.695 37.0242 209.174 36.3281 209.176Z" fill="black"/>
<path fill-rule="evenodd" clip-rule="evenodd" d="M36.3366 211.035C35.9415 211.029 35.6379 211.701 35.6582 212.536C35.6785 213.371 36.0152 214.052 36.4104 214.058C36.8053 214.063 37.1089 213.391 37.0885 212.557C37.0682 211.722 36.7315 211.041 36.3366 211.035Z" fill="white"/>
<path fill-rule="evenodd" clip-rule="evenodd" d="M37.8735 205.497L37.275 206.244C37.275 206.244 36.8011 206.024 36.6538 206.012C36.5063 206.001 36.0146 205.979 36.0146 205.979L36.8371 205.142C36.8371 205.142 37.0962 205.116 37.3646 205.199C37.6332 205.282 37.8735 205.497 37.8735 205.497Z" fill="black"/>
<path fill-rule="evenodd" clip-rule="evenodd" d="M39.1596 208.02L38.6084 208.389C38.6084 208.389 39.0016 210.234 39.0861 210.759C39.1702 211.284 39.1641 211.512 39.1641 211.512L39.8881 211.126C39.8881 211.126 39.7311 209.65 39.5623 209.058C39.3937 208.466 39.1596 208.02 39.1596 208.02Z" fill="black"/>
<path fill-rule="evenodd" clip-rule="evenodd" d="M39.7533 215.688L38.9853 215.415C38.9853 215.415 38.7512 216.8 38.6041 217.23C38.4572 217.661 38.2988 218.06 38.2988 218.06L39.1397 218.369C39.1397 218.369 39.4903 217.223 39.6038 216.667C39.7171 216.112 39.7533 215.688 39.7533 215.688Z" fill="black"/>
<path fill-rule="evenodd" clip-rule="evenodd" d="M37.0611 219.245L37.4345 220.006C37.4345 220.006 36.8086 219.942 36.444 219.777C36.0793 219.612 35.748 219.113 35.748 219.113L35.9382 218.915C35.9382 218.915 36.3617 219.176 36.5577 219.206C36.7537 219.237 37.0611 219.245 37.0611 219.245Z" fill="black"/>
<path fill-rule="evenodd" clip-rule="evenodd" d="M37.5551 208.659C37.3993 208.647 37.2688 208.787 37.2638 208.972C37.2589 209.156 37.3811 209.316 37.5372 209.328C37.6932 209.34 37.8235 209.2 37.8285 209.015C37.8334 208.83 37.7112 208.671 37.5551 208.659Z" fill="black"/>
<path fill-rule="evenodd" clip-rule="evenodd" d="M38.2289 212.888C38.1407 212.881 38.0655 213.018 38.0608 213.195C38.0558 213.371 38.1237 213.52 38.2117 213.527C38.2999 213.533 38.3753 213.396 38.38 213.219C38.3848 213.043 38.3171 212.895 38.2289 212.888Z" fill="black"/>
<path fill-rule="evenodd" clip-rule="evenodd" d="M37.2686 216.563C37.1669 216.555 37.0813 216.665 37.0773 216.808C37.0735 216.95 37.1529 217.072 37.2546 217.08C37.3563 217.088 37.4419 216.979 37.4457 216.836C37.4497 216.693 37.3703 216.571 37.2686 216.563Z" fill="black"/>
<path fill-rule="evenodd" clip-rule="evenodd" d="M35.4979 216.061C35.3894 216.052 35.2981 216.168 35.2941 216.319C35.2898 216.47 35.3745 216.6 35.483 216.608C35.5916 216.616 35.6828 216.501 35.6869 216.35C35.6909 216.198 35.6062 216.069 35.4979 216.061Z" fill="black"/>
<path fill-rule="evenodd" clip-rule="evenodd" d="M34.5699 211.69C34.4682 211.682 34.3819 211.819 34.3772 211.995C34.3722 212.172 34.4509 212.321 34.5526 212.329C34.6543 212.337 34.7408 212.2 34.7453 212.024C34.7503 211.847 34.6716 211.698 34.5699 211.69Z" fill="black"/>
<path fill-rule="evenodd" clip-rule="evenodd" d="M35.6017 208.082C35.4728 208.072 35.3638 208.226 35.3586 208.428C35.3532 208.63 35.4532 208.801 35.5821 208.811C35.7109 208.821 35.8197 208.666 35.8251 208.464C35.8306 208.261 35.7303 208.091 35.6017 208.082Z" fill="black"/>
<path fill-rule="evenodd" clip-rule="evenodd" d="M51.9128 204.591C53.9632 204.591 55.6252 208.831 55.6252 214.063C55.6252 219.294 53.9632 223.535 51.9128 223.535C49.8623 223.535 48.2002 219.294 48.2002 214.063C48.2002 208.831 49.8623 204.591 51.9128 204.591Z" fill="white"/>
<path fill-rule="evenodd" clip-rule="evenodd" d="M53.6947 207.75C54.4447 207.75 55.0524 210.677 55.0524 214.285C55.0524 217.894 54.4447 220.819 53.6947 220.819C52.9448 220.819 52.3369 217.894 52.3369 214.285C52.3369 210.677 52.9448 207.75 53.6947 207.75Z" fill="black"/>
</svg>
