<svg width="36" height="36" viewBox="0 0 36 36" fill="none" xmlns="http://www.w3.org/2000/svg">
<path d="M6.23242 14.5629V14.564V32.0459C6.23242 33.6052 7.50142 34.8742 9.06067 34.8742H26.938C28.4973 34.8742 29.7663 33.6052 29.7663 32.0459V14.5646V14.5634V14.5623V10.6895V10.6884V10.6873V4.26575C29.7663 2.7065 28.4973 1.4375 26.938 1.4375H9.06123C7.50198 1.4375 6.23298 2.7065 6.23298 4.26575V10.6861V10.6873V10.6884V14.5612V14.5623L6.23242 14.5629ZM22.8824 10.1248H13.1174V6.91288C13.1174 6.37906 13.5567 5.94537 14.0962 5.94537H21.9149C22.4487 5.94537 22.8824 6.37906 22.8824 6.91288V10.1248ZM28.6419 11.2498V14.0004H7.35798V11.2498H28.6419ZM26.9386 33.7497H9.06123C8.12186 33.7497 7.35798 32.9859 7.35798 32.0465V15.1254H28.6419V32.0465C28.6419 32.9859 27.878 33.7497 26.9386 33.7497ZM9.06123 2.5625H26.9386C27.878 2.5625 28.6419 3.32638 28.6419 4.26575V10.1248H24.0074V6.91288C24.0074 5.75919 23.0686 4.82037 21.9149 4.82037H14.0962C12.9363 4.82037 11.9924 5.75919 11.9924 6.91288V10.1248H7.35798V4.26575C7.35798 3.32638 8.12186 2.5625 9.06123 2.5625Z" fill="black"/>
</svg>
