<svg width="36" height="36" viewBox="0 0 36 36" fill="none" xmlns="http://www.w3.org/2000/svg">
<g clip-path="url(#clip0_1067_26630)">
<path fill-rule="evenodd" clip-rule="evenodd" d="M25.3629 10.4824C25.3629 10.7542 25.1425 10.9746 24.8707 10.9746H11.1286C10.8568 10.9746 10.6364 10.7542 10.6364 10.4824C10.6364 10.2106 10.8568 9.9902 11.1286 9.9902H24.8706C25.1425 9.9902 25.3629 10.2106 25.3629 10.4824ZM35.0783 19.4935C34.9772 20.8667 33.9266 21.9023 32.6347 21.9023H3.36455C2.07255 21.9023 1.02202 20.8667 0.920765 19.4934C0.535172 14.2745 0.536789 10.5791 0.925898 8.19568C1.08305 7.23226 1.75959 6.58496 2.60946 6.58496H33.3896C34.2393 6.58496 34.9159 7.23226 35.0732 8.19568C35.4623 10.5791 35.464 14.2745 35.0783 19.4935ZM30.6383 18.1406C30.6383 17.8014 30.3623 17.5254 30.023 17.5254H5.97616C5.63691 17.5254 5.36093 17.8014 5.36093 18.1406V20.918H30.6383V18.1406ZM34.1018 8.3543C34.0427 7.9922 33.8207 7.56934 33.3897 7.56934H2.60953C2.17844 7.56934 1.95654 7.9922 1.89741 8.35423C1.52095 10.6603 1.52264 14.2802 1.90254 19.421C1.96638 20.2884 2.58127 20.918 3.36455 20.918H4.37655V18.1406C4.37655 17.2586 5.09416 16.541 5.97616 16.541H30.023C30.905 16.541 31.6226 17.2586 31.6226 18.1406V20.918H32.6347C33.4179 20.918 34.0328 20.2884 34.0967 19.4211C34.4766 14.2802 34.4782 10.6603 34.1018 8.3543ZM17.9996 24.1523C17.7278 24.1523 17.5074 24.3727 17.5074 24.6445V28.9221C17.5074 29.1939 17.7278 29.4143 17.9996 29.4143C18.2714 29.4143 18.4918 29.1939 18.4918 28.9221V24.6445C18.4918 24.3727 18.2714 24.1523 17.9996 24.1523ZM13.772 24.1528C13.5004 24.1639 13.2893 24.3931 13.3004 24.6647C13.3615 26.1545 12.9382 27.5958 12.1388 28.6191C11.9714 28.8333 12.0095 29.1426 12.2237 29.31C12.3136 29.3802 12.4204 29.4142 12.5263 29.4142C12.6727 29.4142 12.8175 29.3493 12.9145 29.225C13.8554 28.0206 14.3545 26.3437 14.2839 24.6243C14.2728 24.3527 14.0431 24.142 13.772 24.1528ZM9.3667 24.153C9.09565 24.1383 8.86369 24.3475 8.84962 24.6189C8.77193 26.1101 8.21421 27.5222 7.31955 28.4932C7.13534 28.6931 7.14806 29.0045 7.34796 29.1887C7.4426 29.2759 7.56213 29.319 7.68131 29.319C7.81406 29.319 7.94639 29.2656 8.04335 29.1603C9.09094 28.0234 9.74316 26.3869 9.83252 24.6702C9.84673 24.3987 9.63811 24.1672 9.3667 24.153ZM22.6989 24.6647C22.71 24.3931 22.4988 24.1639 22.2273 24.1528C21.955 24.1419 21.7264 24.3528 21.7153 24.6243C21.6447 26.3436 22.144 28.0206 23.0848 29.2251C23.1819 29.3494 23.3267 29.4143 23.473 29.4143C23.579 29.4143 23.6856 29.3803 23.7756 29.31C23.9899 29.1427 24.0279 28.8334 23.8606 28.6192C23.0611 27.5957 22.6378 26.1544 22.6989 24.6647ZM27.1497 24.6189C27.1356 24.3474 26.9038 24.1383 26.6326 24.153C26.3612 24.1672 26.1526 24.3987 26.1667 24.6701C26.2562 26.3867 26.9084 28.0232 27.9559 29.1601C28.053 29.2655 28.1853 29.3188 28.318 29.3188C28.4371 29.3188 28.5567 29.2758 28.6513 29.1885C28.8512 29.0044 28.8639 28.693 28.6797 28.4931C27.7852 27.5223 27.2275 26.1101 27.1497 24.6189ZM29.9332 9.81434C29.5653 9.81434 29.2652 10.1144 29.2652 10.4823C29.2652 10.8503 29.5653 11.1503 29.9332 11.1503C30.3011 11.1503 30.6011 10.8502 30.6011 10.4823C30.6011 10.1144 30.3011 9.81434 29.9332 9.81434Z" fill="black"/>
<rect x="35.2886" y="4.90281" width="1.34601" height="41.4576" transform="rotate(54.1212 35.2886 4.90281)" fill="black" stroke="white" stroke-width="0.3"/>
</g>
<defs>
<clipPath id="clip0_1067_26630">
<rect width="36" height="36" fill="white"/>
</clipPath>
</defs>
</svg>
