<svg width="36" height="36" viewBox="0 0 36 36" fill="none" xmlns="http://www.w3.org/2000/svg">
<g clip-path="url(#clip0_1067_26605)">
<path d="M0.461398 2.31211C0.45988 2.30665 0.462715 2.31768 0.461398 2.31211V2.31211Z" fill="black"/>
<path d="M33.5345 25.9983C32.3656 24.9728 30.8984 24.5163 29.4044 24.7122L13.4446 26.807L12.8147 20.698C12.5224 17.3233 11.7371 14.0173 10.4806 10.8718L9.9173 9.46186C9.47447 8.35331 8.63149 7.49015 7.59149 7.01195C8.04972 5.99446 8.11631 4.84274 7.76179 3.76681C7.75842 3.75648 7.75469 3.74621 7.75061 3.73609C6.86362 1.51576 4.74608 0.0494559 2.3558 0.000377679C1.7708 -0.0111536 1.21899 0.241831 0.847036 0.69584C0.475012 1.14992 0.334668 1.739 0.461863 2.31212L5.76091 25.4356C5.82447 25.721 6.10719 25.901 6.39302 25.8375C6.67848 25.7739 6.85841 25.491 6.79492 25.2054L3.1715 8.92699C3.09978 8.60397 3.17895 8.27196 3.38863 8.01602C3.59837 7.76008 3.9088 7.61875 4.23906 7.62396L5.75711 7.6551C6.07056 7.6615 6.37593 7.7096 6.66723 7.79453C6.68151 7.79953 6.69592 7.80403 6.71041 7.80775C7.70765 8.11249 8.53347 8.85302 8.93362 9.85469L9.4969 11.2647C10.7154 14.315 11.4768 17.521 11.7598 20.7936C11.76 20.7965 11.7603 20.7993 11.7605 20.8023L12.3938 26.9449L11.388 27.0769C10.7075 26.1621 9.52952 25.6793 8.34693 25.943C6.7443 26.3006 5.7306 27.8955 6.08737 29.4983C6.08807 29.5012 6.08877 29.5041 6.08941 29.5071L7.38632 34.896C7.5427 35.5461 8.11891 36 8.78751 36H29.1444C30.6474 36 31.8719 34.7871 31.892 33.2888H33.1286C34.4821 33.2888 35.5831 32.1065 35.5831 30.6533C35.5832 28.8372 34.8365 27.1405 33.5345 25.9983ZM6.57716 6.68331C6.31722 6.6317 6.05045 6.60175 5.77898 6.5962L4.26093 6.56505C3.6871 6.55218 3.14113 6.76931 2.73416 7.16524L1.4949 2.07784C1.44033 1.82569 1.5027 1.56687 1.66632 1.36719C1.83092 1.16623 2.07631 1.05521 2.33408 1.05936C4.29264 1.09965 6.02837 2.29784 6.76082 4.11353C7.03806 4.96839 6.96923 5.88526 6.57716 6.68331ZM8.78758 34.9408C8.61032 34.9408 8.45768 34.8205 8.41626 34.6483L7.12047 29.2641C6.89322 28.2325 7.54614 27.2071 8.57763 26.9769C9.61059 26.7465 10.6392 27.3995 10.8709 28.4376L12.3833 34.9408H8.78758ZM33.1288 32.2296H27.1556C26.8631 32.2296 26.626 32.4667 26.626 32.7592C26.626 33.0517 26.8631 33.2888 27.1556 33.2888H30.8329C30.8129 34.203 30.0634 34.9408 29.1444 34.9408H13.4708L13.0866 33.2888H24.6913C24.9838 33.2888 25.2209 33.0517 25.2209 32.7592C25.2209 32.4667 24.9838 32.2296 24.6913 32.2296H12.8402L11.9036 28.2023C11.8945 28.1616 11.8841 28.1215 11.8734 28.0816L29.5422 25.7624C30.7298 25.6064 31.8996 25.9731 32.8359 26.7944C33.9087 27.7356 34.524 29.1422 34.524 30.6533C34.524 31.5225 33.8981 32.2296 33.1288 32.2296Z" fill="black"/>
</g>
<defs>
<clipPath id="clip0_1067_26605">
<rect width="36" height="36" fill="white"/>
</clipPath>
</defs>
</svg>
