<svg width="747" height="531" viewBox="0 0 747 531" fill="none" xmlns="http://www.w3.org/2000/svg">
<g clip-path="url(#clip0_246_24328)">
<path d="M625.03 106.29C629.89 93.0099 614.75 86.5899 605.45 94.5499C604.34 95.4899 604.38 96.8399 605.76 97.4899C606.367 97.7765 606.904 97.6765 607.37 97.1899C615.74 88.4899 628.9 99.4199 619.39 109.15C615.83 112.79 610.56 116.57 611.78 122.46C611.947 123.26 612.534 123.537 613.54 123.29C614.06 123.163 614.31 122.833 614.29 122.3C614.08 115.67 622.74 112.56 625.03 106.29Z" stroke="#C7C7C7" stroke-width="2"/>
<path d="M518.16 154.06C513.307 152.72 508.39 151.856 503.41 151.47" stroke="#96BFF4" stroke-width="2"/>
<path d="M503.41 151.47C503.17 150.377 502.683 149.9 501.95 150.04C501.801 150.067 501.667 150.15 501.578 150.271C501.489 150.392 501.45 150.542 501.47 150.69C502.49 158.51 502.74 168.37 505.16 174.8C509.46 186.22 519.47 191.69 530.79 194.98C537.11 196.81 543.41 198.74 549.03 198.25C560.83 197.23 563.92 180.35 564.38 170.79C564.389 170.611 564.337 170.433 564.232 170.286C564.126 170.139 563.974 170.031 563.8 169.98C563.347 169.853 562.953 169.96 562.62 170.3" stroke="#808080" stroke-width="2"/>
<path d="M562.62 170.3C558.56 167.666 553.886 165.473 548.6 163.72" stroke="#96BFF4" stroke-width="2"/>
<path d="M548.6 163.72C551.353 162.426 553.23 160.586 554.23 158.2C554.356 157.906 554.573 157.706 554.88 157.6C557.86 156.58 559.16 154.616 558.78 151.71C558.386 148.676 558.476 146.063 559.05 143.87C560.06 140.01 561.07 137.55 557.26 135.63C556.713 135.356 556.746 135.176 557.36 135.09L563.2 134.31C563.806 134.228 564.423 134.356 564.948 134.675C565.474 134.993 565.876 135.481 566.09 136.06C567.636 140.306 569.326 144.37 571.16 148.25C572.446 150.976 574.433 152.43 577.12 152.61" stroke="#808080" stroke-width="2"/>
<path d="M577.12 152.61L593.25 190.8" stroke="#96BFF4" stroke-width="2"/>
<path d="M593.25 190.8L592.89 191.28" stroke="#808080" stroke-width="2"/>
<path d="M592.89 191.28L582.64 183.94" stroke="#96BFF4" stroke-width="2"/>
<path d="M582.64 183.94L582.47 182.53C582.453 182.364 582.378 182.21 582.258 182.095C582.137 181.98 581.98 181.911 581.814 181.902C581.648 181.892 581.484 181.942 581.351 182.042C581.218 182.143 581.126 182.287 581.09 182.45C578.15 194.67 574.527 206.776 570.22 218.77C568.72 222.95 567.9 226.34 567.76 228.94C567.26 238.15 570.72 247.36 575.62 255.05C575.728 255.229 575.9 255.36 576.101 255.416C576.303 255.473 576.518 255.45 576.703 255.353C576.888 255.256 577.029 255.092 577.097 254.894C577.166 254.696 577.156 254.48 577.07 254.29L576.26 252.35" stroke="#808080" stroke-width="2"/>
<path d="M576.26 252.35L583.52 221.25C583.533 221.186 583.563 221.127 583.606 221.078C583.65 221.03 583.705 220.993 583.767 220.973C583.829 220.953 583.895 220.949 583.959 220.963C584.022 220.976 584.081 221.006 584.13 221.05C589.38 225.57 595.59 231.58 601.16 234.25C604.393 235.797 607.816 236.757 611.43 237.13C627.47 238.79 634.27 233.8 633.89 217.21C633.716 209.817 631.366 201.893 626.84 193.44C619.986 180.653 610.356 167.18 597.95 153.02C594.743 149.36 591.44 146.81 588.04 145.37C587.686 145.223 587.386 145.293 587.14 145.58C585.806 147.087 584.593 148.08 583.5 148.56" stroke="#96BFF4" stroke-width="2"/>
<path d="M583.5 148.56L577.64 150.89C577.369 151 577.068 151.011 576.79 150.92C571.88 149.26 569.33 139.56 567.57 135.2C567.218 134.325 566.586 133.591 565.772 133.111C564.959 132.632 564.009 132.435 563.07 132.55L555.55 133.47C555.313 133.5 555.073 133.465 554.854 133.368C554.636 133.272 554.448 133.117 554.311 132.922C554.174 132.726 554.093 132.497 554.077 132.259C554.061 132.02 554.111 131.782 554.22 131.57C555.8 128.47 565.44 127.81 568.5 127.81C570.027 127.81 571.757 128.33 573.69 129.37C579.43 132.437 583.56 136.663 586.08 142.05C586.34 142.603 586.64 142.673 586.98 142.26C587.174 142.028 587.295 141.745 587.331 141.445C587.366 141.145 587.314 140.841 587.18 140.57C584.207 134.543 579.717 130.143 573.71 127.37C568.14 124.8 557.6 126.24 552.83 129.97C552.61 130.137 552.417 130.11 552.25 129.89C549.13 125.56 544.12 126.6 540.17 129.1C539.857 129.3 539.614 129.233 539.44 128.9C537.82 125.66 533.26 128.02 531.62 130.05C531.414 130.31 531.15 130.443 530.83 130.45C526.83 130.577 524.29 132.53 523.21 136.31C523.11 136.65 522.92 136.933 522.64 137.16C521.16 138.36 519.05 139.37 519.05 141.69C519.05 143.5 520.14 145.68 520.59 147.61C520.67 147.937 520.644 148.253 520.51 148.56L518.16 154.06" stroke="#808080" stroke-width="2"/>
<path d="M583.5 148.56C582.193 150.867 580.067 152.217 577.12 152.61" stroke="#174075" stroke-width="2"/>
<path d="M548.6 163.72C545.52 169.073 541.2 172.613 535.64 174.34C521.87 178.63 515.5 165.77 518.16 154.06" stroke="#174075" stroke-width="2"/>
<path d="M576.26 252.35C571.54 245.07 569.323 237.607 569.61 229.96C569.716 227.24 570.576 223.527 572.19 218.82C576.116 207.367 579.6 195.74 582.64 183.94" stroke="#174075" stroke-width="2"/>
<path d="M592.89 191.28L597.65 204.1C597.688 204.206 597.749 204.303 597.828 204.384C597.906 204.465 598.001 204.529 598.107 204.572C598.212 204.614 598.326 204.634 598.44 204.63C598.554 204.626 598.666 204.599 598.77 204.55C599.376 204.263 599.523 203.746 599.21 203C597.656 199.326 596.14 195.633 594.66 191.92C594.54 191.606 594.33 191.37 594.03 191.21L593.25 190.8" stroke="#174075" stroke-width="2"/>
<path d="M503.41 151.47C504.3 158.69 504.53 167.77 506.68 173.74C511.65 187.5 525.41 192.13 538.47 195.38C551.43 198.61 556.71 195.55 560.54 183.07C561.8 178.97 562.493 174.713 562.62 170.3" stroke="#174075" stroke-width="2"/>
<path d="M615.219 132.7C615.219 132 614.941 131.328 614.446 130.833C613.951 130.338 613.28 130.06 612.579 130.06C611.879 130.06 611.208 130.338 610.713 130.833C610.218 131.328 609.939 132 609.939 132.7C609.939 133.047 610.008 133.39 610.14 133.71C610.273 134.031 610.468 134.322 610.713 134.567C610.958 134.812 611.249 135.006 611.569 135.139C611.889 135.272 612.233 135.34 612.579 135.34C612.926 135.34 613.269 135.272 613.59 135.139C613.91 135.006 614.201 134.812 614.446 134.567C614.691 134.322 614.886 134.031 615.018 133.71C615.151 133.39 615.219 133.047 615.219 132.7Z" stroke="#C7C7C7" stroke-width="2"/>
<path d="M485.83 151.28C475.76 152.26 468.68 154.88 459.02 160.13C454.78 162.436 449.764 165.116 443.97 168.17C438.21 171.21 432.55 174.686 426.99 178.6" stroke="#96BFF4" stroke-width="2"/>
<path d="M426.99 178.6C395.35 166.793 363.603 164.186 331.75 170.78C304.543 176.42 280.16 187.946 258.6 205.36C239.5 220.786 224.386 239.556 213.26 261.67" stroke="#F8F8F8" stroke-width="2"/>
<path d="M213.26 261.67C192.907 262.403 172.32 263.127 151.5 263.84C147.48 263.973 144.467 265.457 142.46 268.29C141.307 269.91 140.427 272.85 139.82 277.11C137.793 291.43 135.797 305.197 133.83 318.41" stroke="#808080" stroke-width="2"/>
<path d="M133.83 318.41C108.03 324.436 88.0537 337.94 73.9004 358.92C49.8904 394.51 51.7704 443.36 79.9804 476.26C80.8738 477.3 81.9537 477.34 83.2204 476.38" stroke="#F8F8F8" stroke-width="2"/>
<path d="M83.2199 476.38L83.1499 477.54C83.1299 477.926 83.3132 478.12 83.6999 478.12H651.2C651.547 478.12 651.727 477.946 651.74 477.6L651.76 476.82C651.767 476.52 651.62 476.37 651.32 476.37H623.23C622.85 476.37 622.657 476.176 622.65 475.79C622.59 471.71 622.583 467.703 622.63 463.77C622.63 463.383 622.437 463.18 622.05 463.16" stroke="#808080" stroke-width="2"/>
<path d="M622.05 463.16C621.597 463.013 621.394 462.793 621.44 462.5C621.994 459.02 621.9 455.843 621.16 452.97" stroke="#F8F8F8" stroke-width="2"/>
<path d="M621.16 452.97C621.973 453.083 622.383 452.92 622.39 452.48C622.59 439.16 622.666 425.793 622.62 412.38C622.62 411.953 622.406 411.74 621.98 411.74L612.23 411.7C611.736 411.7 611.56 411.46 611.7 410.98L613.15 406.07C613.263 405.683 613.516 405.546 613.91 405.66C618.13 406.92 626.94 411.16 629.51 405.51C630.02 404.38 633.13 396.04 632.39 393.16C632.15 392.193 631.883 391.303 631.59 390.49" stroke="#808080" stroke-width="2"/>
<path d="M631.59 390.49C637.803 368.723 633.243 350.253 617.91 335.08C607.34 324.61 592.38 319.38 577.01 320.3C575.523 320.387 574.02 320.403 572.5 320.35" stroke="#F8F8F8" stroke-width="2"/>
<path d="M572.5 320.35C576.886 302.903 578.503 285.313 577.35 267.58C577.316 267.127 577.21 266.79 577.03 266.57C576.743 266.243 576.353 266.15 575.86 266.29C575.749 266.322 575.653 266.39 575.588 266.483C575.522 266.576 575.491 266.688 575.5 266.8C576.76 284.153 575.293 301.3 571.1 318.24C567.2 333.99 562.37 349.79 558.74 365.22C551.966 394.053 545.143 422.88 538.27 451.7C538.196 452.013 538 452.167 537.68 452.16L521.21 451.82C520.81 451.807 520.61 451.603 520.61 451.21L519.46 314.19C519.46 313.957 519.576 313.827 519.81 313.8L524.99 313.32C525.503 313.273 525.696 313.003 525.57 312.51L525.43 311.94C525.343 311.587 525.12 311.44 524.76 311.5C520.426 312.227 516.116 312.09 511.83 311.09C511.739 311.07 511.644 311.072 511.554 311.096C511.464 311.119 511.381 311.164 511.313 311.226C511.244 311.288 511.191 311.365 511.16 311.451C511.128 311.537 511.117 311.629 511.13 311.72L511.22 312.57C511.23 312.662 511.272 312.747 511.337 312.813C511.402 312.878 511.488 312.919 511.58 312.93L516.72 313.65C516.761 313.655 516.801 313.67 516.836 313.692C516.871 313.715 516.901 313.745 516.923 313.78C516.945 313.816 516.959 313.856 516.964 313.897C516.968 313.939 516.963 313.981 516.95 314.02L469.66 454.35C469.526 454.737 469.256 454.947 468.85 454.98L453.27 456.32C452.856 456.353 452.65 456.58 452.65 457L452.64 459.24C452.64 459.567 452.476 459.73 452.15 459.73L445.14 459.74" stroke="#808080" stroke-width="2"/>
<path d="M445.14 459.74C446.266 454.68 447.996 449.817 450.33 445.15" stroke="#EEEEEE" stroke-width="2"/>
<path d="M450.33 445.15C450.23 447.657 450.093 449.953 449.92 452.04C449.88 452.46 449.927 452.763 450.06 452.95C450.267 453.263 450.617 453.347 451.11 453.2C451.403 453.107 451.563 452.907 451.59 452.6C453.597 427.4 455.603 402.203 457.61 377.01C457.677 376.143 457.497 375.613 457.07 375.42" stroke="#808080" stroke-width="2"/>
<path d="M457.07 375.42C456.61 375.2 456.4 374.893 456.44 374.5C457.2 367.26 457.734 360.06 458.04 352.9" stroke="#EEEEEE" stroke-width="2"/>
<path d="M458.04 352.9L458.6 352.71C458.927 352.603 459.1 352.377 459.12 352.03C460.7 325.19 464.367 297.853 470.12 270.02C470.333 269 470.04 268.373 469.24 268.14C468.927 268.047 468.737 267.84 468.67 267.52L468.48 266.63" stroke="#808080" stroke-width="2"/>
<path d="M468.48 266.63L468.99 262.24" stroke="#F8F8F8" stroke-width="2"/>
<path d="M468.99 262.24C475.484 259.187 477.597 254.093 475.33 246.96C475.23 246.64 475.23 246.32 475.33 246C480.96 227.66 484.55 208.65 489.05 190C492.04 177.63 490.06 163.52 487.56 150.76C487.494 150.42 487.287 150.237 486.94 150.21C486.26 150.163 485.89 150.52 485.83 151.28" stroke="#808080" stroke-width="2"/>
<path d="M468.989 262.24C463.749 263.833 458.709 263.977 453.869 262.67C452.069 262.18 451.309 260.29 452.429 258.67C453.736 256.803 455.623 255.88 458.089 255.9C458.423 255.9 458.693 255.767 458.899 255.5C462.113 251.2 461.503 247.693 457.07 244.98C456.63 244.7 456.33 244.21 456.35 243.73" stroke="#797979" stroke-width="2"/>
<path d="M456.35 243.73C457.17 243.503 457.763 243.137 458.13 242.63C460.896 238.77 464.403 236.457 468.65 235.69" stroke="#174075" stroke-width="2"/>
<path d="M468.65 235.69L473.7 243.38C473.947 243.76 474.13 243.73 474.25 243.29L476.47 235.15" stroke="#797979" stroke-width="2"/>
<path d="M476.47 235.15C479.976 221.223 483.19 207.706 486.11 194.6C487.26 189.43 488.76 184.2 488.77 179C488.796 170.326 487.816 161.086 485.83 151.28" stroke="#174075" stroke-width="2"/>
<path d="M476.47 235.15C473.696 223.07 472.34 211.213 472.4 199.58C472.4 199.412 472.359 199.246 472.281 199.097C472.202 198.948 472.089 198.821 471.949 198.726C471.81 198.631 471.65 198.572 471.483 198.554C471.315 198.535 471.146 198.558 470.99 198.62L455.26 204.8C455.119 204.856 455.005 204.964 454.942 205.102C454.878 205.24 454.87 205.397 454.92 205.54C458.606 216.12 463.183 226.17 468.65 235.69" stroke="#8FB8ED" stroke-width="2"/>
<path d="M456.35 243.73C455.99 243.17 455.676 242.797 455.41 242.61C441.336 232.997 429.763 220.97 420.69 206.53C419.236 204.217 417.933 200.707 416.78 196C414.96 188.58 421.41 182.8 426.99 178.6" stroke="#8FB8ED" stroke-width="2"/>
<path d="M468.48 266.63C412.587 263.997 356.677 261.383 300.75 258.79C294.584 258.503 286.33 258.837 275.99 259.79" stroke="#797979" stroke-width="2"/>
<path d="M275.99 259.79C271.643 260.683 267.123 260.917 262.43 260.49" stroke="#F8F8F8" stroke-width="2"/>
<path d="M262.43 260.49C262.523 260.77 262.443 260.7 262.19 260.28C262.076 260.093 261.91 260.003 261.69 260.01L213.26 261.67" stroke="#797979" stroke-width="2"/>
<path d="M458.04 352.9C457.46 352.053 457.29 350.936 457.53 349.55C457.603 349.136 457.427 348.93 457 348.93H436.84" stroke="#6F6F6F" stroke-width="2"/>
<path d="M436.84 348.93C436.68 348.89 436.61 348.79 436.63 348.63C438.263 333.683 440.483 318.823 443.29 304.05C443.98 300.44 444.08 296.54 444.57 292.81C444.623 292.437 444.459 292.267 444.079 292.3C440.509 292.63 433.74 293.8 430.65 291.71C430.363 291.517 430.263 291.253 430.35 290.92C430.796 289.227 431.733 288.233 433.16 287.94C436.226 287.32 437.673 285.293 437.5 281.86" stroke="#797979" stroke-width="2"/>
<path d="M437.5 281.86L465.27 282.78C465.643 282.793 465.863 282.617 465.93 282.25L468.38 268.7C468.44 268.347 468.293 268.163 467.94 268.15L450.13 267.34" stroke="#6F6F6F" stroke-width="2"/>
<path d="M450.13 267.34L442.03 266.95" stroke="#808080" stroke-width="2"/>
<path d="M442.03 266.95L420.96 266" stroke="#6F6F6F" stroke-width="2"/>
<path d="M420.96 266C381.293 264.033 341.157 262.14 300.55 260.32C293.13 259.99 290.23 263.61 289.22 270.82C288.273 277.64 287.32 284.457 286.36 291.27C286.338 291.428 286.256 291.572 286.132 291.672C286.007 291.772 285.849 291.822 285.69 291.81L285.26 291.78C284.94 291.753 284.8 291.577 284.84 291.25L286.62 278.27C286.673 277.877 286.503 277.687 286.11 277.7L260.25 278.55" stroke="#808080" stroke-width="2"/>
<path d="M260.25 278.55L246.61 278.94" stroke="#797979" stroke-width="2"/>
<path d="M246.61 278.94L237.43 279.49" stroke="#808080" stroke-width="2"/>
<path d="M237.43 279.49L214.74 280.12" stroke="#797979" stroke-width="2"/>
<path d="M214.74 280.12L141.18 282.61C140.78 282.623 140.55 282.83 140.49 283.23L124.32 395.28C124.26 395.667 124.426 395.857 124.82 395.85L133.53 395.77" stroke="#808080" stroke-width="2"/>
<path d="M133.53 395.77L155.85 395.8" stroke="#797979" stroke-width="2"/>
<path d="M155.85 395.8L165.53 395.9" stroke="#808080" stroke-width="2"/>
<path d="M165.53 395.9L178.19 395.91" stroke="#797979" stroke-width="2"/>
<path d="M178.19 395.91L270.1 395.94C270.183 395.941 270.262 395.912 270.325 395.858C270.387 395.805 270.428 395.731 270.44 395.65C274.76 364.363 279.104 333.06 283.47 301.74C283.57 301.04 283.914 300.813 284.5 301.06C284.639 301.121 284.754 301.226 284.828 301.36C284.902 301.493 284.931 301.648 284.91 301.8C280.857 331.28 276.8 360.773 272.74 390.28C272.074 395.086 271.744 399.92 271.75 404.78C271.757 419.1 271.754 433.42 271.74 447.74C271.74 450.773 272.12 453.05 272.88 454.57C275.84 460.49 281 459.72 288.03 459.75C305.25 459.816 322.487 459.77 339.74 459.61C340.094 459.603 340.27 459.426 340.27 459.08C340.304 451.12 340.31 443.16 340.29 435.2C340.264 427.233 340.71 421.47 341.63 417.91C346.19 400.28 361.87 388.34 380 387.92C386.44 387.766 390.864 387.96 393.27 388.5C411.52 392.62 426.21 407.73 426.2 427C426.194 437.733 426.197 448.47 426.21 459.21C426.21 459.556 426.384 459.73 426.73 459.73H429.37" stroke="#808080" stroke-width="2"/>
<path d="M429.37 459.73L445.14 459.74" stroke="#6F6F6F" stroke-width="2"/>
<path d="M572.5 320.35C568.69 335.17 564.19 350.19 560.73 364.73C556.59 382.11 552.513 399.327 548.5 416.38" stroke="#797979" stroke-width="2"/>
<path d="M548.5 416.38L539.78 453.2C539.724 453.436 539.587 453.646 539.391 453.792C539.196 453.938 538.955 454.012 538.71 454L535.12 453.84C534.733 453.82 534.53 454 534.51 454.38L534.29 458.69C534.27 459.037 534.42 459.277 534.74 459.41C541.9 462.36 544.86 468.42 546.15 475.85C546.21 476.19 546.41 476.36 546.75 476.36L570.39 476.37" stroke="#808080" stroke-width="2"/>
<path d="M570.39 476.37H620.46C620.568 476.37 620.673 476.325 620.75 476.247C620.826 476.168 620.87 476.061 620.87 475.95L620.88 463.84C620.88 463.513 621.036 463.3 621.35 463.2C621.576 463.133 621.81 463.12 622.05 463.16" stroke="#797979" stroke-width="2"/>
<path d="M83.2197 476.38H200.5C200.524 476.384 200.548 476.378 200.568 476.364C200.587 476.35 200.601 476.328 200.605 476.305C200.609 476.281 200.603 476.256 200.589 476.237C200.575 476.217 200.554 476.204 200.53 476.2C192.723 473.493 186.626 468.64 182.24 461.64C182.08 461.386 181.85 461.26 181.55 461.26C164.75 461.24 147.95 461.24 131.15 461.26C124.61 461.27 122.59 458.5 122.55 451.99C122.516 446.856 122.526 441.716 122.58 436.57C122.586 436.296 122.713 436.1 122.96 435.98C123.08 435.92 123.2 435.89 123.32 435.89" stroke="#797979" stroke-width="2"/>
<path d="M123.32 435.89C123.574 435.916 123.78 436.026 123.94 436.22C124.054 436.353 124.11 436.556 124.11 436.83C124.13 442.583 124.19 448.34 124.29 454.1C124.357 457.86 126.094 459.743 129.5 459.75C136.014 459.756 142.53 459.753 149.05 459.74" stroke="#808080" stroke-width="2"/>
<path d="M149.05 459.74L228.58 459.73" stroke="#174075" stroke-width="2"/>
<path d="M228.579 459.73L274.669 459.72C275.176 459.72 275.233 459.56 274.839 459.24C271.279 456.4 270.249 453.44 270.249 448.64C270.269 431.787 270.263 414.903 270.229 397.99C270.229 397.663 270.066 397.5 269.739 397.5H124.739C124.366 397.5 124.176 397.687 124.169 398.06C124.049 406.12 124.056 414.13 124.189 422.09C124.203 422.777 124.049 423.33 123.729 423.75" stroke="#808080" stroke-width="2"/>
<path d="M123.73 423.75C123.497 423.823 123.25 423.796 122.99 423.67C122.853 423.604 122.736 423.5 122.655 423.371C122.574 423.242 122.53 423.092 122.53 422.94C122.55 412.07 121.92 401.04 123.5 390.25C126.9 366.87 130.344 342.923 133.83 318.41" stroke="#797979" stroke-width="2"/>
<path d="M262.43 260.49C262.464 261.043 262.32 261.327 262 261.34C225.334 262.74 188.667 264.08 152 265.36C142.67 265.69 141.5 272.61 141.02 280.56C141 280.9 141.16 281.067 141.5 281.06L286.35 276.13C286.684 276.117 286.884 275.947 286.95 275.62C288.02 270.05 287.26 265.09 292.39 260.93C292.757 260.63 292.704 260.483 292.23 260.49C285.417 260.583 280.677 260.73 278.01 260.93C276.817 261.023 276.144 260.643 275.99 259.79" stroke="#808080" stroke-width="2"/>
<path d="M123.73 423.75L123.47 425.95" stroke="#F8F8F8" stroke-width="2"/>
<path d="M123.47 425.95C123.363 425.79 123.216 425.7 123.03 425.68C122.979 425.673 122.927 425.677 122.878 425.692C122.828 425.707 122.782 425.732 122.743 425.766C122.703 425.799 122.671 425.841 122.648 425.889C122.625 425.936 122.612 425.987 122.61 426.04L122.27 433.9C122.267 434 122.298 434.098 122.358 434.178C122.418 434.258 122.503 434.315 122.6 434.34C122.78 434.38 122.896 434.36 122.95 434.28" stroke="#E7E7E7" stroke-width="2"/>
<path d="M122.95 434.28C122.783 434.806 122.906 435.343 123.32 435.89" stroke="#F8F8F8" stroke-width="2"/>
<path d="M631.59 390.49C627.53 388.63 623.487 387.28 619.46 386.44C619.382 386.423 619.309 386.388 619.246 386.338C619.183 386.288 619.133 386.224 619.099 386.151C619.065 386.079 619.049 385.999 619.051 385.919C619.053 385.839 619.073 385.761 619.11 385.69C619.884 384.243 619.68 383.023 618.5 382.03C618.274 381.836 617.984 381.726 617.68 381.72C615.954 381.686 615.01 382.536 614.85 384.27C614.844 384.345 614.822 384.419 614.784 384.485C614.746 384.551 614.693 384.608 614.63 384.652C614.568 384.695 614.496 384.725 614.419 384.739C614.343 384.752 614.265 384.749 614.19 384.73C611.55 383.996 608.92 383.236 606.3 382.45C598.26 380.03 597.41 387.14 595.8 393.52C593.67 401.97 602.28 402.12 608.42 404.08C608.747 404.186 608.864 404.403 608.77 404.73L606.88 411.09C606.824 411.273 606.713 411.433 606.561 411.546C606.41 411.66 606.227 411.72 606.04 411.72H584C583.687 411.72 583.53 411.563 583.53 411.25L583.54 401.96C583.54 401.56 583.727 401.283 584.1 401.13C592.16 397.84 593.28 387.14 585.41 382.89C585.057 382.703 584.877 382.81 584.87 383.21C584.84 385.88 585.45 389.51 583.77 391.49C582.19 393.33 579.24 393.29 577.49 391.57C575.79 389.92 576.43 385.54 576.32 383.22C576.3 382.873 576.137 382.783 575.83 382.95C567.96 387.24 569.16 397.91 577.24 401.2C577.58 401.34 577.75 401.593 577.75 401.96V411.23C577.75 411.55 577.59 411.71 577.27 411.71L570.3 411.74C569.96 411.74 569.79 411.91 569.79 412.25L569.78 426.15" stroke="#797979" stroke-width="2"/>
<path d="M569.78 426.15C562.187 424.277 555.093 421.02 548.5 416.38" stroke="#F8F8F8" stroke-width="2"/>
<path d="M457.07 375.42C456.69 375.373 456.387 375.42 456.16 375.56C455.973 375.68 455.863 375.923 455.83 376.29C454.05 399.497 452.217 422.45 450.33 445.15" stroke="#6F6F6F" stroke-width="2"/>
<path d="M570.89 469.33L570.39 476.37" stroke="#F8F8F8" stroke-width="2"/>
<path d="M420.96 266C424.88 270.567 429.383 274.323 434.47 277.27C435.57 277.903 436.56 279.02 437.44 280.62" stroke="#EEEEEE" stroke-width="2"/>
<path d="M437.44 280.62L437.13 281.34C436.99 281.653 436.75 281.803 436.41 281.79C428.443 281.557 420.476 281.317 412.51 281.07C406.56 280.88 404.48 284.05 404.48 289.83C404.473 307.137 404.47 324.443 404.47 341.75C404.47 347.23 408.27 348.8 413.3 348.82C420.786 348.847 428.28 348.83 435.78 348.77C436.126 348.77 436.32 348.94 436.36 349.28L436.44 349.96" stroke="#F8F8F8" stroke-width="2"/>
<path d="M436.44 349.96L428.33 456.32C428.304 456.667 428.38 456.987 428.56 457.28C429.06 458.087 429.33 458.903 429.37 459.73" stroke="#EEEEEE" stroke-width="2"/>
<path d="M178.19 395.91L260.25 278.55" stroke="#F8F8F8" stroke-width="2"/>
<path d="M165.53 395.9L165.63 394.58C165.65 394.267 165.754 393.98 165.94 393.72L246.61 278.94" stroke="#F8F8F8" stroke-width="2"/>
<path d="M228.58 459.73C226.67 453.46 223.45 448.34 216.25 448.31C198.076 448.256 179.896 448.243 161.71 448.27C154.49 448.28 150.78 453.09 149.05 459.74" stroke="#96BFF4" stroke-width="2"/>
<path d="M122.95 434.28C123.57 433.833 123.877 433.323 123.87 432.75C123.857 431.21 123.724 428.943 123.47 425.95" stroke="#EEEEEE" stroke-width="2"/>
<path d="M133.53 395.77L214.74 280.12" stroke="#F8F8F8" stroke-width="2"/>
<path d="M442.03 266.95L448.16 278.01C448.347 278.343 448.53 278.34 448.71 278C450.444 274.593 450.917 271.04 450.13 267.34" stroke="#EEEEEE" stroke-width="2"/>
<path d="M437.5 281.86C437.4 281.693 437.38 281.28 437.44 280.62" stroke="#E7E7E7" stroke-width="2"/>
<path d="M155.85 395.8L237.43 279.49" stroke="#F8F8F8" stroke-width="2"/>
<path d="M436.84 348.93C436.894 349.576 436.76 349.92 436.44 349.96" stroke="#E7E7E7" stroke-width="2"/>
<path d="M621.16 452.97L620.88 435.74C620.873 435.113 620.693 435.06 620.34 435.58C619.89 436.25 619.55 437.45 619.23 437.94C610.79 451.02 593.96 455.99 581.09 446.39C577.463 443.683 574.336 440.01 571.71 435.37C571.596 435.17 571.54 435.183 571.54 435.41C571.526 446.296 571.523 457.31 571.53 468.45C571.53 468.69 571.483 468.87 571.39 468.99C571.27 469.15 571.103 469.263 570.89 469.33" stroke="#797979" stroke-width="2"/>
<path d="M570.89 469.33C570.71 469.33 570.527 469.283 570.34 469.19C570.2 469.124 570.081 469.019 569.998 468.888C569.915 468.757 569.871 468.605 569.87 468.45L569.78 426.15" stroke="#808080" stroke-width="2"/>
<path d="M624.44 170.59C634.47 184.77 643.16 199.99 643.52 217.92C643.527 218.186 643.584 218.386 643.69 218.52C643.85 218.726 644.064 218.81 644.33 218.77C644.594 218.731 644.834 218.598 645.007 218.396C645.18 218.194 645.273 217.936 645.27 217.67C645.06 199.88 636.11 183.78 625.93 169.71C625.697 169.39 625.474 169.193 625.26 169.12C624.854 168.973 624.544 169.173 624.33 169.72C624.275 169.861 624.256 170.014 624.275 170.166C624.294 170.318 624.351 170.464 624.44 170.59Z" stroke="#C7C7C7" stroke-width="2"/>
<path d="M559.8 217.64L541.3 213.71C541.249 213.698 541.196 213.697 541.144 213.705C541.092 213.714 541.042 213.733 540.998 213.761C540.953 213.788 540.915 213.825 540.884 213.868C540.854 213.91 540.832 213.959 540.82 214.01L537.8 228.23C537.247 230.841 537.72 233.558 539.115 235.783C540.51 238.009 542.713 239.562 545.24 240.1L545.46 240.15C547.989 240.688 550.635 240.166 552.816 238.699C554.997 237.233 556.534 234.942 557.09 232.33L560.11 218.11C560.131 218.007 560.11 217.899 560.052 217.811C559.994 217.723 559.903 217.662 559.8 217.64Z" stroke="#FFDB99" stroke-width="2"/>
<path d="M528.75 257.21C517.31 256.52 507.44 253.4 496.96 248.76C496.874 248.722 496.781 248.702 496.688 248.701C496.594 248.7 496.501 248.717 496.415 248.753C496.329 248.788 496.252 248.841 496.187 248.908C496.122 248.974 496.072 249.053 496.04 249.14C495.773 249.84 495.99 250.356 496.69 250.69C506.83 255.516 517.513 258.283 528.74 258.99C529.16 259.016 529.393 258.82 529.44 258.4L529.48 258.08C529.491 257.973 529.481 257.866 529.45 257.764C529.419 257.662 529.367 257.567 529.299 257.486C529.231 257.405 529.147 257.338 529.053 257.291C528.958 257.243 528.855 257.216 528.75 257.21Z" stroke="#808080" stroke-width="2"/>
<path d="M70.5 477.09C70.5 476.902 70.4252 476.721 70.292 476.588C70.1589 476.455 69.9783 476.38 69.79 476.38H46.17C45.9817 476.38 45.8011 476.455 45.6679 476.588C45.5348 476.721 45.46 476.902 45.46 477.09V477.41C45.46 477.598 45.5348 477.779 45.6679 477.912C45.8011 478.045 45.9817 478.12 46.17 478.12H69.79C69.9783 478.12 70.1589 478.045 70.292 477.912C70.4252 477.779 70.5 477.598 70.5 477.41V477.09Z" stroke="#808080" stroke-width="2"/>
<path d="M541.61 159.39L541.34 156.69C541.3 156.277 541.086 156.143 540.7 156.29C532.86 159.203 526.643 157.337 522.05 150.69C521.776 150.297 521.533 150.317 521.32 150.75C518.8 155.857 518.623 161.107 520.79 166.5C525.48 178.21 539.4 173.2 545.13 165.5C545.316 165.253 545.433 164.98 545.48 164.68C545.98 161.43 548.08 159.83 547.89 156.49C547.884 156.378 547.846 156.27 547.78 156.179C547.714 156.088 547.623 156.018 547.518 155.978C547.413 155.938 547.299 155.929 547.189 155.952C547.079 155.976 546.979 156.03 546.9 156.11L543 159.9C542.889 160.008 542.75 160.083 542.598 160.116C542.447 160.148 542.289 160.137 542.144 160.084C541.998 160.03 541.871 159.937 541.776 159.814C541.682 159.691 541.624 159.544 541.61 159.39Z" stroke="#808080" stroke-width="2"/>
<path d="M459.68 244.62C463.63 247.97 463.75 254.25 459.3 257.52C459.014 257.726 458.694 257.81 458.34 257.77C456.387 257.543 454.86 258.23 453.76 259.83C453.52 260.17 453.58 260.446 453.94 260.66C456.33 262.07 461.02 261.72 463.49 261.54C472.46 260.91 477.01 254.67 472.84 245.65C471.794 243.39 470.27 240.87 468.27 238.09C468.064 237.803 467.794 237.71 467.46 237.81C464.094 238.836 461.457 240.823 459.55 243.77C459.344 244.09 459.387 244.373 459.68 244.62Z" stroke="#808080" stroke-width="2"/>
<path d="M444.174 244.58C444.324 244.408 444.398 244.183 444.382 243.956C444.366 243.728 444.26 243.516 444.087 243.367L428.018 229.447C427.846 229.298 427.621 229.223 427.393 229.24C427.166 229.256 426.954 229.362 426.805 229.534L426.766 229.58C426.616 229.752 426.542 229.977 426.558 230.204C426.574 230.432 426.68 230.643 426.853 230.793L442.922 244.712C443.094 244.862 443.319 244.937 443.547 244.92C443.774 244.904 443.986 244.798 444.135 244.625L444.174 244.58Z" stroke="#C0C0C0" stroke-width="2"/>
<path d="M509.16 428.03C509.134 434.87 509.114 441.76 509.1 448.7C509.09 454 507.55 457.45 503.22 460.08C501.9 460.88 500.157 461.28 497.99 461.28C492.89 461.273 488 461.29 483.32 461.33" stroke="#808080" stroke-width="2"/>
<path d="M483.32 461.33L467.649 461.3C467.323 461.3 467.153 461.46 467.14 461.78L467.03 465.22C467.023 465.546 467.18 465.74 467.5 465.8C470.14 466.32 471.57 468.233 471.79 471.54" stroke="#797979" stroke-width="2"/>
<path d="M471.79 471.54L472.35 475.85C472.397 476.197 472.597 476.37 472.95 476.37H517.04C517.149 476.37 517.253 476.327 517.33 476.25C517.407 476.173 517.45 476.069 517.45 475.96L517.47 466.75C517.47 466.411 517.571 466.074 517.76 465.78C518.253 465.033 518.503 464.44 518.51 464C518.763 447.807 518.75 431.5 518.47 415.08" stroke="#808080" stroke-width="2"/>
<path d="M518.47 415.08L517.61 319.67C517.597 318.23 517.363 318.193 516.91 319.56C514.81 325.953 512.583 332.593 510.23 339.48C509.537 341.493 509.187 343.563 509.18 345.69C509.087 373.096 509.08 400.543 509.16 428.03" stroke="#797979" stroke-width="2"/>
<path d="M518.47 415.08L511.57 426.53C511.423 426.777 511.21 426.867 510.93 426.8C510.497 426.687 509.907 427.097 509.16 428.03" stroke="#F8F8F8" stroke-width="2"/>
<path d="M471.79 471.54C476.223 468.653 480.067 465.25 483.32 461.33" stroke="#F8F8F8" stroke-width="2"/>
<path d="M500.14 369.66L486.44 410.59" stroke="#6F6F6F" stroke-width="2"/>
<path d="M486.44 410.59L470.97 456.1C470.916 456.249 470.82 456.379 470.694 456.475C470.568 456.571 470.417 456.628 470.26 456.64L467.96 456.81C467.506 456.843 467.28 457.087 467.28 457.54L467.27 459.23C467.27 459.563 467.436 459.73 467.77 459.73L487.22 459.72" stroke="#808080" stroke-width="2"/>
<path d="M487.22 459.72L499.77 459.63" stroke="#6F6F6F" stroke-width="2"/>
<path d="M499.77 459.63C505.57 458.23 507.51 454.34 507.52 448.42C507.546 415.266 507.553 382.01 507.54 348.65C507.54 347.976 507.433 347.96 507.22 348.6L500.14 369.66" stroke="#808080" stroke-width="2"/>
<path d="M499.77 459.63C499.303 458.096 499.65 457.103 500.81 456.65C501.11 456.53 501.26 456.31 501.26 455.99L501.25 370.7C501.25 370.333 501.083 370.076 500.75 369.93L500.14 369.66" stroke="#EEEEEE" stroke-width="2"/>
<path d="M487.22 459.72C487.54 443.607 487.28 427.23 486.44 410.59" stroke="#EEEEEE" stroke-width="2"/>
<path d="M380.1 395.73C395.85 393.91 408.43 405.04 413.9 418.87C419.147 432.17 418.513 445.613 412 459.2C411.86 459.493 411.953 459.64 412.28 459.64H424.05C424.443 459.64 424.64 459.443 424.64 459.05C424.627 450.93 424.627 442.803 424.64 434.67C424.66 427.003 424.197 421.423 423.25 417.93C419.53 404.24 407.56 392.36 392.98 390.05C381.69 388.26 368.66 389.29 358.65 396.23C358.317 396.463 358.353 396.567 358.76 396.54C365.94 396.18 372.9 396.56 380.1 395.73Z" stroke="#808080" stroke-width="2"/>
<path d="M400.91 471.45C399.477 473.337 397.457 474.663 394.85 475.43C392.697 476.056 392.744 476.37 394.99 476.37L425.01 476.36C425.344 476.36 425.544 476.196 425.61 475.87C428.53 462.6 440.39 460.05 452.08 462.51C452.152 462.525 452.226 462.523 452.298 462.506C452.369 462.489 452.435 462.456 452.493 462.41C452.55 462.365 452.596 462.307 452.629 462.241C452.661 462.175 452.679 462.103 452.68 462.03C452.694 461.576 452.467 461.35 452 461.35C438.034 461.256 423.797 461.237 409.29 461.29" stroke="#797979" stroke-width="2"/>
<path d="M409.29 461.29C417.37 446.356 418.1 431.52 411.48 416.78C409.746 412.926 407.27 409.393 404.05 406.18C386.13 388.3 361.37 398.8 353.75 420.23C348.12 436.08 350.58 455.1 362.47 467.35C372.51 477.68 387.57 479.53 399.63 471.06C399.903 470.866 400.206 470.8 400.54 470.86C401.026 470.946 401.15 471.143 400.91 471.45" stroke="#808080" stroke-width="2"/>
<path d="M409.29 461.29C407.737 464.723 404.943 468.11 400.91 471.45" stroke="#F8F8F8" stroke-width="2"/>
<path d="M520.83 463.12C524.183 460.74 527.91 459.367 532.01 459C532.317 458.967 532.48 458.797 532.5 458.49L532.74 454.29C532.753 453.977 532.603 453.817 532.29 453.81L520.94 453.61C520.633 453.603 520.477 453.753 520.47 454.06L520.23 462.79C520.21 463.303 520.41 463.413 520.83 463.12Z" stroke="#808080" stroke-width="2"/>
<path d="M453.98 458.1L454.65 467.04C454.653 467.073 454.662 467.105 454.677 467.134C454.692 467.163 454.712 467.19 454.737 467.211C454.763 467.232 454.792 467.249 454.823 467.259C454.854 467.269 454.888 467.272 454.92 467.27L455.08 467.26C456.497 467.153 457.899 467.032 459.205 466.903C460.512 466.774 461.696 466.639 462.691 466.507C463.687 466.375 464.473 466.248 465.004 466.134C465.536 466.019 465.803 465.919 465.79 465.84L465.18 457.62C465.177 457.54 464.894 457.481 464.349 457.448C463.803 457.414 463.006 457.407 462.002 457.425C460.998 457.444 459.807 457.488 458.497 457.556C457.188 457.624 455.785 457.713 454.37 457.82L454.21 457.83C454.177 457.832 454.145 457.841 454.116 457.856C454.087 457.871 454.061 457.892 454.039 457.917C454.018 457.942 454.002 457.971 453.991 458.002C453.981 458.034 453.978 458.067 453.98 458.1Z" stroke="#808080" stroke-width="2"/>
<path d="M203.469 461.76C215.669 481.18 241.729 481.28 253.769 461.75C253.976 461.417 253.883 461.25 253.489 461.25H203.759C203.353 461.25 203.256 461.42 203.469 461.76Z" stroke="#6F6F6F" stroke-width="2"/>
<path d="M252.68 466.02C248.15 471.46 244.29 473.29 239.33 476.02C238.89 476.26 238.92 476.38 239.42 476.38L265.1 476.34" stroke="#808080" stroke-width="2"/>
<path d="M265.1 476.34L355.17 476.37C355.194 476.374 355.218 476.368 355.238 476.354C355.257 476.34 355.271 476.319 355.275 476.295C355.279 476.271 355.273 476.247 355.259 476.227C355.245 476.207 355.224 476.194 355.2 476.19C347.393 473.497 341.293 468.64 336.9 461.62C336.746 461.373 336.523 461.25 336.23 461.25H256.52C256.39 461.25 256.262 461.281 256.147 461.34C256.032 461.399 255.934 461.485 255.86 461.59L252.68 466.02" stroke="#797979" stroke-width="2"/>
<path d="M265.1 476.34L252.68 466.02" stroke="#F8F8F8" stroke-width="2"/>
<path d="M339.57 370.49L340.94 370.3C341.274 370.253 341.447 370.06 341.46 369.72L341.55 367.57" stroke="#808080" stroke-width="2"/>
<path d="M341.55 367.57C351.356 356.057 362.843 349.867 376.01 349C377.51 348.907 380.843 348.833 386.01 348.78C391.54 348.73 394.25 346.06 394.26 340.5C394.286 322.333 394.253 304.163 394.16 285.99C394.13 280.48 389.9 278.99 384.89 278.85C362.756 278.243 340.62 277.603 318.48 276.93C315.533 276.843 313.1 277.173 311.18 277.92C306.653 279.68 303.286 282.553 301.08 286.54C299.706 289.033 298.546 293.977 297.6 301.37C294.126 328.53 290.593 355.69 287 382.85C286.073 389.857 285.533 396.487 285.38 402.74C285.14 412.867 285.096 423 285.25 433.14C285.37 440.74 286.55 446.38 293.47 449.56C295.556 450.513 298.826 450.993 303.28 451C309.98 451.013 316.683 451.003 323.39 450.97C329.17 450.95 331.71 448.08 331.71 442.21C331.71 431.97 331.723 421.733 331.75 411.5C331.776 399.84 331.896 393.18 332.11 391.52C333.05 384.193 335.536 377.183 339.57 370.49" stroke="#F8F8F8" stroke-width="2"/>
<path d="M341.55 367.57L341.52 298.49C341.52 298.38 341.482 298.273 341.412 298.189C341.343 298.105 341.247 298.049 341.14 298.03L340.56 297.93C340.154 297.863 339.95 298.033 339.95 298.44L339.96 368.28C339.96 368.707 339.747 368.92 339.32 368.92C325.587 369 311.854 369.007 298.12 368.94C297.794 368.94 297.57 369.017 297.45 369.17C297.29 369.37 297.28 369.65 297.42 370.01C297.527 370.31 297.74 370.46 298.06 370.46L339.57 370.49" stroke="#797979" stroke-width="2"/>
<path d="M325.75 382.47C325.75 382.37 325.731 382.271 325.693 382.179C325.654 382.087 325.598 382.003 325.528 381.933C325.457 381.862 325.373 381.806 325.281 381.768C325.189 381.73 325.09 381.71 324.99 381.71H324.95C324.851 381.71 324.752 381.73 324.66 381.768C324.567 381.806 324.484 381.862 324.413 381.933C324.342 382.003 324.286 382.087 324.248 382.179C324.21 382.271 324.19 382.37 324.19 382.47V396.07C324.19 396.272 324.27 396.465 324.413 396.607C324.556 396.75 324.749 396.83 324.95 396.83H324.99C325.192 396.83 325.385 396.75 325.528 396.607C325.67 396.465 325.75 396.272 325.75 396.07V382.47Z" stroke="#797979" stroke-width="2"/>
<path d="M416.62 293.58C416.62 293.397 416.547 293.221 416.417 293.092C416.288 292.962 416.113 292.89 415.93 292.89H415.71C415.527 292.89 415.351 292.962 415.222 293.092C415.092 293.221 415.02 293.397 415.02 293.58V335.62C415.02 335.803 415.092 335.978 415.222 336.108C415.351 336.237 415.527 336.31 415.71 336.31H415.93C416.113 336.31 416.288 336.237 416.417 336.108C416.547 335.978 416.62 335.803 416.62 335.62V293.58Z" stroke="#797979" stroke-width="2"/>
<path d="M630.704 395.526C630.994 394.547 630.883 393.493 630.396 392.596C629.908 391.698 629.085 391.031 628.106 390.741L604.538 383.76C604.053 383.617 603.545 383.57 603.042 383.623C602.539 383.675 602.052 383.827 601.607 384.068C601.163 384.309 600.771 384.636 600.452 385.029C600.134 385.422 599.897 385.873 599.753 386.358L597.237 394.853C596.947 395.832 597.057 396.886 597.545 397.784C598.032 398.681 598.856 399.348 599.835 399.638L623.402 406.619C623.887 406.763 624.395 406.81 624.898 406.757C625.401 406.704 625.889 406.553 626.333 406.311C626.777 406.07 627.17 405.744 627.488 405.351C627.806 404.958 628.044 404.506 628.187 404.021L630.704 395.526Z" stroke="#808080" stroke-width="2"/>
<path d="M612.46 421.74V421.27C612.46 420.763 612.717 420.51 613.23 420.51L620.3 420.5C620.66 420.5 620.844 420.317 620.85 419.95L620.89 414.07C620.89 413.69 620.7 413.5 620.32 413.5H572.01C571.69 413.5 571.53 413.66 571.53 413.98L571.54 420.02C571.54 420.34 571.7 420.5 572.02 420.5H603.37C603.777 420.5 603.984 420.707 603.99 421.12L604 421.64C604.007 422.073 603.794 422.29 603.36 422.29L572.05 422.28C571.797 422.28 571.66 422.407 571.64 422.66C571.12 430.58 573.49 437.11 578.75 442.25C595.33 458.46 622.3 445.65 620.74 422.75C620.72 422.443 620.554 422.29 620.24 422.29L612.99 422.28C612.637 422.28 612.46 422.1 612.46 421.74Z" stroke="#797979" stroke-width="2"/>
<path d="M383.34 453.12C386.902 453.12 390.318 451.397 392.837 448.331C395.355 445.265 396.77 441.106 396.77 436.77C396.77 432.434 395.355 428.275 392.837 425.209C390.318 422.142 386.902 420.42 383.34 420.42C379.778 420.42 376.362 422.142 373.844 425.209C371.325 428.275 369.91 432.434 369.91 436.77C369.91 441.106 371.325 445.265 373.844 448.331C376.362 451.397 379.778 453.12 383.34 453.12Z" stroke="#FFDB99" stroke-width="2"/>
<path d="M254.63 414.61C254.63 414.414 254.552 414.226 254.413 414.087C254.274 413.948 254.086 413.87 253.89 413.87H135.13C134.933 413.87 134.745 413.948 134.606 414.087C134.468 414.226 134.39 414.414 134.39 414.61V414.63C134.39 414.826 134.468 415.015 134.606 415.153C134.745 415.292 134.933 415.37 135.13 415.37H253.89C254.086 415.37 254.274 415.292 254.413 415.153C254.552 415.015 254.63 414.826 254.63 414.63V414.61Z" stroke="#808080" stroke-width="2"/>
<path d="M153.06 429.45C153.06 427.691 152.362 426.005 151.118 424.762C149.875 423.518 148.189 422.82 146.43 422.82H136.49C134.732 422.82 133.046 423.518 131.802 424.762C130.559 426.005 129.86 427.691 129.86 429.45V430.25C129.86 432.008 130.559 433.695 131.802 434.938C133.046 436.181 134.732 436.88 136.49 436.88H146.43C148.189 436.88 149.875 436.181 151.118 434.938C152.362 433.695 153.06 432.008 153.06 430.25V429.45Z" stroke="#EEEEEE" stroke-width="2"/>
<path d="M262.19 429.54C262.19 427.75 261.479 426.033 260.213 424.767C258.947 423.501 257.23 422.79 255.44 422.79H238.12C236.33 422.79 234.613 423.501 233.347 424.767C232.081 426.033 231.37 427.75 231.37 429.54V430.18C231.37 431.97 232.081 433.687 233.347 434.953C234.613 436.219 236.33 436.93 238.12 436.93H255.44C257.23 436.93 258.947 436.219 260.213 434.953C261.479 433.687 262.19 431.97 262.19 430.18V429.54Z" stroke="#EEEEEE" stroke-width="2"/>
<path d="M625.03 106.29C622.74 112.56 614.08 115.67 614.29 122.3C614.31 122.833 614.06 123.163 613.54 123.29C612.534 123.537 611.947 123.26 611.78 122.46C610.56 116.57 615.83 112.79 619.39 109.15C628.9 99.4199 615.74 88.4899 607.37 97.1899C606.904 97.6765 606.367 97.7765 605.76 97.4899C604.38 96.8399 604.34 95.4899 605.45 94.5499C614.75 86.5899 629.89 93.0099 625.03 106.29Z" fill="#8F8F8F"/>
<path d="M583.5 148.56C582.194 150.867 580.067 152.217 577.12 152.61C574.434 152.43 572.447 150.977 571.16 148.25C569.327 144.37 567.637 140.307 566.09 136.06C565.877 135.482 565.475 134.993 564.949 134.675C564.424 134.357 563.807 134.228 563.2 134.31L557.36 135.09C556.747 135.177 556.714 135.357 557.26 135.63C561.07 137.55 560.06 140.01 559.05 143.87C558.477 146.063 558.387 148.677 558.78 151.71C559.16 154.617 557.86 156.58 554.88 157.6C554.574 157.707 554.357 157.907 554.23 158.2C553.23 160.587 551.354 162.427 548.6 163.72C545.52 169.073 541.2 172.613 535.64 174.34C521.87 178.63 515.5 165.77 518.16 154.06L520.51 148.56C520.644 148.253 520.67 147.937 520.59 147.61C520.14 145.68 519.05 143.5 519.05 141.69C519.05 139.37 521.16 138.36 522.64 137.16C522.92 136.933 523.11 136.65 523.21 136.31C524.29 132.53 526.83 130.577 530.83 130.45C531.15 130.443 531.414 130.31 531.62 130.05C533.26 128.02 537.82 125.66 539.44 128.9C539.614 129.233 539.857 129.3 540.17 129.1C544.12 126.6 549.13 125.56 552.25 129.89C552.417 130.11 552.61 130.137 552.83 129.97C557.6 126.24 568.14 124.8 573.71 127.37C579.717 130.143 584.207 134.543 587.18 140.57C587.314 140.841 587.367 141.145 587.331 141.445C587.296 141.745 587.174 142.028 586.98 142.26C586.64 142.673 586.34 142.603 586.08 142.05C583.56 136.663 579.43 132.437 573.69 129.37C571.757 128.33 570.027 127.81 568.5 127.81C565.44 127.81 555.8 128.47 554.22 131.57C554.111 131.782 554.062 132.02 554.078 132.259C554.094 132.497 554.174 132.726 554.311 132.922C554.448 133.117 554.636 133.272 554.855 133.368C555.073 133.465 555.314 133.5 555.55 133.47L563.07 132.55C564.009 132.435 564.959 132.632 565.773 133.111C566.586 133.591 567.218 134.325 567.57 135.2C569.33 139.56 571.88 149.26 576.79 150.92C577.068 151.011 577.369 151 577.64 150.89L583.5 148.56ZM541.61 159.39L541.34 156.69C541.3 156.277 541.087 156.143 540.7 156.29C532.86 159.203 526.644 157.337 522.05 150.69C521.777 150.297 521.534 150.317 521.32 150.75C518.8 155.857 518.624 161.107 520.79 166.5C525.48 178.21 539.4 173.2 545.13 165.5C545.317 165.253 545.434 164.98 545.48 164.68C545.98 161.43 548.08 159.83 547.89 156.49C547.885 156.378 547.847 156.27 547.781 156.179C547.715 156.088 547.624 156.018 547.519 155.978C547.414 155.938 547.3 155.929 547.19 155.952C547.08 155.976 546.98 156.03 546.9 156.11L543 159.9C542.89 160.008 542.75 160.083 542.599 160.116C542.447 160.148 542.29 160.137 542.144 160.084C541.999 160.03 541.872 159.937 541.777 159.814C541.683 159.691 541.625 159.544 541.61 159.39Z" fill="black"/>
<path d="M612.58 135.34C614.038 135.34 615.22 134.158 615.22 132.7C615.22 131.242 614.038 130.06 612.58 130.06C611.122 130.06 609.94 131.242 609.94 132.7C609.94 134.158 611.122 135.34 612.58 135.34Z" fill="#8F8F8F"/>
<path d="M576.26 252.35C571.54 245.07 569.323 237.607 569.61 229.96C569.716 227.24 570.576 223.527 572.19 218.82C576.116 207.367 579.6 195.74 582.64 183.94L592.89 191.28L597.65 204.1C597.688 204.206 597.749 204.303 597.827 204.384C597.906 204.465 598.001 204.529 598.107 204.572C598.212 204.614 598.326 204.634 598.44 204.63C598.554 204.627 598.666 204.599 598.77 204.55C599.376 204.263 599.523 203.747 599.21 203C597.656 199.327 596.14 195.633 594.66 191.92C594.54 191.607 594.33 191.37 594.03 191.21L593.25 190.8L577.12 152.61C580.066 152.217 582.193 150.867 583.5 148.56C584.593 148.08 585.806 147.087 587.14 145.58C587.386 145.293 587.686 145.223 588.04 145.37C591.44 146.81 594.743 149.36 597.95 153.02C610.356 167.18 619.986 180.653 626.84 193.44C631.366 201.893 633.716 209.817 633.89 217.21C634.27 233.8 627.47 238.79 611.43 237.13C607.816 236.757 604.393 235.797 601.16 234.25C595.59 231.58 589.38 225.57 584.13 221.05C584.081 221.006 584.022 220.976 583.958 220.963C583.895 220.949 583.829 220.953 583.767 220.973C583.705 220.993 583.649 221.03 583.606 221.078C583.563 221.127 583.533 221.186 583.52 221.25L576.26 252.35Z" fill="#7B2BFF"/>
<path d="M503.41 151.47C504.3 158.69 504.53 167.77 506.68 173.74C511.65 187.5 525.41 192.13 538.47 195.38C551.43 198.61 556.71 195.55 560.54 183.07C561.8 178.97 562.493 174.713 562.62 170.3C562.953 169.96 563.347 169.853 563.8 169.98C563.974 170.031 564.126 170.139 564.232 170.286C564.337 170.433 564.389 170.611 564.38 170.79C563.92 180.35 560.83 197.23 549.03 198.25C543.41 198.74 537.11 196.81 530.79 194.98C519.47 191.69 509.46 186.22 505.16 174.8C502.74 168.37 502.49 158.51 501.47 150.69C501.45 150.542 501.489 150.392 501.578 150.271C501.667 150.15 501.801 150.067 501.95 150.04C502.683 149.9 503.17 150.377 503.41 151.47Z" fill="black"/>
<path d="M468.99 262.24C463.75 263.833 458.71 263.977 453.87 262.67C452.07 262.18 451.31 260.29 452.43 258.67C453.737 256.803 455.624 255.88 458.09 255.9C458.424 255.9 458.694 255.767 458.9 255.5C462.114 251.2 461.504 247.693 457.07 244.98C456.63 244.7 456.33 244.21 456.35 243.73C457.17 243.503 457.764 243.137 458.13 242.63C460.897 238.77 464.404 236.457 468.65 235.69L473.7 243.38C473.947 243.76 474.13 243.73 474.25 243.29L476.47 235.15C479.977 221.223 483.19 207.707 486.11 194.6C487.26 189.43 488.76 184.2 488.77 179C488.797 170.327 487.817 161.087 485.83 151.28C485.89 150.52 486.26 150.163 486.94 150.21C487.287 150.237 487.494 150.42 487.56 150.76C490.06 163.52 492.04 177.63 489.05 190C484.55 208.65 480.96 227.66 475.33 246C475.23 246.32 475.23 246.64 475.33 246.96C477.597 254.093 475.484 259.187 468.99 262.24ZM459.68 244.62C463.63 247.97 463.75 254.25 459.3 257.52C459.014 257.727 458.694 257.81 458.34 257.77C456.387 257.543 454.86 258.23 453.76 259.83C453.52 260.17 453.58 260.447 453.94 260.66C456.33 262.07 461.02 261.72 463.49 261.54C472.46 260.91 477.01 254.67 472.84 245.65C471.794 243.39 470.27 240.87 468.27 238.09C468.064 237.803 467.794 237.71 467.46 237.81C464.094 238.837 461.457 240.823 459.55 243.77C459.344 244.09 459.387 244.373 459.68 244.62Z" fill="black"/>
<path d="M541.61 159.39C541.624 159.544 541.682 159.691 541.776 159.814C541.871 159.937 541.998 160.03 542.144 160.084C542.289 160.137 542.447 160.148 542.598 160.116C542.75 160.083 542.889 160.008 543 159.9L546.9 156.11C546.979 156.03 547.079 155.976 547.189 155.952C547.299 155.929 547.413 155.938 547.518 155.978C547.623 156.018 547.714 156.088 547.78 156.179C547.846 156.27 547.884 156.378 547.89 156.49C548.08 159.83 545.98 161.43 545.48 164.68C545.433 164.98 545.316 165.253 545.13 165.5C539.4 173.2 525.48 178.21 520.79 166.5C518.623 161.107 518.8 155.857 521.32 150.75C521.533 150.317 521.776 150.297 522.05 150.69C526.643 157.337 532.86 159.203 540.7 156.29C541.086 156.143 541.3 156.277 541.34 156.69L541.61 159.39Z" fill="white"/>
<path d="M485.83 151.28C487.816 161.086 488.796 170.326 488.77 179C488.76 184.2 487.26 189.43 486.11 194.6C483.19 207.706 479.976 221.223 476.47 235.15C473.696 223.07 472.34 211.213 472.4 199.58C472.4 199.411 472.359 199.246 472.281 199.097C472.202 198.948 472.088 198.82 471.949 198.726C471.81 198.631 471.65 198.572 471.483 198.553C471.315 198.535 471.146 198.558 470.99 198.62L455.26 204.8C455.119 204.856 455.005 204.964 454.942 205.102C454.878 205.24 454.87 205.396 454.92 205.54C458.606 216.12 463.183 226.17 468.65 235.69C464.403 236.456 460.896 238.77 458.13 242.63C457.763 243.136 457.17 243.503 456.35 243.73C455.99 243.17 455.676 242.796 455.41 242.61C441.336 232.996 429.763 220.97 420.69 206.53C419.236 204.216 417.933 200.706 416.78 196C414.96 188.58 421.41 182.8 426.99 178.6C432.55 174.686 438.21 171.21 443.97 168.17C449.763 165.116 454.78 162.436 459.02 160.13C468.68 154.88 475.76 152.26 485.83 151.28Z" fill="#7B2BFF"/>
<path d="M503.41 151.47C508.39 151.857 513.307 152.72 518.16 154.06C515.5 165.77 521.87 178.63 535.64 174.34C541.2 172.614 545.52 169.074 548.6 163.72C553.887 165.474 558.56 167.667 562.62 170.3C562.493 174.714 561.8 178.97 560.54 183.07C556.71 195.55 551.43 198.61 538.47 195.38C525.41 192.13 511.65 187.5 506.68 173.74C504.53 167.77 504.3 158.69 503.41 151.47Z" fill="#7B2BFF"/>
<path d="M426.99 178.6C421.41 182.8 414.96 188.58 416.78 196C417.933 200.707 419.236 204.217 420.69 206.53C429.763 220.97 441.336 232.997 455.41 242.61C455.676 242.797 455.99 243.17 456.35 243.73C456.33 244.21 456.63 244.7 457.07 244.98C461.503 247.694 462.113 251.2 458.9 255.5C458.693 255.767 458.423 255.9 458.09 255.9C455.623 255.88 453.736 256.804 452.43 258.67C451.31 260.29 452.07 262.18 453.87 262.67C458.71 263.977 463.75 263.834 468.99 262.24L468.48 266.63C412.586 263.997 356.676 261.384 300.75 258.79C294.583 258.504 286.33 258.837 275.99 259.79C271.643 260.684 267.123 260.917 262.43 260.49C262.523 260.77 262.443 260.7 262.19 260.28C262.076 260.094 261.91 260.004 261.69 260.01L213.26 261.67C224.386 239.557 239.5 220.787 258.6 205.36C280.16 187.947 304.543 176.42 331.75 170.78C363.603 164.187 395.35 166.794 426.99 178.6ZM444.174 244.581C444.324 244.408 444.398 244.183 444.382 243.956C444.366 243.728 444.26 243.517 444.087 243.367L428.018 229.448C427.845 229.298 427.621 229.224 427.393 229.24C427.166 229.256 426.954 229.362 426.805 229.535L426.765 229.58C426.616 229.752 426.541 229.977 426.558 230.205C426.574 230.432 426.68 230.644 426.852 230.793L442.922 244.713C443.094 244.862 443.319 244.937 443.546 244.921C443.774 244.904 443.986 244.798 444.135 244.626L444.174 244.581Z" fill="#F1F1F1"/>
<path d="M643.52 217.92C643.16 199.99 634.47 184.77 624.44 170.59C624.351 170.464 624.294 170.318 624.275 170.166C624.256 170.014 624.275 169.861 624.33 169.72C624.544 169.173 624.854 168.973 625.26 169.12C625.474 169.193 625.697 169.39 625.93 169.71C636.11 183.78 645.06 199.88 645.27 217.67C645.273 217.936 645.18 218.194 645.007 218.396C644.834 218.598 644.594 218.731 644.33 218.77C644.064 218.81 643.85 218.726 643.69 218.52C643.584 218.386 643.527 218.186 643.52 217.92Z" fill="#8F8F8F"/>
<path d="M582.64 183.94C579.6 195.74 576.117 207.367 572.19 218.82C570.577 223.527 569.717 227.24 569.61 229.96C569.323 237.607 571.54 245.07 576.26 252.35L577.07 254.29C577.156 254.481 577.166 254.697 577.097 254.895C577.029 255.092 576.888 255.256 576.703 255.353C576.518 255.45 576.303 255.473 576.101 255.417C575.9 255.36 575.728 255.229 575.62 255.05C570.72 247.36 567.26 238.15 567.76 228.94C567.9 226.34 568.72 222.95 570.22 218.77C574.527 206.777 578.15 194.67 581.09 182.45C581.126 182.288 581.218 182.143 581.351 182.043C581.484 181.942 581.648 181.892 581.814 181.902C581.98 181.912 582.137 181.98 582.258 182.095C582.378 182.21 582.453 182.365 582.47 182.53L582.64 183.94Z" fill="black"/>
<path d="M593.25 190.8L594.03 191.21C594.33 191.37 594.54 191.606 594.66 191.92C596.14 195.633 597.656 199.326 599.21 203C599.523 203.746 599.376 204.263 598.77 204.55C598.666 204.599 598.554 204.626 598.44 204.63C598.326 204.634 598.212 204.614 598.107 204.572C598.001 204.529 597.906 204.465 597.828 204.384C597.749 204.303 597.688 204.206 597.65 204.1L592.89 191.28L593.25 190.8Z" fill="black"/>
<path d="M476.47 235.15L474.25 243.29C474.13 243.73 473.946 243.76 473.7 243.38L468.65 235.69C463.183 226.17 458.606 216.12 454.92 205.54C454.87 205.397 454.878 205.24 454.942 205.102C455.005 204.964 455.119 204.856 455.26 204.8L470.99 198.62C471.146 198.558 471.315 198.535 471.483 198.554C471.65 198.572 471.81 198.631 471.949 198.726C472.089 198.821 472.202 198.948 472.281 199.097C472.359 199.246 472.4 199.412 472.4 199.58C472.34 211.213 473.696 223.07 476.47 235.15Z" fill="#F1F1F1"/>
<path d="M559.8 217.64C559.903 217.662 559.994 217.723 560.052 217.811C560.11 217.899 560.131 218.007 560.11 218.11L557.09 232.33C556.534 234.942 554.997 237.233 552.816 238.699C550.635 240.166 547.989 240.688 545.46 240.15L545.24 240.1C542.713 239.562 540.51 238.009 539.115 235.783C537.72 233.558 537.247 230.841 537.8 228.23L540.82 214.01C540.832 213.959 540.854 213.91 540.884 213.868C540.915 213.825 540.953 213.788 540.998 213.761C541.042 213.733 541.092 213.714 541.144 213.705C541.196 213.697 541.249 213.698 541.3 213.71L559.8 217.64Z" fill="#FFB733"/>
<path d="M444.088 243.367L428.018 229.447C427.659 229.136 427.116 229.175 426.805 229.534L426.766 229.58C426.455 229.939 426.494 230.482 426.853 230.793L442.922 244.713C443.281 245.024 443.824 244.985 444.135 244.626L444.175 244.58C444.486 244.221 444.447 243.678 444.088 243.367Z" fill="#8F8F8F"/>
<path d="M459.3 257.52C463.75 254.25 463.63 247.97 459.68 244.62C459.387 244.373 459.344 244.09 459.55 243.77C461.457 240.823 464.094 238.836 467.46 237.81C467.794 237.71 468.064 237.803 468.27 238.09C470.27 240.87 471.794 243.39 472.84 245.65C477.01 254.67 472.46 260.91 463.49 261.54C461.02 261.72 456.33 262.07 453.94 260.66C453.58 260.446 453.52 260.17 453.76 259.83C454.86 258.23 456.387 257.543 458.34 257.77C458.694 257.81 459.014 257.726 459.3 257.52Z" fill="white"/>
<path d="M496.96 248.76C507.44 253.4 517.31 256.52 528.75 257.21C528.855 257.216 528.958 257.244 529.053 257.291C529.147 257.339 529.231 257.405 529.299 257.487C529.367 257.568 529.419 257.663 529.45 257.765C529.481 257.867 529.491 257.974 529.48 258.08L529.44 258.4C529.393 258.82 529.16 259.017 528.74 258.99C517.513 258.284 506.83 255.517 496.69 250.69C495.99 250.357 495.773 249.84 496.04 249.14C496.072 249.054 496.122 248.975 496.187 248.908C496.252 248.842 496.329 248.789 496.415 248.753C496.501 248.718 496.594 248.7 496.688 248.701C496.781 248.702 496.874 248.722 496.96 248.76Z" fill="black"/>
<path d="M468.48 266.63L468.67 267.52C468.737 267.84 468.927 268.047 469.24 268.14C470.04 268.373 470.333 269 470.12 270.02C464.367 297.853 460.7 325.19 459.12 352.03C459.1 352.376 458.927 352.603 458.6 352.71L458.04 352.9C457.46 352.053 457.29 350.936 457.53 349.55C457.603 349.136 457.427 348.93 457 348.93H436.84C436.68 348.89 436.61 348.79 436.63 348.63C438.263 333.683 440.483 318.823 443.29 304.05C443.98 300.44 444.08 296.54 444.57 292.81C444.623 292.436 444.46 292.266 444.08 292.3C440.51 292.63 433.74 293.8 430.65 291.71C430.363 291.516 430.263 291.253 430.35 290.92C430.797 289.227 431.733 288.233 433.16 287.94C436.227 287.32 437.673 285.293 437.5 281.86L465.27 282.78C465.643 282.793 465.863 282.616 465.93 282.25L468.38 268.7C468.44 268.347 468.293 268.163 467.94 268.15L450.13 267.34L442.03 266.95L420.96 266C381.293 264.033 341.157 262.14 300.55 260.32C293.13 259.99 290.23 263.61 289.22 270.82C288.273 277.64 287.32 284.456 286.36 291.27C286.337 291.428 286.256 291.572 286.131 291.672C286.007 291.772 285.849 291.822 285.69 291.81L285.26 291.78C284.94 291.753 284.8 291.576 284.84 291.25L286.62 278.27C286.673 277.876 286.503 277.687 286.11 277.7L260.25 278.55L246.61 278.94L237.43 279.49L214.74 280.12L141.18 282.61C140.78 282.623 140.55 282.83 140.49 283.23L124.32 395.28C124.26 395.667 124.427 395.857 124.82 395.85L133.53 395.77L155.85 395.8L165.53 395.9L178.19 395.91L270.1 395.94C270.182 395.941 270.262 395.912 270.324 395.859C270.387 395.805 270.428 395.731 270.44 395.65C274.76 364.363 279.103 333.06 283.47 301.74C283.57 301.04 283.913 300.813 284.5 301.06C284.638 301.121 284.753 301.226 284.827 301.36C284.901 301.493 284.93 301.648 284.91 301.8C280.857 331.28 276.8 360.773 272.74 390.28C272.073 395.087 271.743 399.92 271.75 404.78C271.757 419.1 271.753 433.42 271.74 447.74C271.74 450.773 272.12 453.05 272.88 454.57C275.84 460.49 281 459.72 288.03 459.75C305.25 459.816 322.487 459.77 339.74 459.61C340.093 459.603 340.27 459.426 340.27 459.08C340.303 451.12 340.31 443.16 340.29 435.2C340.263 427.233 340.71 421.47 341.63 417.91C346.19 400.28 361.87 388.34 380 387.92C386.44 387.767 390.863 387.96 393.27 388.5C411.52 392.62 426.21 407.73 426.2 427C426.193 437.733 426.197 448.47 426.21 459.21C426.21 459.556 426.383 459.73 426.73 459.73H429.37L445.14 459.74L452.15 459.73C452.477 459.73 452.64 459.566 452.64 459.24L452.65 457C452.65 456.58 452.857 456.353 453.27 456.32L468.85 454.98C469.257 454.947 469.527 454.737 469.66 454.35L516.95 314.02C516.964 313.98 516.968 313.938 516.964 313.897C516.959 313.855 516.945 313.815 516.923 313.78C516.901 313.744 516.872 313.714 516.836 313.692C516.801 313.669 516.761 313.655 516.72 313.65L511.58 312.93C511.488 312.919 511.403 312.878 511.337 312.812C511.272 312.747 511.231 312.662 511.22 312.57L511.13 311.72C511.118 311.629 511.128 311.537 511.16 311.451C511.192 311.365 511.244 311.287 511.313 311.226C511.382 311.164 511.464 311.119 511.554 311.096C511.644 311.072 511.739 311.07 511.83 311.09C516.117 312.09 520.427 312.226 524.76 311.5C525.12 311.44 525.343 311.586 525.43 311.94L525.57 312.51C525.697 313.003 525.503 313.273 524.99 313.32L519.81 313.8C519.577 313.826 519.46 313.956 519.46 314.19L520.61 451.21C520.61 451.603 520.81 451.807 521.21 451.82L537.68 452.16C538 452.167 538.197 452.013 538.27 451.7C545.143 422.88 551.967 394.053 558.74 365.22C562.37 349.79 567.2 333.99 571.1 318.24C575.293 301.3 576.76 284.153 575.5 266.8C575.491 266.688 575.523 266.576 575.588 266.483C575.654 266.39 575.75 266.322 575.86 266.29C576.353 266.15 576.743 266.243 577.03 266.57C577.21 266.79 577.317 267.126 577.35 267.58C578.503 285.313 576.887 302.903 572.5 320.35C568.69 335.17 564.19 350.19 560.73 364.73C556.59 382.11 552.513 399.327 548.5 416.38L539.78 453.2C539.724 453.436 539.587 453.646 539.391 453.792C539.196 453.938 538.955 454.011 538.71 454L535.12 453.84C534.733 453.82 534.53 454 534.51 454.38L534.29 458.69C534.27 459.036 534.42 459.277 534.74 459.41C541.9 462.36 544.86 468.42 546.15 475.85C546.21 476.19 546.41 476.36 546.75 476.36L570.39 476.37H620.46C620.569 476.37 620.673 476.326 620.75 476.247C620.827 476.168 620.87 476.061 620.87 475.95L620.88 463.84C620.88 463.513 621.037 463.3 621.35 463.2C621.577 463.133 621.81 463.12 622.05 463.16C622.437 463.18 622.63 463.383 622.63 463.77C622.583 467.703 622.59 471.71 622.65 475.79C622.657 476.177 622.85 476.37 623.23 476.37H651.32C651.62 476.37 651.767 476.52 651.76 476.82L651.74 477.6C651.727 477.947 651.547 478.12 651.2 478.12H83.6999C83.3132 478.12 83.1299 477.927 83.1499 477.54L83.2199 476.38H200.5C200.524 476.384 200.548 476.378 200.568 476.364C200.588 476.35 200.601 476.329 200.605 476.305C200.609 476.281 200.603 476.256 200.589 476.237C200.575 476.217 200.554 476.204 200.53 476.2C192.723 473.493 186.627 468.64 182.24 461.64C182.08 461.387 181.85 461.26 181.55 461.26C164.75 461.24 147.95 461.24 131.15 461.26C124.61 461.27 122.59 458.5 122.55 451.99C122.517 446.856 122.527 441.717 122.58 436.57C122.587 436.297 122.713 436.1 122.96 435.98C123.08 435.92 123.2 435.89 123.32 435.89C123.573 435.917 123.78 436.027 123.94 436.22C124.053 436.353 124.11 436.556 124.11 436.83C124.13 442.583 124.19 448.34 124.29 454.1C124.357 457.86 126.093 459.743 129.5 459.75C136.013 459.757 142.53 459.753 149.05 459.74L228.58 459.73L274.67 459.72C275.177 459.72 275.233 459.56 274.84 459.24C271.28 456.4 270.25 453.44 270.25 448.64C270.27 431.787 270.263 414.903 270.23 397.99C270.23 397.663 270.067 397.5 269.74 397.5H124.74C124.367 397.5 124.177 397.686 124.17 398.06C124.05 406.12 124.057 414.13 124.19 422.09C124.203 422.776 124.05 423.33 123.73 423.75C123.497 423.823 123.25 423.797 122.99 423.67C122.852 423.604 122.736 423.5 122.655 423.371C122.573 423.242 122.53 423.092 122.53 422.94C122.55 412.07 121.92 401.04 123.5 390.25C126.9 366.87 130.343 342.923 133.83 318.41C135.797 305.196 137.793 291.43 139.82 277.11C140.427 272.85 141.307 269.91 142.46 268.29C144.467 265.457 147.48 263.973 151.5 263.84C172.32 263.126 192.907 262.403 213.26 261.67L261.69 260.01C261.91 260.003 262.077 260.093 262.19 260.28C262.443 260.7 262.523 260.77 262.43 260.49C262.463 261.043 262.32 261.326 262 261.34C225.333 262.74 188.667 264.08 152 265.36C142.67 265.69 141.5 272.61 141.02 280.56C141 280.9 141.16 281.066 141.5 281.06L286.35 276.13C286.683 276.117 286.883 275.946 286.95 275.62C288.02 270.05 287.26 265.09 292.39 260.93C292.757 260.63 292.703 260.483 292.23 260.49C285.417 260.583 280.677 260.73 278.01 260.93C276.817 261.023 276.143 260.643 275.99 259.79C286.33 258.837 294.583 258.503 300.75 258.79C356.677 261.383 412.587 263.997 468.48 266.63ZM509.16 428.03C509.133 434.87 509.113 441.76 509.1 448.7C509.09 454 507.55 457.45 503.22 460.08C501.9 460.88 500.157 461.28 497.99 461.28C492.89 461.273 488 461.29 483.32 461.33L467.65 461.3C467.323 461.3 467.153 461.46 467.14 461.78L467.03 465.22C467.023 465.546 467.18 465.74 467.5 465.8C470.14 466.32 471.57 468.233 471.79 471.54L472.35 475.85C472.397 476.197 472.597 476.37 472.95 476.37H517.04C517.149 476.37 517.253 476.327 517.33 476.25C517.407 476.173 517.45 476.069 517.45 475.96L517.47 466.75C517.47 466.411 517.571 466.074 517.76 465.78C518.253 465.033 518.503 464.44 518.51 464C518.763 447.807 518.75 431.5 518.47 415.08L517.61 319.67C517.597 318.23 517.363 318.193 516.91 319.56C514.81 325.953 512.583 332.593 510.23 339.48C509.537 341.493 509.187 343.563 509.18 345.69C509.087 373.096 509.08 400.543 509.16 428.03ZM500.14 369.66L486.44 410.59L470.97 456.1C470.916 456.249 470.821 456.379 470.695 456.475C470.569 456.571 470.418 456.628 470.26 456.64L467.96 456.81C467.507 456.843 467.28 457.087 467.28 457.54L467.27 459.23C467.27 459.563 467.437 459.73 467.77 459.73L487.22 459.72L499.77 459.63C505.57 458.23 507.51 454.34 507.52 448.42C507.547 415.267 507.553 382.01 507.54 348.65C507.54 347.976 507.433 347.96 507.22 348.6L500.14 369.66ZM380.1 395.73C395.85 393.91 408.43 405.04 413.9 418.87C419.147 432.17 418.513 445.613 412 459.2C411.86 459.493 411.953 459.64 412.28 459.64H424.05C424.443 459.64 424.64 459.443 424.64 459.05C424.627 450.93 424.627 442.803 424.64 434.67C424.66 427.003 424.197 421.423 423.25 417.93C419.53 404.24 407.56 392.36 392.98 390.05C381.69 388.26 368.66 389.29 358.65 396.23C358.317 396.463 358.353 396.567 358.76 396.54C365.94 396.18 372.9 396.56 380.1 395.73ZM400.91 471.45C399.477 473.337 397.457 474.663 394.85 475.43C392.697 476.056 392.743 476.37 394.99 476.37L425.01 476.36C425.343 476.36 425.543 476.196 425.61 475.87C428.53 462.6 440.39 460.05 452.08 462.51C452.152 462.525 452.226 462.523 452.297 462.506C452.368 462.489 452.435 462.456 452.492 462.41C452.55 462.365 452.596 462.307 452.629 462.241C452.661 462.175 452.678 462.103 452.68 462.03C452.693 461.576 452.467 461.35 452 461.35C438.033 461.257 423.797 461.237 409.29 461.29C417.37 446.357 418.1 431.52 411.48 416.78C409.747 412.926 407.27 409.393 404.05 406.18C386.13 388.3 361.37 398.8 353.75 420.23C348.12 436.08 350.58 455.1 362.47 467.35C372.51 477.68 387.57 479.53 399.63 471.06C399.903 470.867 400.207 470.8 400.54 470.86C401.027 470.946 401.15 471.143 400.91 471.45ZM520.83 463.12C524.183 460.74 527.91 459.367 532.01 459C532.317 458.966 532.48 458.796 532.5 458.49L532.74 454.29C532.753 453.977 532.603 453.816 532.29 453.81L520.94 453.61C520.633 453.603 520.477 453.753 520.47 454.06L520.23 462.79C520.21 463.303 520.41 463.413 520.83 463.12ZM453.98 458.1L454.65 467.04C454.652 467.073 454.661 467.105 454.676 467.134C454.691 467.163 454.712 467.19 454.737 467.211C454.762 467.232 454.791 467.249 454.823 467.259C454.854 467.269 454.887 467.273 454.92 467.27L455.08 467.26C456.497 467.153 457.899 467.032 459.205 466.903C460.511 466.774 461.696 466.639 462.691 466.507C463.686 466.375 464.472 466.248 465.004 466.134C465.536 466.019 465.803 465.919 465.79 465.84L465.18 457.62C465.176 457.54 464.894 457.481 464.348 457.448C463.803 457.415 463.005 457.407 462.001 457.425C460.997 457.444 459.806 457.488 458.497 457.556C457.187 457.624 455.785 457.713 454.37 457.82L454.21 457.83C454.177 457.832 454.145 457.841 454.116 457.856C454.086 457.871 454.06 457.892 454.039 457.917C454.017 457.942 454.001 457.971 453.991 458.003C453.981 458.034 453.977 458.067 453.98 458.1ZM203.47 461.76C215.67 481.18 241.73 481.28 253.77 461.75C253.977 461.417 253.883 461.25 253.49 461.25H203.76C203.353 461.25 203.257 461.42 203.47 461.76ZM252.68 466.02C248.15 471.46 244.29 473.29 239.33 476.02C238.89 476.26 238.92 476.38 239.42 476.38L265.1 476.34L355.17 476.37C355.194 476.374 355.218 476.368 355.238 476.354C355.258 476.34 355.271 476.319 355.275 476.295C355.279 476.271 355.273 476.246 355.259 476.227C355.245 476.207 355.224 476.194 355.2 476.19C347.393 473.497 341.293 468.64 336.9 461.62C336.747 461.373 336.523 461.25 336.23 461.25H256.52C256.39 461.25 256.262 461.281 256.147 461.34C256.032 461.399 255.934 461.485 255.86 461.59L252.68 466.02Z" fill="black"/>
<path d="M275.99 259.79C276.144 260.643 276.817 261.023 278.01 260.93C280.677 260.73 285.417 260.583 292.23 260.49C292.704 260.483 292.757 260.63 292.39 260.93C287.26 265.09 288.02 270.05 286.95 275.62C286.884 275.947 286.684 276.117 286.35 276.13L141.5 281.06C141.16 281.067 141 280.9 141.02 280.56C141.5 272.61 142.67 265.69 152 265.36C188.667 264.08 225.334 262.74 262 261.34C262.32 261.327 262.464 261.043 262.43 260.49C267.124 260.917 271.644 260.683 275.99 259.79Z" fill="white"/>
<path d="M420.96 266C424.88 270.567 429.384 274.323 434.47 277.27C435.57 277.903 436.56 279.02 437.44 280.62L437.13 281.34C436.99 281.653 436.75 281.803 436.41 281.79C428.444 281.557 420.477 281.317 412.51 281.07C406.56 280.88 404.48 284.05 404.48 289.83C404.474 307.137 404.47 324.443 404.47 341.75C404.47 347.23 408.27 348.8 413.3 348.82C420.787 348.847 428.28 348.83 435.78 348.77C436.127 348.77 436.32 348.94 436.36 349.28L436.44 349.96L428.33 456.32C428.304 456.667 428.38 456.987 428.56 457.28C429.06 458.087 429.33 458.903 429.37 459.73H426.73C426.384 459.73 426.21 459.557 426.21 459.21C426.197 448.47 426.194 437.733 426.2 427C426.21 407.73 411.52 392.62 393.27 388.5C390.864 387.96 386.44 387.767 380 387.92C361.87 388.34 346.19 400.28 341.63 417.91C340.71 421.47 340.264 427.233 340.29 435.2C340.31 443.16 340.304 451.12 340.27 459.08C340.27 459.427 340.094 459.603 339.74 459.61C322.487 459.77 305.25 459.817 288.03 459.75C281 459.72 275.84 460.49 272.88 454.57C272.12 453.05 271.74 450.773 271.74 447.74C271.754 433.42 271.757 419.1 271.75 404.78C271.744 399.92 272.074 395.087 272.74 390.28C276.8 360.773 280.857 331.28 284.91 301.8C284.931 301.648 284.902 301.493 284.828 301.36C284.754 301.227 284.639 301.121 284.5 301.06C283.914 300.813 283.57 301.04 283.47 301.74C279.104 333.06 274.76 364.363 270.44 395.65C270.428 395.731 270.387 395.805 270.325 395.859C270.262 395.912 270.183 395.941 270.1 395.94L178.19 395.91L260.25 278.55L286.11 277.7C286.504 277.687 286.674 277.877 286.62 278.27L284.84 291.25C284.8 291.577 284.94 291.753 285.26 291.78L285.69 291.81C285.85 291.822 286.008 291.772 286.132 291.672C286.256 291.572 286.338 291.428 286.36 291.27C287.32 284.457 288.274 277.64 289.22 270.82C290.23 263.61 293.13 259.99 300.55 260.32C341.157 262.14 381.294 264.033 420.96 266ZM339.57 370.49L340.94 370.3C341.274 370.253 341.447 370.06 341.46 369.72L341.55 367.57C351.357 356.057 362.844 349.867 376.01 349C377.51 348.907 380.844 348.833 386.01 348.78C391.54 348.73 394.25 346.06 394.26 340.5C394.287 322.333 394.254 304.163 394.16 285.99C394.13 280.48 389.9 278.99 384.89 278.85C362.757 278.243 340.62 277.603 318.48 276.93C315.534 276.843 313.1 277.173 311.18 277.92C306.654 279.68 303.287 282.553 301.08 286.54C299.707 289.033 298.547 293.977 297.6 301.37C294.127 328.53 290.594 355.69 287 382.85C286.074 389.857 285.534 396.487 285.38 402.74C285.14 412.867 285.097 423 285.25 433.14C285.37 440.74 286.55 446.38 293.47 449.56C295.557 450.513 298.827 450.993 303.28 451C309.98 451.013 316.684 451.003 323.39 450.97C329.17 450.95 331.71 448.08 331.71 442.21C331.71 431.97 331.724 421.733 331.75 411.5C331.777 399.84 331.897 393.18 332.11 391.52C333.05 384.193 335.537 377.183 339.57 370.49Z" fill="white"/>
<path d="M420.96 266L442.03 266.95L448.16 278.01C448.347 278.343 448.53 278.34 448.71 278C450.443 274.593 450.917 271.04 450.13 267.34L467.94 268.15C468.293 268.163 468.44 268.347 468.38 268.7L465.93 282.25C465.863 282.617 465.643 282.793 465.27 282.78L437.5 281.86C437.4 281.693 437.38 281.28 437.44 280.62C436.56 279.02 435.57 277.903 434.47 277.27C429.383 274.323 424.88 270.567 420.96 266Z" fill="#DDDDDD"/>
<path d="M442.03 266.95L450.13 267.34C450.917 271.04 450.444 274.594 448.71 278C448.53 278.34 448.347 278.344 448.16 278.01L442.03 266.95Z" fill="white"/>
<path d="M341.55 367.57L341.52 298.49C341.52 298.38 341.481 298.273 341.412 298.189C341.342 298.105 341.246 298.049 341.14 298.03L340.56 297.93C340.153 297.863 339.95 298.033 339.95 298.44L339.96 368.28C339.96 368.707 339.746 368.92 339.32 368.92C325.586 369 311.853 369.007 298.12 368.94C297.793 368.94 297.57 369.017 297.45 369.17C297.29 369.37 297.28 369.65 297.42 370.01C297.526 370.31 297.74 370.46 298.06 370.46L339.57 370.49C335.536 377.183 333.05 384.193 332.11 391.52C331.896 393.18 331.776 399.84 331.75 411.5C331.723 421.733 331.71 431.97 331.71 442.21C331.71 448.08 329.17 450.95 323.39 450.97C316.683 451.003 309.98 451.013 303.28 451C298.826 450.993 295.556 450.513 293.47 449.56C286.55 446.38 285.37 440.74 285.25 433.14C285.096 423 285.14 412.867 285.38 402.74C285.533 396.487 286.073 389.857 287 382.85C290.593 355.69 294.126 328.53 297.6 301.37C298.546 293.977 299.706 289.033 301.08 286.54C303.286 282.553 306.653 279.68 311.18 277.92C313.1 277.173 315.533 276.843 318.48 276.93C340.62 277.603 362.757 278.243 384.89 278.85C389.9 278.99 394.13 280.48 394.16 285.99C394.253 304.163 394.286 322.333 394.26 340.5C394.25 346.06 391.54 348.73 386.01 348.78C380.843 348.833 377.51 348.907 376.01 349C362.843 349.867 351.356 356.057 341.55 367.57ZM325.75 382.47C325.75 382.37 325.73 382.271 325.692 382.179C325.654 382.087 325.598 382.003 325.527 381.933C325.457 381.862 325.373 381.806 325.281 381.768C325.188 381.73 325.09 381.71 324.99 381.71H324.95C324.85 381.71 324.751 381.73 324.659 381.768C324.567 381.806 324.483 381.862 324.412 381.933C324.342 382.003 324.286 382.087 324.248 382.179C324.209 382.271 324.19 382.37 324.19 382.47V396.07C324.19 396.272 324.27 396.465 324.412 396.607C324.555 396.75 324.748 396.83 324.95 396.83H324.99C325.191 396.83 325.385 396.75 325.527 396.607C325.67 396.465 325.75 396.272 325.75 396.07V382.47Z" fill="#F1F1F1"/>
<path d="M260.25 278.55L178.19 395.91L165.53 395.9L165.63 394.58C165.65 394.266 165.754 393.98 165.94 393.72L246.61 278.94L260.25 278.55Z" fill="#F1F1F1"/>
<path d="M246.61 278.94L165.94 393.72C165.753 393.98 165.65 394.267 165.63 394.58L165.53 395.9L155.85 395.8L237.43 279.49L246.61 278.94Z" fill="white"/>
<path d="M237.43 279.49L155.85 395.8L133.53 395.77L214.74 280.12L237.43 279.49Z" fill="#F1F1F1"/>
<path d="M214.74 280.12L133.53 395.77L124.82 395.85C124.426 395.857 124.26 395.667 124.32 395.28L140.49 283.23C140.55 282.83 140.78 282.623 141.18 282.61L214.74 280.12Z" fill="white"/>
<path d="M437.44 280.62C437.38 281.28 437.4 281.693 437.5 281.86C437.673 285.293 436.226 287.32 433.16 287.94C431.733 288.233 430.796 289.227 430.35 290.92C430.263 291.253 430.363 291.517 430.65 291.71C433.74 293.8 440.51 292.63 444.08 292.3C444.46 292.267 444.623 292.437 444.57 292.81C444.08 296.54 443.98 300.44 443.29 304.05C440.483 318.823 438.263 333.683 436.63 348.63C436.61 348.79 436.68 348.89 436.84 348.93C436.893 349.577 436.76 349.92 436.44 349.96L436.36 349.28C436.32 348.94 436.126 348.77 435.78 348.77C428.28 348.83 420.786 348.847 413.3 348.82C408.27 348.8 404.47 347.23 404.47 341.75C404.47 324.443 404.473 307.137 404.48 289.83C404.48 284.05 406.56 280.88 412.51 281.07C420.476 281.317 428.443 281.557 436.41 281.79C436.75 281.803 436.99 281.653 437.13 281.34L437.44 280.62ZM416.62 293.58C416.62 293.397 416.547 293.222 416.418 293.092C416.288 292.963 416.113 292.89 415.93 292.89H415.71C415.527 292.89 415.351 292.963 415.222 293.092C415.092 293.222 415.02 293.397 415.02 293.58V335.62C415.02 335.803 415.092 335.979 415.222 336.108C415.351 336.237 415.527 336.31 415.71 336.31H415.93C416.113 336.31 416.288 336.237 416.418 336.108C416.547 335.979 416.62 335.803 416.62 335.62V293.58Z" fill="#F1F1F1"/>
<path d="M415.93 292.89H415.71C415.328 292.89 415.02 293.199 415.02 293.58V335.62C415.02 336.001 415.328 336.31 415.71 336.31H415.93C416.311 336.31 416.62 336.001 416.62 335.62V293.58C416.62 293.199 416.311 292.89 415.93 292.89Z" fill="black"/>
<path d="M341.55 367.57L341.46 369.72C341.447 370.06 341.274 370.253 340.94 370.3L339.57 370.49L298.06 370.46C297.74 370.46 297.527 370.31 297.42 370.01C297.28 369.65 297.29 369.37 297.45 369.17C297.57 369.017 297.794 368.94 298.12 368.94C311.854 369.007 325.587 369 339.32 368.92C339.747 368.92 339.96 368.707 339.96 368.28L339.95 298.44C339.95 298.033 340.154 297.863 340.56 297.93L341.14 298.03C341.247 298.049 341.343 298.105 341.412 298.189C341.482 298.273 341.52 298.38 341.52 298.49L341.55 367.57Z" fill="black"/>
<path d="M518.47 415.08L511.57 426.53C511.423 426.777 511.21 426.867 510.93 426.8C510.497 426.687 509.907 427.097 509.16 428.03C509.08 400.544 509.087 373.097 509.18 345.69C509.187 343.564 509.537 341.494 510.23 339.48C512.583 332.594 514.81 325.954 516.91 319.56C517.363 318.194 517.597 318.23 517.61 319.67L518.47 415.08Z" fill="#F1F1F1"/>
<path d="M133.83 318.41C130.344 342.923 126.9 366.87 123.5 390.25C121.92 401.04 122.55 412.07 122.53 422.94C122.531 423.093 122.574 423.242 122.655 423.371C122.737 423.501 122.853 423.604 122.99 423.67C123.25 423.797 123.497 423.823 123.73 423.75L123.47 425.95C123.364 425.79 123.217 425.7 123.03 425.68C122.98 425.673 122.928 425.677 122.878 425.692C122.829 425.707 122.783 425.732 122.744 425.766C122.704 425.799 122.672 425.841 122.649 425.889C122.626 425.936 122.613 425.987 122.61 426.04L122.27 433.9C122.267 434 122.298 434.098 122.358 434.178C122.418 434.258 122.504 434.315 122.6 434.34C122.78 434.38 122.897 434.36 122.95 434.28C122.784 434.807 122.907 435.343 123.32 435.89C123.2 435.89 123.08 435.92 122.96 435.98C122.714 436.1 122.587 436.297 122.58 436.57C122.527 441.717 122.517 446.857 122.55 451.99C122.59 458.5 124.61 461.27 131.15 461.26C147.95 461.24 164.75 461.24 181.55 461.26C181.85 461.26 182.08 461.387 182.24 461.64C186.627 468.64 192.724 473.493 200.53 476.2C200.554 476.204 200.576 476.217 200.59 476.237C200.604 476.257 200.609 476.281 200.605 476.305C200.601 476.329 200.588 476.35 200.568 476.364C200.549 476.378 200.524 476.384 200.5 476.38H83.2204C81.9537 477.34 80.8738 477.3 79.9804 476.26C51.7704 443.36 49.8904 394.51 73.9004 358.92C88.0537 337.94 108.03 324.437 133.83 318.41Z" fill="#F1F1F1"/>
<path d="M631.59 390.49C627.53 388.63 623.487 387.28 619.46 386.44C619.382 386.423 619.308 386.388 619.246 386.338C619.183 386.288 619.133 386.224 619.099 386.152C619.065 386.079 619.049 386 619.05 385.919C619.052 385.839 619.073 385.761 619.11 385.69C619.883 384.243 619.68 383.023 618.5 382.03C618.274 381.836 617.984 381.726 617.68 381.72C615.953 381.687 615.01 382.537 614.85 384.27C614.844 384.346 614.821 384.419 614.783 384.485C614.745 384.551 614.693 384.608 614.63 384.652C614.567 384.696 614.495 384.725 614.419 384.739C614.343 384.752 614.265 384.749 614.19 384.73C611.55 383.997 608.92 383.237 606.3 382.45C598.26 380.03 597.41 387.14 595.8 393.52C593.67 401.97 602.28 402.12 608.42 404.08C608.747 404.187 608.863 404.403 608.77 404.73L606.88 411.09C606.824 411.273 606.712 411.433 606.561 411.546C606.41 411.66 606.227 411.721 606.04 411.72H584C583.687 411.72 583.53 411.563 583.53 411.25L583.54 401.96C583.54 401.56 583.727 401.283 584.1 401.13C592.16 397.84 593.28 387.14 585.41 382.89C585.057 382.703 584.877 382.81 584.87 383.21C584.84 385.88 585.45 389.51 583.77 391.49C582.19 393.33 579.24 393.29 577.49 391.57C575.79 389.92 576.43 385.54 576.32 383.22C576.3 382.873 576.137 382.783 575.83 382.95C567.96 387.24 569.16 397.91 577.24 401.2C577.58 401.34 577.75 401.593 577.75 401.96V411.23C577.75 411.55 577.59 411.71 577.27 411.71L570.3 411.74C569.96 411.74 569.79 411.91 569.79 412.25L569.78 426.15C562.187 424.277 555.093 421.02 548.5 416.38C552.513 399.327 556.59 382.11 560.73 364.73C564.19 350.19 568.69 335.17 572.5 320.35C574.02 320.403 575.523 320.387 577.01 320.3C592.38 319.38 607.34 324.61 617.91 335.08C633.243 350.253 637.803 368.723 631.59 390.49Z" fill="#F1F1F1"/>
<path d="M499.77 459.63C499.303 458.097 499.65 457.103 500.81 456.65C501.11 456.53 501.26 456.31 501.26 455.99L501.25 370.7C501.25 370.333 501.083 370.077 500.75 369.93L500.14 369.66L507.22 348.6C507.433 347.96 507.54 347.977 507.54 348.65C507.554 382.01 507.547 415.267 507.52 448.42C507.51 454.34 505.57 458.23 499.77 459.63Z" fill="white"/>
<path d="M458.04 352.9C457.734 360.06 457.2 367.26 456.44 374.5C456.4 374.894 456.61 375.2 457.07 375.42C456.69 375.374 456.387 375.42 456.16 375.56C455.974 375.68 455.864 375.924 455.83 376.29C454.05 399.497 452.217 422.45 450.33 445.15C447.997 449.817 446.267 454.68 445.14 459.74L429.37 459.73C429.33 458.904 429.06 458.087 428.56 457.28C428.38 456.987 428.304 456.667 428.33 456.32L436.44 349.96C436.76 349.92 436.894 349.577 436.84 348.93H457C457.427 348.93 457.604 349.137 457.53 349.55C457.29 350.937 457.46 352.054 458.04 352.9Z" fill="#DDDDDD"/>
<path d="M500.14 369.66L500.75 369.93C501.084 370.077 501.25 370.333 501.25 370.7L501.26 455.99C501.26 456.31 501.11 456.53 500.81 456.65C499.65 457.103 499.304 458.097 499.77 459.63L487.22 459.72C487.54 443.607 487.28 427.23 486.44 410.59L500.14 369.66Z" fill="#DDDDDD"/>
<path d="M457.07 375.42C457.497 375.613 457.677 376.143 457.61 377.01C455.603 402.203 453.597 427.4 451.59 452.6C451.563 452.907 451.403 453.107 451.11 453.2C450.617 453.347 450.267 453.263 450.06 452.95C449.927 452.763 449.88 452.46 449.92 452.04C450.093 449.953 450.23 447.656 450.33 445.15C452.217 422.45 454.05 399.497 455.83 376.29C455.863 375.923 455.973 375.68 456.16 375.56C456.387 375.42 456.69 375.373 457.07 375.42Z" fill="black"/>
<path d="M324.99 381.71H324.95C324.531 381.71 324.19 382.05 324.19 382.47V396.07C324.19 396.49 324.531 396.83 324.95 396.83H324.99C325.41 396.83 325.75 396.49 325.75 396.07V382.47C325.75 382.05 325.41 381.71 324.99 381.71Z" fill="black"/>
<path d="M631.59 390.49C631.884 391.304 632.15 392.194 632.39 393.16C633.13 396.04 630.02 404.38 629.51 405.51C626.94 411.16 618.13 406.92 613.91 405.66C613.517 405.547 613.264 405.684 613.15 406.07L611.7 410.98C611.56 411.46 611.737 411.7 612.23 411.7L621.98 411.74C622.407 411.74 622.62 411.954 622.62 412.38C622.667 425.794 622.59 439.16 622.39 452.48C622.384 452.92 621.974 453.084 621.16 452.97L620.88 435.74C620.874 435.114 620.694 435.06 620.34 435.58C619.89 436.25 619.55 437.45 619.23 437.94C610.79 451.02 593.96 455.99 581.09 446.39C577.464 443.684 574.337 440.01 571.71 435.37C571.597 435.17 571.54 435.184 571.54 435.41C571.527 446.297 571.524 457.31 571.53 468.45C571.53 468.69 571.484 468.87 571.39 468.99C571.27 469.15 571.104 469.264 570.89 469.33C570.71 469.33 570.527 469.284 570.34 469.19C570.2 469.124 570.081 469.019 569.998 468.888C569.915 468.757 569.871 468.605 569.87 468.45L569.78 426.15L569.79 412.25C569.79 411.91 569.96 411.74 570.3 411.74L577.27 411.71C577.59 411.71 577.75 411.55 577.75 411.23V401.96C577.75 401.594 577.58 401.34 577.24 401.2C569.16 397.91 567.96 387.24 575.83 382.95C576.137 382.784 576.3 382.874 576.32 383.22C576.43 385.54 575.79 389.92 577.49 391.57C579.24 393.29 582.19 393.33 583.77 391.49C585.45 389.51 584.84 385.88 584.87 383.21C584.877 382.81 585.057 382.704 585.41 382.89C593.28 387.14 592.16 397.84 584.1 401.13C583.727 401.284 583.54 401.56 583.54 401.96L583.53 411.25C583.53 411.564 583.687 411.72 584 411.72H606.04C606.227 411.721 606.41 411.66 606.561 411.547C606.713 411.433 606.824 411.273 606.88 411.09L608.77 404.73C608.864 404.404 608.747 404.187 608.42 404.08C602.28 402.12 593.67 401.97 595.8 393.52C597.41 387.14 598.26 380.03 606.3 382.45C608.92 383.237 611.55 383.997 614.19 384.73C614.265 384.75 614.343 384.753 614.419 384.739C614.496 384.726 614.568 384.696 614.63 384.652C614.693 384.608 614.746 384.551 614.784 384.485C614.822 384.419 614.844 384.346 614.85 384.27C615.01 382.537 615.954 381.687 617.68 381.72C617.984 381.727 618.274 381.836 618.5 382.03C619.68 383.024 619.884 384.244 619.11 385.69C619.073 385.761 619.053 385.84 619.051 385.92C619.049 386 619.065 386.079 619.099 386.152C619.133 386.225 619.183 386.288 619.246 386.338C619.309 386.388 619.382 386.423 619.46 386.44C623.487 387.28 627.53 388.63 631.59 390.49ZM630.704 395.527C630.994 394.548 630.883 393.493 630.396 392.596C629.909 391.699 629.085 391.032 628.106 390.742L604.538 383.761C604.053 383.617 603.545 383.57 603.042 383.623C602.539 383.676 602.052 383.827 601.607 384.069C601.163 384.31 600.771 384.636 600.453 385.029C600.134 385.422 599.897 385.874 599.753 386.359L597.237 394.854C596.947 395.833 597.058 396.887 597.545 397.784C598.032 398.682 598.856 399.349 599.835 399.639L623.402 406.62C623.887 406.763 624.396 406.81 624.898 406.757C625.401 406.704 625.889 406.553 626.333 406.312C626.777 406.071 627.17 405.744 627.488 405.351C627.806 404.958 628.044 404.507 628.187 404.022L630.704 395.527ZM612.46 421.74V421.27C612.46 420.764 612.717 420.51 613.23 420.51L620.3 420.5C620.66 420.5 620.844 420.317 620.85 419.95L620.89 414.07C620.89 413.69 620.7 413.5 620.32 413.5H572.01C571.69 413.5 571.53 413.66 571.53 413.98L571.54 420.02C571.54 420.34 571.7 420.5 572.02 420.5H603.37C603.777 420.5 603.984 420.707 603.99 421.12L604 421.64C604.007 422.074 603.794 422.29 603.36 422.29L572.05 422.28C571.797 422.28 571.66 422.407 571.64 422.66C571.12 430.58 573.49 437.11 578.75 442.25C595.33 458.46 622.3 445.65 620.74 422.75C620.72 422.444 620.554 422.29 620.24 422.29L612.99 422.28C612.637 422.28 612.46 422.1 612.46 421.74Z" fill="black"/>
<path d="M628.106 390.742L604.538 383.76C602.499 383.157 600.357 384.32 599.753 386.358L597.237 394.854C596.633 396.892 597.796 399.035 599.835 399.639L623.403 406.62C625.441 407.224 627.584 406.06 628.188 404.022L630.704 395.526C631.308 393.488 630.145 391.345 628.106 390.742Z" fill="white"/>
<path d="M413.9 418.87C408.43 405.04 395.85 393.91 380.1 395.73C372.9 396.56 365.94 396.18 358.76 396.54C358.353 396.567 358.317 396.463 358.65 396.23C368.66 389.29 381.69 388.26 392.98 390.05C407.56 392.36 419.53 404.24 423.25 417.93C424.197 421.423 424.66 427.003 424.64 434.67C424.627 442.803 424.627 450.93 424.64 459.05C424.64 459.443 424.443 459.64 424.05 459.64H412.28C411.953 459.64 411.86 459.493 412 459.2C418.513 445.613 419.147 432.17 413.9 418.87Z" fill="white"/>
<path d="M409.29 461.29C407.736 464.724 404.943 468.11 400.91 471.45C401.15 471.144 401.026 470.947 400.54 470.86C400.206 470.8 399.903 470.867 399.63 471.06C387.57 479.53 372.51 477.68 362.47 467.35C350.58 455.1 348.12 436.08 353.75 420.23C361.37 398.8 386.13 388.3 404.05 406.18C407.27 409.394 409.746 412.927 411.48 416.78C418.1 431.52 417.37 446.357 409.29 461.29ZM383.34 453.12C386.901 453.12 390.317 451.398 392.836 448.331C395.355 445.265 396.77 441.106 396.77 436.77C396.77 432.434 395.355 428.275 392.836 425.209C390.317 422.143 386.901 420.42 383.34 420.42C379.778 420.42 376.362 422.143 373.843 425.209C371.325 428.275 369.91 432.434 369.91 436.77C369.91 441.106 371.325 445.265 373.843 448.331C376.362 451.398 379.778 453.12 383.34 453.12Z" fill="white"/>
<path d="M228.58 459.73C226.67 453.46 223.45 448.34 216.25 448.31C198.076 448.257 179.896 448.243 161.71 448.27C154.49 448.28 150.78 453.09 149.05 459.74C142.53 459.753 136.013 459.757 129.5 459.75C126.093 459.743 124.356 457.86 124.29 454.1C124.19 448.34 124.13 442.583 124.11 436.83C124.11 436.557 124.053 436.353 123.94 436.22C123.78 436.027 123.573 435.917 123.32 435.89C122.906 435.343 122.783 434.807 122.95 434.28C123.57 433.833 123.876 433.323 123.87 432.75C123.856 431.21 123.723 428.943 123.47 425.95L123.73 423.75C124.05 423.33 124.203 422.777 124.19 422.09C124.056 414.13 124.05 406.12 124.17 398.06C124.176 397.687 124.366 397.5 124.74 397.5H269.74C270.066 397.5 270.23 397.663 270.23 397.99C270.263 414.903 270.27 431.787 270.25 448.64C270.25 453.44 271.28 456.4 274.84 459.24C275.233 459.56 275.176 459.72 274.67 459.72L228.58 459.73ZM254.63 414.61C254.63 414.414 254.552 414.226 254.413 414.087C254.274 413.948 254.086 413.87 253.89 413.87H135.13C134.934 413.87 134.745 413.948 134.607 414.087C134.468 414.226 134.39 414.414 134.39 414.61V414.63C134.39 414.826 134.468 415.014 134.607 415.153C134.745 415.292 134.934 415.37 135.13 415.37H253.89C254.086 415.37 254.274 415.292 254.413 415.153C254.552 415.014 254.63 414.826 254.63 414.63V414.61ZM153.06 429.45C153.06 427.692 152.361 426.005 151.118 424.762C149.875 423.519 148.188 422.82 146.43 422.82H136.49C134.731 422.82 133.045 423.519 131.802 424.762C130.558 426.005 129.86 427.692 129.86 429.45V430.25C129.86 432.008 130.558 433.695 131.802 434.938C133.045 436.181 134.731 436.88 136.49 436.88H146.43C148.188 436.88 149.875 436.181 151.118 434.938C152.361 433.695 153.06 432.008 153.06 430.25V429.45ZM262.19 429.54C262.19 427.75 261.479 426.033 260.213 424.767C258.947 423.501 257.23 422.79 255.44 422.79H238.12C236.33 422.79 234.613 423.501 233.347 424.767C232.081 426.033 231.37 427.75 231.37 429.54V430.18C231.37 431.97 232.081 433.687 233.347 434.953C234.613 436.219 236.33 436.93 238.12 436.93H255.44C257.23 436.93 258.947 436.219 260.213 434.953C261.479 433.687 262.19 431.97 262.19 430.18V429.54Z" fill="white"/>
<path d="M486.44 410.59C487.28 427.23 487.54 443.607 487.22 459.72L467.77 459.73C467.436 459.73 467.27 459.563 467.27 459.23L467.28 457.54C467.28 457.087 467.506 456.843 467.96 456.81L470.26 456.64C470.417 456.628 470.568 456.571 470.694 456.475C470.82 456.379 470.916 456.249 470.97 456.1L486.44 410.59Z" fill="white"/>
<path d="M612.99 422.28L620.24 422.29C620.554 422.29 620.72 422.443 620.74 422.75C622.3 445.65 595.33 458.46 578.75 442.25C573.49 437.11 571.12 430.58 571.64 422.66C571.66 422.407 571.797 422.28 572.05 422.28L603.36 422.29C603.794 422.29 604.007 422.073 604 421.64L603.99 421.12C603.984 420.707 603.777 420.5 603.37 420.5H572.02C571.7 420.5 571.54 420.34 571.54 420.02L571.53 413.98C571.53 413.66 571.69 413.5 572.01 413.5H620.32C620.7 413.5 620.89 413.69 620.89 414.07L620.85 419.95C620.844 420.317 620.66 420.5 620.3 420.5L613.23 420.51C612.717 420.51 612.46 420.763 612.46 421.27V421.74C612.46 422.1 612.637 422.28 612.99 422.28Z" fill="#F1F1F1"/>
<path d="M253.89 413.87H135.13C134.721 413.87 134.39 414.201 134.39 414.61V414.63C134.39 415.039 134.721 415.37 135.13 415.37H253.89C254.298 415.37 254.63 415.039 254.63 414.63V414.61C254.63 414.201 254.298 413.87 253.89 413.87Z" fill="black"/>
<path d="M518.47 415.08C518.75 431.5 518.763 447.807 518.51 464C518.503 464.44 518.253 465.033 517.76 465.78C517.571 466.074 517.47 466.411 517.47 466.75L517.45 475.96C517.45 476.069 517.407 476.173 517.33 476.25C517.253 476.327 517.149 476.37 517.04 476.37H472.95C472.597 476.37 472.397 476.197 472.35 475.85L471.79 471.54C476.223 468.653 480.067 465.25 483.32 461.33C488 461.29 492.89 461.273 497.99 461.28C500.157 461.28 501.9 460.88 503.22 460.08C507.55 457.45 509.09 454 509.1 448.7C509.113 441.76 509.133 434.87 509.16 428.03C509.907 427.097 510.497 426.687 510.93 426.8C511.21 426.867 511.423 426.777 511.57 426.53L518.47 415.08Z" fill="white"/>
<path d="M548.5 416.38C555.093 421.02 562.187 424.277 569.78 426.15L569.87 468.45C569.87 468.605 569.914 468.757 569.998 468.888C570.081 469.019 570.2 469.124 570.34 469.19C570.527 469.283 570.71 469.33 570.89 469.33L570.39 476.37L546.75 476.36C546.41 476.36 546.21 476.19 546.15 475.85C544.86 468.42 541.9 462.36 534.74 459.41C534.42 459.277 534.27 459.037 534.29 458.69L534.51 454.38C534.53 454 534.733 453.82 535.12 453.84L538.71 454C538.955 454.012 539.196 453.938 539.391 453.792C539.587 453.646 539.724 453.436 539.78 453.2L548.5 416.38Z" fill="white"/>
<path d="M369.91 436.77C369.91 445.8 375.922 453.12 383.34 453.12C390.757 453.12 396.77 445.8 396.77 436.77C396.77 427.74 390.757 420.42 383.34 420.42C375.922 420.42 369.91 427.74 369.91 436.77Z" fill="#FFB733"/>
<path d="M146.43 422.82H136.49C132.829 422.82 129.86 425.788 129.86 429.45V430.25C129.86 433.911 132.829 436.88 136.49 436.88H146.43C150.092 436.88 153.06 433.911 153.06 430.25V429.45C153.06 425.788 150.092 422.82 146.43 422.82Z" fill="#DDDDDD"/>
<path d="M255.44 422.79H238.12C234.392 422.79 231.37 425.812 231.37 429.54V430.18C231.37 433.908 234.392 436.93 238.12 436.93H255.44C259.168 436.93 262.19 433.908 262.19 430.18V429.54C262.19 425.812 259.168 422.79 255.44 422.79Z" fill="#DDDDDD"/>
<path d="M123.47 425.95C123.723 428.943 123.856 431.21 123.87 432.75C123.876 433.323 123.57 433.833 122.95 434.28C122.896 434.36 122.78 434.38 122.6 434.34C122.503 434.315 122.418 434.258 122.358 434.178C122.298 434.098 122.267 434 122.27 433.9L122.61 426.04C122.612 425.987 122.625 425.936 122.648 425.889C122.671 425.841 122.703 425.799 122.743 425.766C122.782 425.732 122.828 425.707 122.878 425.692C122.927 425.677 122.979 425.673 123.03 425.68C123.216 425.7 123.363 425.79 123.47 425.95Z" fill="#DDDDDD"/>
<path d="M621.16 452.97C621.9 455.843 621.993 459.02 621.44 462.5C621.393 462.793 621.596 463.013 622.05 463.16C621.81 463.12 621.576 463.133 621.35 463.2C621.036 463.3 620.88 463.513 620.88 463.84L620.87 475.95C620.87 476.061 620.826 476.168 620.75 476.247C620.673 476.326 620.568 476.37 620.46 476.37H570.39L570.89 469.33C571.103 469.263 571.27 469.15 571.39 468.99C571.483 468.87 571.53 468.69 571.53 468.45C571.523 457.31 571.526 446.296 571.54 435.41C571.54 435.183 571.596 435.17 571.71 435.37C574.336 440.01 577.463 443.683 581.09 446.39C593.96 455.99 610.79 451.02 619.23 437.94C619.55 437.45 619.89 436.25 620.34 435.58C620.693 435.06 620.873 435.113 620.88 435.74L621.16 452.97Z" fill="#F1F1F1"/>
<path d="M228.58 459.73L149.05 459.74C150.78 453.09 154.49 448.28 161.71 448.27C179.896 448.244 198.076 448.257 216.25 448.31C223.45 448.34 226.67 453.46 228.58 459.73Z" fill="#7B2BFF"/>
<path d="M520.83 463.12C520.41 463.413 520.21 463.303 520.23 462.79L520.47 454.06C520.477 453.753 520.633 453.603 520.94 453.61L532.29 453.81C532.603 453.817 532.753 453.977 532.74 454.29L532.5 458.49C532.48 458.797 532.317 458.967 532.01 459C527.91 459.367 524.183 460.74 520.83 463.12Z" fill="white"/>
<path d="M453.98 458.1C453.978 458.067 453.981 458.034 453.991 458.002C454.002 457.971 454.018 457.942 454.039 457.917C454.061 457.892 454.087 457.871 454.116 457.856C454.145 457.841 454.177 457.832 454.21 457.83L454.37 457.82C455.785 457.713 457.188 457.624 458.497 457.556C459.807 457.488 460.998 457.444 462.002 457.425C463.006 457.407 463.803 457.414 464.349 457.448C464.894 457.481 465.177 457.54 465.18 457.62L465.79 465.84C465.803 465.919 465.536 466.019 465.004 466.134C464.473 466.248 463.687 466.375 462.691 466.507C461.696 466.639 460.512 466.774 459.205 466.903C457.899 467.032 456.497 467.153 455.08 467.26L454.92 467.27C454.888 467.272 454.854 467.269 454.823 467.259C454.792 467.249 454.763 467.232 454.737 467.211C454.712 467.19 454.692 467.163 454.677 467.134C454.662 467.105 454.653 467.073 454.65 467.04L453.98 458.1Z" fill="white"/>
<path d="M253.77 461.75C241.73 481.28 215.67 481.18 203.47 461.76C203.257 461.42 203.354 461.25 203.76 461.25H253.49C253.884 461.25 253.977 461.417 253.77 461.75Z" fill="#DDDDDD"/>
<path d="M265.1 476.34L252.68 466.02L255.86 461.59C255.934 461.485 256.032 461.399 256.147 461.34C256.262 461.281 256.39 461.25 256.52 461.25H336.23C336.523 461.25 336.746 461.373 336.9 461.62C341.293 468.64 347.393 473.497 355.2 476.19C355.224 476.194 355.245 476.207 355.259 476.227C355.273 476.247 355.279 476.271 355.275 476.295C355.271 476.319 355.257 476.34 355.238 476.354C355.218 476.368 355.194 476.374 355.17 476.37L265.1 476.34Z" fill="#F1F1F1"/>
<path d="M409.29 461.29C423.797 461.237 438.034 461.256 452 461.35C452.467 461.35 452.694 461.576 452.68 462.03C452.679 462.103 452.661 462.175 452.629 462.241C452.596 462.307 452.55 462.365 452.493 462.41C452.435 462.456 452.369 462.489 452.298 462.506C452.226 462.523 452.152 462.525 452.08 462.51C440.39 460.05 428.53 462.6 425.61 475.87C425.544 476.196 425.344 476.36 425.01 476.36L394.99 476.37C392.744 476.37 392.697 476.056 394.85 475.43C397.457 474.663 399.477 473.337 400.91 471.45C404.944 468.11 407.737 464.723 409.29 461.29Z" fill="#F1F1F1"/>
<path d="M483.32 461.33C480.066 465.25 476.223 468.653 471.79 471.54C471.57 468.233 470.14 466.32 467.5 465.8C467.18 465.74 467.023 465.546 467.03 465.22L467.14 461.78C467.153 461.46 467.323 461.3 467.649 461.3L483.32 461.33Z" fill="#F1F1F1"/>
<path d="M252.68 466.02L265.1 476.34L239.42 476.38C238.92 476.38 238.89 476.26 239.33 476.02C244.29 473.29 248.15 471.46 252.68 466.02Z" fill="white"/>
<path d="M69.79 476.38H46.17C45.7778 476.38 45.46 476.698 45.46 477.09V477.41C45.46 477.802 45.7778 478.12 46.17 478.12H69.79C70.1821 478.12 70.5 477.802 70.5 477.41V477.09C70.5 476.698 70.1821 476.38 69.79 476.38Z" fill="black"/>
</g>
<defs>
<clipPath id="clip0_246_24328">
<rect width="747" height="531" fill="white"/>
</clipPath>
</defs>
</svg>
