<svg width="33" height="130" viewBox="0 0 33 130" fill="none" xmlns="http://www.w3.org/2000/svg">
<path d="M16 1L16 129" stroke="#BDBDBD" stroke-width="2" stroke-linecap="round" stroke-linejoin="round" stroke-dasharray="8 8"/>
<rect x="1.66992" y="47.6702" width="28.3955" height="28.3955" fill="white"/>
<path d="M25.6813 46H6.89009C2.44703 46 0 48.447 0 52.8901V71.6813C0 76.1243 2.44703 78.5714 6.89009 78.5714H25.6813C30.1243 78.5714 32.5714 76.1243 32.5714 71.6813V52.8901C32.5714 48.447 30.1243 46 25.6813 46ZM30.0659 71.6813C30.0659 74.7547 28.7547 76.0659 25.6813 76.0659H6.89009C3.81669 76.0659 2.50549 74.7547 2.50549 71.6813V52.8901C2.50549 49.8167 3.81669 48.5055 6.89009 48.5055H25.6813C28.7547 48.5055 30.0659 49.8167 30.0659 52.8901V71.6813ZM24.1227 62.7652C24.0592 62.9189 23.9676 63.0574 23.8523 63.1726L18.8413 68.1836C18.5975 68.4275 18.2767 68.551 17.956 68.551C17.6353 68.551 17.3146 68.4291 17.0707 68.1836C16.5813 67.6942 16.5813 66.9007 17.0707 66.4113L19.9436 63.5384H9.60437C8.91286 63.5384 8.35163 62.9772 8.35163 62.2857C8.35163 61.5942 8.91286 61.0329 9.60437 61.0329H19.942L17.0691 58.16C16.5796 57.6706 16.5796 56.8772 17.0691 56.3877C17.5585 55.8983 18.3519 55.8983 18.8413 56.3877L23.8523 61.3987C23.9676 61.514 24.0592 61.6524 24.1227 61.8061C24.2496 62.1135 24.2496 62.4579 24.1227 62.7652Z" fill="#BDBDBD"/>
</svg>
