<svg width="35" height="50" viewBox="0 0 35 50" fill="none" xmlns="http://www.w3.org/2000/svg">
<path d="M32.1816 34.5805H2.47461C4.61758 33.3414 5.01875 30.4113 5.21172 28.1871C5.53164 24.5766 5.33359 20.9305 5.39961 17.3098C5.50117 11.5969 5.60781 4.3047 11.4527 1.33399C13.7531 0.166026 16.2922 0.0746197 18.816 0.18126C20.4766 0.247276 22.1625 0.734776 23.6047 1.55235C25.8949 2.85235 27.4336 5.0461 28.2055 7.53439C28.8148 9.49454 28.9773 11.5817 29.1094 13.6231C29.2516 15.827 29.2719 18.041 29.2719 20.25C29.2719 22.332 29.2414 24.4191 29.3328 26.5063C29.4039 28.1465 29.5258 29.8223 29.993 31.4067C30.1707 32.016 30.4094 32.6152 30.7445 33.1535H30.7496C31.0949 33.7274 31.5926 34.2453 32.1816 34.5805Z" fill="#242A62"/>
<path d="M33.5727 44.5029C28.2509 47.7428 22.8934 49.3525 17.5005 49.3729C12.1075 49.3525 6.75009 47.7428 1.42821 44.5029C0.717274 44.0611 0.321182 43.2588 0.417666 42.426C0.620791 40.8162 0.925479 38.3229 0.925479 38.3229C1.10829 36.8299 1.87509 35.4486 3.07353 34.5803C3.28681 34.4229 3.51532 34.2857 3.75399 34.1639L11.7419 30.1572H23.2591L31.247 34.1639C31.4856 34.2857 31.7142 34.4229 31.9274 34.5803C33.1259 35.4486 33.8927 36.8299 34.0755 38.3229C34.0755 38.3229 34.3802 40.8162 34.5833 42.426C34.6798 43.2588 34.2837 44.0611 33.5727 44.5029Z" fill="#F05FA1"/>
<path d="M21.4006 27.3085L21.3955 27.3136C21.3498 27.1612 21.3041 27.0089 21.2686 26.8667C21.3092 27.0089 21.3549 27.1562 21.4006 27.3085Z" fill="#242A62"/>
<path d="M18.7449 0.176279H18.3438C18.3438 0.176279 18.2523 0.171201 18.0898 0.166123C18.2473 0.161045 18.4707 0.161045 18.7449 0.176279Z" fill="#242A62"/>
<path d="M17.4297 0.17627C15.7234 0.25752 14.0172 0.719629 12.5344 1.57275C10.1578 2.93877 8.60898 5.26455 7.87266 7.87471C7.20234 10.2614 7.08555 12.8259 6.98398 15.2888C6.33398 15.7458 6.74023 17.061 6.92305 17.6501C6.8875 20.7376 6.98398 23.8353 6.82149 26.9228C6.70977 29.0759 6.54727 31.5946 5.25234 33.4126C4.52617 33.7782 3.72891 34.0981 3.07383 34.5806H2.47461C4.95273 33.1485 5.16602 29.4974 5.29805 26.9735C5.52149 22.7739 5.27773 18.5591 5.50117 14.3595C5.69414 10.7743 5.98359 6.88447 8.27383 3.94424C9.65508 2.17197 11.6355 0.993848 13.809 0.475879C15.0176 0.186426 16.2008 0.17627 17.4297 0.17627Z" fill="#2D387A"/>
<path d="M27.875 17.1167C27.6718 18.0765 27.2453 19.0362 26.4379 19.6354C26.1636 19.8386 25.8539 19.9198 25.5644 20.0874C25.2445 20.2702 25.1836 20.712 25.0363 21.0522C24.1679 23.0987 22.9441 25.1046 21.1719 26.4909C21.5019 27.8112 22.0148 29.421 23.259 30.1573C23.259 32.7421 21.8574 35.5351 19.3843 36.5558C17.089 37.5003 14.5906 36.5253 13.1687 34.5855C12.2445 33.3261 11.7418 31.7214 11.7418 30.1573C12.8996 29.4667 13.4683 27.9534 13.773 26.7093C11.3711 24.9929 9.96951 22.078 9.25857 20.1534C8.07536 19.6507 7.31872 18.9499 6.92263 17.6804C6.73474 17.0812 6.49099 16.2179 6.7449 15.6034C7.09021 14.7757 8.14646 15.3698 8.68474 15.6339C8.84724 13.303 9.65974 11.0229 11.4676 9.46904C12.5847 8.50928 13.9761 7.88467 15.4183 7.60029C15.7179 7.54443 16.0226 7.49365 16.3273 7.47842L17.3328 5.10693C17.6679 5.89912 18.0031 6.68623 18.3383 7.47842C19.5875 7.54951 20.8265 7.98623 21.9183 8.58037C24.4574 10.1089 25.8183 12.6835 25.9758 15.6339C26.4023 15.3901 27.1793 14.9585 27.6668 15.2886C28.1847 15.639 27.9816 16.619 27.875 17.1167Z" fill="#FDDFCC"/>
<path d="M21.4004 27.3088L21.3953 27.3139C21.3191 27.3748 21.2531 27.4459 21.1719 27.5068C20.4457 28.0807 19.618 28.5428 18.6887 28.8271C17.8051 29.0963 16.8453 29.0963 15.9617 28.8271C15.1543 28.5783 14.4281 28.1975 13.773 27.7252C13.6867 27.6643 13.6105 27.5932 13.5293 27.5271C13.6258 27.2377 13.7121 26.9584 13.773 26.7096C14.4281 27.1818 15.1543 27.5627 15.9617 27.8115C16.8453 28.0807 17.8051 28.0807 18.6887 27.8115C19.5418 27.5475 20.3137 27.1361 20.9941 26.6232C21.0551 26.5826 21.116 26.5369 21.1719 26.4912L21.2125 26.6537C21.2277 26.7197 21.248 26.7908 21.2684 26.867C21.309 27.0092 21.3547 27.1564 21.4004 27.3088Z" fill="#FFBFB6"/>
<path d="M27.8752 17.1169C27.6975 17.9446 27.3623 18.7673 26.7529 19.3665C26.3518 19.7626 25.8846 19.9302 25.3869 20.1638C24.4779 22.6317 23.051 25.2571 20.8115 26.7501C24.742 21.931 26.1689 14.9688 23.1779 9.46924C23.1881 9.47432 23.1982 9.47939 23.2084 9.49463C25.0111 10.9368 25.8541 13.3946 25.9709 15.6341C26.2705 15.4614 26.6006 15.2888 26.9459 15.2228C27.3217 14.9739 27.8041 15.3294 27.9209 15.6646C28.0783 16.1165 27.9717 16.6649 27.8752 17.1169Z" fill="#FFBFB6"/>
</svg>
