<svg width="35" height="53" viewBox="0 0 35 53" fill="none" xmlns="http://www.w3.org/2000/svg">
<path d="M33.5718 47.5034C28.2499 50.7433 22.8925 52.353 17.4995 52.3733C12.1065 52.353 6.74911 50.7433 1.42724 47.5034C0.716298 47.0616 0.320205 46.2593 0.41669 45.4265C0.619815 43.8167 0.924502 41.3233 0.924502 41.3233C1.14286 39.5663 2.16864 37.9565 3.75302 37.1644L11.7409 33.1577H23.2581L31.246 37.1644C32.8304 37.9565 33.8561 39.5663 34.0745 41.3233C34.0745 41.3233 34.3792 43.8167 34.5823 45.4265C34.6788 46.2593 34.2827 47.0616 33.5718 47.5034Z" fill="#2F368F"/>
<path d="M8.36523 18.5933C8.36523 18.7202 8.37031 18.8472 8.37539 18.9741H8.37031V18.969C8.37031 18.8421 8.36523 18.7202 8.36523 18.5933Z" fill="#FDDFCC"/>
<path d="M8.48145 14.8103C8.48145 14.7595 8.48652 14.7036 8.4916 14.6528C8.48652 14.6985 8.48652 14.7493 8.48652 14.8001C8.48652 14.8001 8.48145 14.8052 8.48145 14.8103Z" fill="#FDDFCC"/>
<path d="M13.3164 29.2168C13.484 29.3285 13.6516 29.4352 13.8242 29.5367C13.748 29.4961 13.6719 29.4555 13.6008 29.4098C13.5043 29.3488 13.4129 29.2879 13.3164 29.2168Z" fill="#FDDFCC"/>
<path d="M8.18164 18.8726C8.24766 18.9081 8.30859 18.9386 8.36953 18.969V18.9741C8.30859 18.9386 8.24766 18.9081 8.18164 18.8726Z" fill="#FDDFCC"/>
<path d="M21.1768 29.5367C21.3494 29.4352 21.517 29.3285 21.6846 29.2168C21.5881 29.2879 21.4967 29.3488 21.4002 29.4098C21.3291 29.4555 21.2529 29.4961 21.1768 29.5367Z" fill="#FDDFCC"/>
<path d="M8.18164 18.873C8.24766 18.9086 8.30859 18.9391 8.36953 18.9695V18.9746C8.30859 18.9391 8.24766 18.9086 8.18164 18.873Z" fill="#242A62"/>
<path d="M8.48047 14.8103C8.48047 14.7595 8.48555 14.7036 8.49062 14.6528C8.48555 14.6985 8.48555 14.7493 8.48555 14.8001C8.48555 14.8001 8.48047 14.8052 8.48047 14.8103Z" fill="#242A62"/>
<path d="M8.18164 18.873C8.24766 18.9086 8.30859 18.9391 8.36953 18.9695V18.9746C8.30859 18.9391 8.24766 18.9086 8.18164 18.873Z" fill="#242A62"/>
<path d="M8.48047 14.8103C8.48047 14.7595 8.48555 14.7036 8.49062 14.6528C8.48555 14.6985 8.48555 14.7493 8.48555 14.8001C8.48555 14.8001 8.48047 14.8052 8.48047 14.8103Z" fill="#242A62"/>
<path d="M13.5693 30.4052C13.61 30.2731 13.6506 30.1411 13.6912 30.0142C13.6557 30.1411 13.615 30.2681 13.5744 30.4052H13.5693Z" fill="#FFBFB6"/>
<path d="M27.4371 18.5935C27.168 18.6849 26.8989 19.1774 26.7161 19.3958C26.4723 19.6802 26.2235 19.9595 25.9696 20.2337C25.5024 20.7313 25.0149 21.2138 24.502 21.6657C23.6692 22.402 22.7704 23.0622 21.7954 23.5954C20.2567 24.4333 18.5301 24.9106 16.768 24.804C13.9903 24.6364 11.5121 23.0927 9.58246 21.1731C8.92738 20.5231 8.32308 19.8224 7.77465 19.0809C7.24652 18.3599 7.12973 17.6083 6.93168 16.7145C5.86019 11.8345 6.08871 5.43603 11.1719 2.89697C13.9192 1.52587 17.2758 0.728607 20.3481 0.870794C21.6786 0.931732 23.1563 1.1704 24.2633 1.97275C25.543 2.90204 25.6598 4.35439 24.9489 5.70009C25.3551 5.49189 25.8274 5.84228 26.1067 6.10634C26.9903 6.94423 27.5793 8.20869 27.7774 9.40205C28.1582 11.7583 27.9094 14.2567 27.6707 16.6181C27.6047 17.2782 27.5286 17.9384 27.4371 18.5935Z" fill="#242A62"/>
<path d="M29.1492 18.7764C28.7429 17.8521 27.2043 18.6646 26.6254 18.9744C26.6558 18.1924 26.539 17.4307 26.5136 16.6537C26.4933 16.0393 26.5441 15.4146 26.5136 14.8002C26.5136 13.2361 26.2039 11.0627 24.914 10.0166C23.4464 8.82324 21.6691 9.86934 20.2218 10.4889C19.4347 10.824 18.6121 11.0881 17.7589 11.1896C17.0226 11.2811 16.1949 11.0119 15.5043 10.7732C14.0011 10.2502 12.3 8.94512 10.6394 9.67637C8.86715 10.4584 8.48629 13.0939 8.48629 14.8002C8.45582 15.4146 8.5066 16.0393 8.48629 16.6537C8.4609 17.4307 8.3441 18.1924 8.37457 18.9744C7.80582 18.6748 6.79528 18.1162 6.15035 18.4615C5.46481 18.8271 5.80504 19.9697 5.9777 20.5232C6.42965 22.0162 7.41481 23.301 9.09567 23.2705C9.85738 25.8045 11.5332 28.1861 13.8285 29.5369C13.407 30.8471 13.0261 32.3959 11.7464 33.1576C11.7464 35.7424 13.148 38.5354 15.6211 39.5561C17.9164 40.5006 20.4148 39.5256 21.8367 37.5857C22.7609 36.3264 23.2636 34.7217 23.2636 33.1576C21.9433 32.3807 21.6742 30.8471 21.1765 29.5369C23.5074 28.2471 25.1273 25.7639 25.9144 23.2705C26.8285 23.2857 27.6816 22.8896 28.2504 22.1686C28.6922 21.6049 28.9461 20.899 29.1187 20.2135C29.2254 19.7666 29.3472 19.2131 29.1492 18.7764Z" fill="#FDDFCC"/>
<path d="M26.5131 14.8C26.1779 13.3578 25.1877 11.6109 23.6338 11.2352C22.999 11.0777 22.4354 11.2504 21.8768 11.5449C21.1506 11.9309 20.3838 12.2102 19.5967 12.4539C18.3932 12.8246 17.149 12.9008 15.9201 12.6012C15.1889 12.4184 14.4424 12.1746 13.7518 11.8648C13.1627 11.6008 12.6396 11.2148 11.9744 11.1793C10.1107 11.0727 8.84121 13.241 8.47559 14.8051C8.47559 13.241 8.78535 11.0676 10.0752 10.0215C11.5428 8.82812 13.3201 9.87422 14.7674 10.4937C15.5545 10.8289 16.3771 11.093 17.2303 11.1945C17.9666 11.2859 18.7943 11.0168 19.485 10.7781C20.9881 10.2551 22.6893 8.95 24.3498 9.68125C26.1322 10.4582 26.5131 13.0887 26.5131 14.8Z" fill="#FFBFB6"/>
<path d="M21.1713 30.5527C21.2576 30.502 21.3439 30.4461 21.4252 30.3953C21.3389 30.1363 21.2678 29.8824 21.2119 29.6539L21.1713 29.5371C20.049 30.1871 18.8049 30.5477 17.4998 30.5477C16.1896 30.5477 14.9455 30.1871 13.8232 29.5371L13.7877 29.6539C13.7318 29.8824 13.6557 30.1414 13.5693 30.4055C13.5795 30.4105 13.5896 30.4207 13.5998 30.4258C13.6709 30.4715 13.7471 30.5121 13.8232 30.5527C14.9455 31.2027 16.1896 31.5633 17.4998 31.5633C18.8049 31.5633 20.049 31.2027 21.1713 30.5527Z" fill="#FFBFB6"/>
<path d="M24.2686 1.97283C23.1666 1.17049 21.6889 0.931815 20.3533 0.870878C17.2811 0.72869 13.9244 1.52088 11.1772 2.89705C7.00293 4.98416 6.10411 9.67635 6.51036 13.9928L6.51543 13.9978C6.80997 12.2357 7.43965 10.565 8.35372 9.03143C9.76036 6.65486 11.9236 4.90799 14.7318 4.59822C17.5654 4.28338 20.5006 4.73533 23.258 3.88221C23.2732 3.87713 23.2885 3.87205 23.3037 3.86697C23.9385 3.63338 24.5529 3.29822 25.0455 2.82088C24.8627 2.50603 24.6088 2.22166 24.2686 1.97283Z" fill="#2D387A"/>
</svg>
