<svg width="36" height="28" viewBox="0 0 36 28" fill="none" xmlns="http://www.w3.org/2000/svg">
<path d="M28.5 0.4375H7.5C3.2685 0.4375 0.9375 2.7685 0.9375 7V21C0.9375 25.2315 3.2685 27.5625 7.5 27.5625H28.5C32.7315 27.5625 35.0625 25.2315 35.0625 21V7C35.0625 2.7685 32.7315 0.4375 28.5 0.4375ZM32.4375 21C32.4375 23.7598 31.2598 24.9375 28.5 24.9375H7.5C4.74025 24.9375 3.5625 23.7598 3.5625 21V11.8125H32.4375V21ZM32.4375 9.1875H3.5625V7C3.5625 4.24025 4.74025 3.0625 7.5 3.0625H28.5C31.2598 3.0625 32.4375 4.24025 32.4375 7V9.1875ZM7.9375 19.25C7.9375 18.5255 8.5255 17.9375 9.25 17.9375H14.5C15.2245 17.9375 15.8125 18.5255 15.8125 19.25C15.8125 19.9745 15.2245 20.5625 14.5 20.5625H9.25C8.5255 20.5625 7.9375 19.9745 7.9375 19.25Z" fill="#000000"/>
</svg>
