<svg width="24" height="24" viewBox="0 0 24 24" fill="none" xmlns="http://www.w3.org/2000/svg">
<path d="M6.99805 2.99023C4.78895 2.99023 2.99805 4.78123 2.99805 6.99023V12.9902C2.99805 15.1992 4.78895 16.9902 6.99805 16.9902C6.99805 19.1992 8.78895 20.9902 10.998 20.9902H16.998C19.2071 20.9902 20.998 19.1992 20.998 16.9902V10.9902C20.998 8.78123 19.2071 6.99023 16.998 6.99023C16.998 4.78123 15.2071 2.99023 12.998 2.99023H6.99805ZM16.998 8.99023C18.1026 8.99023 18.998 9.88523 18.998 10.9902V16.9902C18.998 18.0952 18.1026 18.9902 16.998 18.9902H10.998C9.89345 18.9902 8.99805 18.0952 8.99805 16.9902H12.998C15.2071 16.9902 16.998 15.1992 16.998 12.9902V8.99023Z" fill="#6200ED"/>
</svg>
