<svg width="100" height="100" viewBox="0 0 100 100" fill="none" xmlns="http://www.w3.org/2000/svg">
<rect width="100" height="100" rx="50" fill="#D6F0E3"/>
<path d="M49.8547 26.3411L44.0306 39.8986H38.2064C37.2397 39.8986 36.2972 39.9711 35.3789 40.1644L37.7956 34.3644L37.8922 34.1469L38.0372 33.7602C38.1097 33.5911 38.1581 33.4461 38.2306 33.3252C41.0339 26.8244 44.1756 24.7944 49.8547 26.3411Z" fill="#01A452"/>
<path d="M66.2632 40.5507L66.2149 40.5265C64.7649 40.1157 63.2907 39.8982 61.7924 39.8982H46.6641L52.1016 27.259L52.1741 27.0898C52.5124 27.2107 52.8749 27.3798 53.2374 27.5007L58.5782 29.7482C61.5507 30.9807 63.6291 32.2615 64.9099 33.8082C65.1274 34.0982 65.3207 34.364 65.5141 34.6782C65.7316 35.0165 65.9007 35.3548 65.9974 35.7173C66.0941 35.9348 66.1666 36.1282 66.2149 36.3457C66.5774 37.5782 66.6016 38.9798 66.2632 40.5507Z" fill="#01A452"/>
<path d="M65.2016 44.0068C64.1141 43.6926 62.9782 43.5234 61.7941 43.5234H38.2074C36.5641 43.5234 35.0174 43.8376 33.5674 44.4659C29.3624 46.2784 26.4141 50.4593 26.4141 55.3168V60.0293C26.4141 60.6093 26.4624 61.1651 26.5349 61.7451C27.0666 69.4301 31.1749 73.5384 38.8599 74.0459C39.4157 74.1184 39.9716 74.1668 40.5757 74.1668H59.4257C68.3674 74.1668 73.0799 69.9134 73.5391 61.4551C73.5632 60.9959 73.5874 60.5126 73.5874 60.0293V55.3168C73.5874 49.9759 70.0349 45.4809 65.2016 44.0068ZM56.0424 60.1259H51.8132V64.5001C51.8132 65.4909 50.9916 66.3126 50.0007 66.3126C49.0099 66.3126 48.1882 65.4909 48.1882 64.5001V60.1259H43.9591C42.9682 60.1259 42.1466 59.3284 42.1466 58.3134C42.1466 57.3226 42.9682 56.5009 43.9591 56.5009H48.1882V52.4168C48.1882 51.4259 49.0099 50.6043 50.0007 50.6043C50.9916 50.6043 51.8132 51.4259 51.8132 52.4168V56.5009H56.0424C57.0332 56.5009 57.8549 57.3226 57.8549 58.3134C57.8549 59.3284 57.0332 60.1259 56.0424 60.1259Z" fill="#01A452"/>
</svg>
