<svg width="65" height="64" viewBox="0 0 65 64" fill="none" xmlns="http://www.w3.org/2000/svg">
<rect x="0.5" width="64" height="64" rx="32" fill="#6C38F6"/>
<path d="M28.9225 44H25C24.2044 44 23.4413 43.6839 22.8787 43.1213C22.3161 42.5587 22 41.7956 22 41V23C22 22.2044 22.3161 21.4413 22.8787 20.8787C23.4413 20.3161 24.2044 20 25 20H37C37.7956 20 38.5587 20.3161 39.1213 20.8787C39.6839 21.4413 40 22.2044 40 23V35M35.5 42.5L38.5 45.5L44.5 39.5M28 26H34M28 32H31" stroke="white" stroke-width="2" stroke-linecap="round" stroke-linejoin="round"/>
</svg>
