<svg width="100" height="100" viewBox="0 0 100 100" fill="none" xmlns="http://www.w3.org/2000/svg">
<rect width="100" height="100" rx="50" fill="#E1CEFF"/>
<path d="M33.0827 57.25C30.811 57.25 28.7085 58.0475 27.041 59.3767C24.8177 61.1408 23.416 63.8717 23.416 66.9167C23.416 68.7292 23.9235 70.445 24.8177 71.895C26.4852 74.6983 29.5543 76.5833 33.0827 76.5833C35.5235 76.5833 37.7469 75.6892 39.4385 74.1667C40.1877 73.5383 40.8402 72.765 41.3477 71.895C42.2418 70.445 42.7493 68.7292 42.7493 66.9167C42.7493 61.5758 38.4235 57.25 33.0827 57.25ZM38.0852 65.8775L32.9377 70.6383C32.5993 70.9525 32.1402 71.1217 31.7052 71.1217C31.246 71.1217 30.7868 70.9525 30.4243 70.59L28.0318 68.1975C27.331 67.4967 27.331 66.3367 28.0318 65.6358C28.7327 64.935 29.8927 64.935 30.5935 65.6358L31.7535 66.7958L35.6202 63.2192C36.3452 62.5425 37.5052 62.5908 38.1818 63.3158C38.8585 64.0408 38.8102 65.2008 38.0852 65.8775Z" fill="#7B2BFF"/>
<path d="M56.8869 30.5458V39.7291H53.2619V30.5458C53.2619 29.8933 52.6818 29.5791 52.2952 29.5791C52.1743 29.5791 52.0535 29.6033 51.9327 29.6516L32.7685 36.8774C31.4877 37.3608 30.666 38.5691 30.666 39.9466V41.5658C28.4668 43.2091 27.041 45.8433 27.041 48.8158V39.9466C27.041 37.0708 28.8052 34.5091 31.4877 33.4941L50.676 26.2441C51.2077 26.0508 51.7635 25.9541 52.2952 25.9541C54.7118 25.9541 56.8869 27.9116 56.8869 30.5458Z" fill="#7B2BFF"/>
<path d="M72.9583 56.0418V58.4585C72.9583 59.111 72.4508 59.6427 71.7742 59.6668H68.2458C66.965 59.6668 65.805 58.7243 65.7083 57.4677C65.6358 56.7185 65.9258 56.0177 66.4092 55.5343C66.8442 55.0752 67.4483 54.8335 68.1008 54.8335H71.75C72.4508 54.8577 72.9583 55.3893 72.9583 56.0418Z" fill="#7B2BFF"/>
<path d="M68.076 52.2957H70.541C71.8702 52.2957 72.9577 51.2082 72.9577 49.879V48.8157C72.9577 43.8132 68.8735 39.729 63.871 39.729H36.1277C34.0735 39.729 32.1885 40.4057 30.666 41.5657C28.4668 43.209 27.041 45.8432 27.041 48.8157V53.1173C27.041 54.0357 28.0077 54.6157 28.8777 54.3257C30.231 53.8665 31.6568 53.6248 33.0827 53.6248C40.4052 53.6248 46.3743 59.594 46.3743 66.9165C46.3743 68.6565 45.9152 70.5657 45.1902 72.2573C44.8035 73.1273 45.4077 74.1665 46.3502 74.1665H63.871C68.8735 74.1665 72.9577 70.0823 72.9577 65.0798V64.6207C72.9577 63.2915 71.8702 62.204 70.541 62.204H68.4385C66.1185 62.204 63.8952 60.7782 63.291 58.5307C62.8077 56.694 63.3877 54.9057 64.596 53.7457C65.4902 52.8273 66.7227 52.2957 68.076 52.2957ZM54.8327 51.8123H42.7493C41.7585 51.8123 40.9368 50.9907 40.9368 49.9998C40.9368 49.009 41.7585 48.1873 42.7493 48.1873H54.8327C55.8235 48.1873 56.6452 49.009 56.6452 49.9998C56.6452 50.9907 55.8235 51.8123 54.8327 51.8123Z" fill="#7B2BFF"/>
</svg>
