<svg width="100" height="100" viewBox="0 0 100 100" fill="none" xmlns="http://www.w3.org/2000/svg">
<rect width="100" height="100" rx="50" fill="#FCE7E6"/>
<path d="M49.8528 26.3406L44.0286 39.8981H38.2045C37.2378 39.8981 36.2953 39.9706 35.377 40.1639L37.7936 34.3639L37.8903 34.1464L38.0353 33.7598C38.1078 33.5906 38.1561 33.4456 38.2286 33.3248C41.032 26.8239 44.1736 24.7939 49.8528 26.3406Z" fill="#FF6159"/>
<path d="M66.2613 40.5507L66.2129 40.5265C64.7629 40.1157 63.2888 39.8982 61.7904 39.8982H46.6621L52.0996 27.259L52.1721 27.0898C52.5104 27.2107 52.8729 27.3798 53.2354 27.5007L58.5763 29.7482C61.5488 30.9807 63.6271 32.2615 64.9079 33.8082C65.1254 34.0982 65.3188 34.364 65.5121 34.6782C65.7296 35.0165 65.8988 35.3548 65.9954 35.7173C66.0921 35.9348 66.1646 36.1282 66.2129 36.3457C66.5754 37.5782 66.5996 38.9798 66.2613 40.5507Z" fill="#FF6159"/>
<path d="M65.2016 44.0063C64.1141 43.6921 62.9782 43.5229 61.7941 43.5229H38.2074C36.5641 43.5229 35.0174 43.8371 33.5674 44.4654C29.3624 46.2779 26.4141 50.4588 26.4141 55.3163V60.0288C26.4141 60.6088 26.4624 61.1646 26.5349 61.7446C27.0666 69.4296 31.1749 73.538 38.8599 74.0455C39.4157 74.118 39.9716 74.1663 40.5757 74.1663H59.4257C68.3674 74.1663 73.0799 69.9129 73.5391 61.4546C73.5632 60.9954 73.5874 60.5121 73.5874 60.0288V55.3163C73.5874 49.9754 70.0349 45.4805 65.2016 44.0063ZM56.0424 61.4788H43.9591C42.9682 61.4788 42.1466 60.6571 42.1466 59.6663C42.1466 58.6754 42.9682 57.8538 43.9591 57.8538H56.0424C57.0332 57.8538 57.8549 58.6754 57.8549 59.6663C57.8549 60.6571 57.0332 61.4788 56.0424 61.4788Z" fill="#FF6159"/>
</svg>
