<svg width="25" height="23" viewBox="0 0 25 23" fill="none" xmlns="http://www.w3.org/2000/svg">
<path d="M11.3716 5.75343V0.939816C11.3716 0.427988 11.7799 0.00146484 12.2962 0.00146484C12.7584 0.00146484 13.1501 0.359863 13.2121 0.813834L13.2207 0.939816V5.75343L18.9599 5.7538C21.8176 5.7538 24.1654 8.09391 24.2972 11.0124L24.303 11.2713V17.322C24.303 20.2609 22.0369 22.6733 19.2217 22.8087L18.9719 22.8147H5.62016C2.7625 22.8147 0.42605 20.4863 0.294871 17.5572L0.289062 17.2972L0.289063 11.2589C0.289063 8.32002 2.54387 5.89595 5.3584 5.75983L5.60816 5.7538H11.3715V13.4411L9.45039 11.4573C9.09018 11.0853 8.50184 11.0853 8.14163 11.4573C7.96152 11.6433 7.87747 11.8913 7.87747 12.1392C7.87747 12.3277 7.93127 12.5241 8.045 12.6904L8.14163 12.8088L11.6357 16.4293C11.8038 16.6153 12.0439 16.7145 12.296 16.7145C12.4962 16.7145 12.6963 16.6456 12.8547 16.515L12.9444 16.4293L16.4385 12.8088C16.7987 12.4368 16.7987 11.8293 16.4385 11.4573C16.111 11.1192 15.595 11.0884 15.2332 11.3651L15.1297 11.4573L13.2206 13.4411V5.7538L11.3716 5.75343Z" fill="white"/>
</svg>
